NotoSansEthiopic-CondensedSemiBold.ufo
<glyph name="hyphen" format="2">
  <advance width="300"/>
  <unicode hex="002D"/>
  <outline>
    <contour>
      <point x="28" y="210" type="line"/>
      <point x="272" y="210" type="line"/>
      <point x="272" y="328" type="line"/>
      <point x="28" y="328" type="line"/>
    </contour>
  </outline>
</glyph>
<glyph name="dieresiscomb" format="2">
  <unicode hex="0308"/>
  <anchor x="1" y="546" name="_top"/>
  <anchor x="1" y="748" name="top"/>
  <outline>
    <contour>
      <point x="-151" y="681" type="curve" smooth="yes"/>
      <point x="-151" y="638"/>
      <point x="-127" y="615"/>
      <point x="-91" y="615" type="curve" smooth="yes"/>
      <point x="-54" y="615"/>
      <point x="-30" y="640"/>
      <point x="-30" y="681" type="curve" smooth="yes"/>
      <point x="-30" y="723"/>
      <point x="-54" y="748"/>
      <point x="-91" y="748" type="curve" smooth="yes"/>
      <point x="-127" y="748"/>
      <point x="-151" y="725"/>
    </contour>
    <contour>
      <point x="30" y="681" type="curve" smooth="yes"/>
      <point x="30" y="639"/>
      <point x="54" y="615"/>
      <point x="91" y="615" type="curve" smooth="yes"/>
      <point x="128" y="615"/>
      <point x="152" y="640"/>
      <point x="152" y="681" type="curve" smooth="yes"/>
      <point x="152" y="723"/>
      <point x="128" y="748"/>
      <point x="91" y="748" type="curve" smooth="yes"/>
      <point x="54" y="748"/>
      <point x="30" y="725"/>
    </contour>
  </outline>
</glyph>
<glyph name="dblverticallineabovecomb" format="2">
  <unicode hex="030E"/>
  <anchor x="0" y="546" name="_top"/>
  <anchor x="0" y="772" name="top"/>
  <outline>
    <contour>
      <point x="-25" y="772" type="line"/>
      <point x="-107" y="772" type="line"/>
      <point x="-107" y="597" type="line"/>
      <point x="-25" y="597" type="line"/>
    </contour>
    <contour>
      <point x="107" y="772" type="line"/>
      <point x="26" y="772" type="line"/>
      <point x="26" y="597" type="line"/>
      <point x="107" y="597" type="line"/>
    </contour>
  </outline>
</glyph>
<glyph name="ha.eth" format="2">
  <advance width="562"/>
  <unicode hex="1200"/>
  <note>
uni1200
</note>
  <anchor x="281" y="714" name="top"/>
  <outline>
    <contour>
      <point x="277" y="-10" type="curve" smooth="yes"/>
      <point x="424" y="-10"/>
      <point x="485" y="88"/>
      <point x="485" y="229" type="curve" smooth="yes"/>
      <point x="485" y="714" type="line"/>
      <point x="355" y="714" type="line"/>
      <point x="355" y="237" type="line" smooth="yes"/>
      <point x="355" y="160"/>
      <point x="342" y="105"/>
      <point x="278" y="105" type="curve" smooth="yes"/>
      <point x="220" y="105"/>
      <point x="207" y="151"/>
      <point x="207" y="236" type="curve" smooth="yes"/>
      <point x="207" y="714" type="line"/>
      <point x="77" y="714" type="line"/>
      <point x="77" y="231" type="line" smooth="yes"/>
      <point x="77" y="79"/>
      <point x="126" y="-10"/>
    </contour>
  </outline>
</glyph>
<glyph name="hi.eth" format="2">
  <advance width="470"/>
  <unicode hex="1202"/>
  <note>
uni1202
</note>
  <anchor x="250" y="714" name="top"/>
  <outline>
    <contour>
      <point x="107" y="0" type="line"/>
      <point x="218" y="0" type="line"/>
      <point x="451" y="714" type="line"/>
      <point x="322" y="714" type="line"/>
      <point x="233" y="432" type="line"/>
      <point x="196" y="436"/>
      <point x="166" y="469"/>
      <point x="166" y="537" type="curve" smooth="yes"/>
      <point x="166" y="714" type="line"/>
      <point x="35" y="714" type="line"/>
      <point x="35" y="529" type="line" smooth="yes"/>
      <point x="35" y="402"/>
      <point x="98" y="341"/>
      <point x="194" y="328" type="curve"/>
      <point x="107" y="71" type="line"/>
    </contour>
    <contour>
      <point x="175" y="0" type="line"/>
      <point x="331" y="0" type="line"/>
      <point x="331" y="90" type="line"/>
      <point x="175" y="90" type="line"/>
    </contour>
    <component base="rightdoubleflag" xOffset="254"/>
  </outline>
</glyph>
<glyph name="haa.eth" format="2">
  <advance width="471"/>
  <unicode hex="1203"/>
  <note>
uni1203
</note>
  <anchor x="243" y="714" name="top"/>
  <outline>
    <contour>
      <point x="83" y="0" type="line"/>
      <point x="217" y="0" type="line"/>
      <point x="451" y="714" type="line"/>
      <point x="321" y="714" type="line"/>
      <point x="233" y="432" type="line"/>
      <point x="197" y="436"/>
      <point x="165" y="469"/>
      <point x="165" y="537" type="curve" smooth="yes"/>
      <point x="165" y="714" type="line"/>
      <point x="35" y="714" type="line"/>
      <point x="35" y="529" type="line" smooth="yes"/>
      <point x="35" y="402"/>
      <point x="99" y="341"/>
      <point x="193" y="328" type="curve"/>
    </contour>
  </outline>
</glyph>
<glyph name="hee.eth" format="2">
  <advance width="511"/>
  <unicode hex="1204"/>
  <note>
uni1204
</note>
  <anchor x="267" y="714" name="top"/>
  <outline>
    <contour>
      <point x="109" y="0" type="line"/>
      <point x="217" y="0" type="line"/>
      <point x="451" y="714" type="line"/>
      <point x="321" y="714" type="line"/>
      <point x="233" y="432" type="line"/>
      <point x="197" y="436"/>
      <point x="165" y="469"/>
      <point x="165" y="537" type="curve" smooth="yes"/>
      <point x="165" y="714" type="line"/>
      <point x="35" y="714" type="line"/>
      <point x="35" y="529" type="line" smooth="yes"/>
      <point x="35" y="402"/>
      <point x="99" y="341"/>
      <point x="193" y="328" type="curve"/>
      <point x="109" y="79" type="line"/>
    </contour>
    <contour>
      <point x="236" y="92" type="line"/>
      <point x="273" y="211" type="line"/>
      <point x="315" y="211" type="line" smooth="yes"/>
      <point x="353" y="211"/>
      <point x="369" y="190"/>
      <point x="369" y="157" type="curve" smooth="yes"/>
      <point x="369" y="118"/>
      <point x="346" y="92"/>
      <point x="299" y="92" type="curve" smooth="yes"/>
    </contour>
    <contour>
      <point x="151" y="0" type="line"/>
      <point x="297" y="0" type="line" smooth="yes"/>
      <point x="439" y="0"/>
      <point x="500" y="62"/>
      <point x="500" y="159" type="curve" smooth="yes"/>
      <point x="500" y="251"/>
      <point x="447" y="303"/>
      <point x="324" y="303" type="curve" smooth="yes"/>
      <point x="250" y="303" type="line"/>
    </contour>
  </outline>
</glyph>
<glyph name="he.eth" format="2">
  <advance width="617"/>
  <unicode hex="1205"/>
  <note>
uni1205
</note>
  <anchor x="290" y="714" name="top"/>
  <outline>
    <contour>
      <point x="335" y="-10" type="curve" smooth="yes"/>
      <point x="481" y="-10"/>
      <point x="540" y="88"/>
      <point x="540" y="229" type="curve" smooth="yes"/>
      <point x="540" y="714" type="line"/>
      <point x="410" y="714" type="line"/>
      <point x="410" y="237" type="line" smooth="yes"/>
      <point x="410" y="160"/>
      <point x="399" y="105"/>
      <point x="337" y="105" type="curve" smooth="yes"/>
      <point x="280" y="105"/>
      <point x="266" y="151"/>
      <point x="266" y="236" type="curve" smooth="yes"/>
      <point x="266" y="541" type="line"/>
      <point x="136" y="541" type="line"/>
      <point x="136" y="231" type="line" smooth="yes"/>
      <point x="136" y="78"/>
      <point x="187" y="-10"/>
    </contour>
    <contour>
      <point x="138" y="441" type="curve"/>
      <point x="266" y="541" type="line"/>
      <point x="229" y="541" type="line" smooth="yes"/>
      <point x="188" y="541"/>
      <point x="169" y="566"/>
      <point x="169" y="644" type="curve" smooth="yes"/>
      <point x="169" y="714" type="line"/>
      <point x="40" y="714" type="line"/>
      <point x="40" y="626" type="line" smooth="yes"/>
      <point x="40" y="503"/>
      <point x="77" y="448"/>
    </contour>
  </outline>
</glyph>
<glyph name="ho.eth" format="2">
  <advance width="710"/>
  <unicode hex="1206"/>
  <note>
uni1206
</note>
  <anchor x="388" y="724" name="top"/>
  <outline>
    <contour>
      <point x="279" y="-10" type="curve" smooth="yes"/>
      <point x="423" y="-10"/>
      <point x="485" y="88"/>
      <point x="485" y="229" type="curve" smooth="yes"/>
      <point x="485" y="680" type="line"/>
      <point x="355" y="680" type="line"/>
      <point x="355" y="237" type="line" smooth="yes"/>
      <point x="355" y="159"/>
      <point x="342" y="105"/>
      <point x="278" y="105" type="curve" smooth="yes"/>
      <point x="220" y="105"/>
      <point x="207" y="152"/>
      <point x="207" y="236" type="curve" smooth="yes"/>
      <point x="207" y="714" type="line"/>
      <point x="77" y="714" type="line"/>
      <point x="77" y="231" type="line" smooth="yes"/>
      <point x="77" y="78"/>
      <point x="126" y="-10"/>
    </contour>
    <contour>
      <point x="438" y="412" type="line"/>
      <point x="519" y="412" type="line" smooth="yes"/>
      <point x="648" y="412"/>
      <point x="699" y="479"/>
      <point x="699" y="578" type="curve" smooth="yes"/>
      <point x="699" y="669"/>
      <point x="651" y="724"/>
      <point x="542" y="724" type="curve" smooth="yes"/>
      <point x="462" y="724"/>
      <point x="397" y="703"/>
      <point x="355" y="680" type="curve"/>
    </contour>
    <contour>
      <point x="485" y="512" type="line"/>
      <point x="485" y="618" type="line"/>
      <point x="497" y="622"/>
      <point x="513" y="624"/>
      <point x="528" y="624" type="curve" smooth="yes"/>
      <point x="559" y="624"/>
      <point x="577" y="605"/>
      <point x="577" y="571" type="curve" smooth="yes"/>
      <point x="577" y="532"/>
      <point x="553" y="512"/>
      <point x="501" y="512" type="curve" smooth="yes"/>
    </contour>
  </outline>
</glyph>
<glyph name="la.eth" format="2">
  <advance width="532"/>
  <unicode hex="1208"/>
  <note>
uni1208
</note>
  <anchor x="268" y="714" name="top"/>
  <outline>
    <contour>
      <point x="25" y="0" type="curve"/>
      <point x="154" y="0" type="line"/>
      <point x="170" y="328"/>
      <point x="197" y="434"/>
      <point x="268" y="462" type="curve"/>
      <point x="377" y="0" type="line"/>
      <point x="512" y="0" type="line"/>
      <point x="335" y="714" type="line"/>
      <point x="200" y="714" type="line"/>
      <point x="239" y="564" type="line"/>
      <point x="101" y="519"/>
      <point x="46" y="399"/>
    </contour>
  </outline>
</glyph>
<glyph name="laa.eth" format="2">
  <advance width="518"/>
  <unicode hex="120B"/>
  <note>
uni120B
</note>
  <anchor x="261" y="714" name="top"/>
  <outline>
    <contour>
      <point x="363" y="0" type="line"/>
      <point x="498" y="0" type="line"/>
      <point x="322" y="714" type="line"/>
      <point x="187" y="714" type="line"/>
      <point x="225" y="564" type="line"/>
      <point x="115" y="537"/>
      <point x="51" y="449"/>
      <point x="25" y="175" type="curve"/>
      <point x="155" y="175" type="line"/>
      <point x="172" y="373"/>
      <point x="206" y="442"/>
      <point x="255" y="458" type="curve"/>
    </contour>
  </outline>
</glyph>
<glyph name="lee.eth" format="2">
  <advance width="710"/>
  <unicode hex="120C"/>
  <note>
uni120C
</note>
  <anchor x="362" y="714" name="top"/>
  <outline>
    <contour>
      <point x="25" y="0" type="curve"/>
      <point x="154" y="0" type="line"/>
      <point x="170" y="308"/>
      <point x="209" y="434"/>
      <point x="270" y="462" type="curve"/>
      <point x="377" y="0" type="line"/>
      <point x="485" y="0" type="line"/>
      <point x="497" y="59" type="line"/>
      <point x="335" y="714" type="line"/>
      <point x="200" y="714" type="line"/>
      <point x="239" y="564" type="line"/>
      <point x="111" y="519"/>
      <point x="49" y="369"/>
    </contour>
    <contour>
      <point x="460" y="92" type="line"/>
      <point x="430" y="211" type="line"/>
      <point x="508" y="211" type="line" smooth="yes"/>
      <point x="557" y="211"/>
      <point x="573" y="184"/>
      <point x="573" y="152" type="curve" smooth="yes"/>
      <point x="573" y="118"/>
      <point x="550" y="92"/>
      <point x="508" y="92" type="curve" smooth="yes"/>
    </contour>
    <contour>
      <point x="391" y="0" type="line"/>
      <point x="501" y="0" type="line" smooth="yes"/>
      <point x="640" y="0"/>
      <point x="699" y="62"/>
      <point x="699" y="159" type="curve" smooth="yes"/>
      <point x="699" y="251"/>
      <point x="648" y="303"/>
      <point x="528" y="303" type="curve" smooth="yes"/>
      <point x="323" y="303" type="line"/>
    </contour>
  </outline>
</glyph>
<glyph name="le.eth" format="2">
  <advance width="627"/>
  <unicode hex="120D"/>
  <note>
uni120D
</note>
  <anchor x="311" y="714" name="top"/>
  <outline>
    <contour>
      <point x="25" y="0" type="curve"/>
      <point x="162" y="0" type="line" smooth="yes"/>
      <point x="283" y="0"/>
      <point x="346" y="53"/>
      <point x="346" y="155" type="curve" smooth="yes"/>
      <point x="346" y="243"/>
      <point x="298" y="296"/>
      <point x="215" y="296" type="curve" smooth="yes"/>
      <point x="183" y="296" type="line"/>
      <point x="199" y="380"/>
      <point x="244" y="447"/>
      <point x="296" y="462" type="curve"/>
      <point x="462" y="0" type="line"/>
      <point x="597" y="0" type="line"/>
      <point x="333" y="714" type="line"/>
      <point x="198" y="714" type="line"/>
      <point x="255" y="565" type="line"/>
      <point x="126" y="512"/>
      <point x="35" y="336"/>
    </contour>
    <contour>
      <point x="153" y="100" type="line"/>
      <point x="155" y="127"/>
      <point x="158" y="164"/>
      <point x="166" y="196" type="curve"/>
      <point x="187" y="196" type="line" smooth="yes"/>
      <point x="216" y="196"/>
      <point x="235" y="183"/>
      <point x="235" y="153" type="curve" smooth="yes"/>
      <point x="235" y="116"/>
      <point x="215" y="100"/>
      <point x="173" y="100" type="curve" smooth="yes"/>
    </contour>
  </outline>
</glyph>
<glyph name="hha.eth" format="2">
  <advance width="664"/>
  <unicode hex="1210"/>
  <note>
uni1210
</note>
  <anchor x="332" y="714" name="top"/>
  <outline>
    <contour>
      <point x="45" y="0" type="line"/>
      <point x="175" y="0" type="line"/>
      <point x="175" y="195" type="line" smooth="yes"/>
      <point x="175" y="294"/>
      <point x="211" y="336"/>
      <point x="267" y="342" type="curve"/>
      <point x="267" y="0" type="line"/>
      <point x="397" y="0" type="line"/>
      <point x="397" y="342" type="line"/>
      <point x="453" y="336"/>
      <point x="489" y="294"/>
      <point x="489" y="194" type="curve" smooth="yes"/>
      <point x="489" y="0" type="line"/>
      <point x="619" y="0" type="line"/>
      <point x="619" y="194" type="line" smooth="yes"/>
      <point x="619" y="351"/>
      <point x="540" y="452"/>
      <point x="397" y="457" type="curve"/>
      <point x="397" y="714" type="line"/>
      <point x="267" y="714" type="line"/>
      <point x="267" y="458" type="line"/>
      <point x="122" y="452"/>
      <point x="45" y="351"/>
      <point x="45" y="194" type="curve" smooth="yes"/>
    </contour>
  </outline>
</glyph>
<glyph name="hhaa.eth" format="2">
  <advance width="664"/>
  <unicode hex="1213"/>
  <note>
uni1213
</note>
  <anchor x="332" y="714" name="top"/>
  <outline>
    <contour>
      <point x="489" y="0" type="line"/>
      <point x="619" y="0" type="line"/>
      <point x="619" y="204" type="line" smooth="yes"/>
      <point x="619" y="361"/>
      <point x="540" y="462"/>
      <point x="397" y="467" type="curve"/>
      <point x="397" y="714" type="line"/>
      <point x="267" y="714" type="line"/>
      <point x="267" y="468" type="line"/>
      <point x="122" y="462"/>
      <point x="45" y="361"/>
      <point x="45" y="204" type="curve" smooth="yes"/>
      <point x="45" y="160" type="line"/>
      <point x="175" y="160" type="line"/>
      <point x="175" y="205" type="line" smooth="yes"/>
      <point x="175" y="304"/>
      <point x="211" y="347"/>
      <point x="267" y="353" type="curve"/>
      <point x="267" y="160" type="line"/>
      <point x="397" y="160" type="line"/>
      <point x="397" y="353" type="line"/>
      <point x="453" y="347"/>
      <point x="489" y="304"/>
      <point x="489" y="204" type="curve" smooth="yes"/>
    </contour>
  </outline>
</glyph>
<glyph name="hhee.eth" format="2">
  <advance width="849"/>
  <unicode hex="1214"/>
  <note>
uni1214
</note>
  <anchor x="441" y="714" name="top"/>
  <outline>
    <contour>
      <point x="489" y="0" type="line"/>
      <point x="635" y="0" type="line" smooth="yes"/>
      <point x="777" y="0"/>
      <point x="838" y="62"/>
      <point x="838" y="159" type="curve" smooth="yes"/>
      <point x="838" y="251"/>
      <point x="785" y="303"/>
      <point x="662" y="303" type="curve" smooth="yes"/>
      <point x="489" y="303" type="line"/>
    </contour>
    <contour>
      <point x="619" y="92" type="line"/>
      <point x="619" y="211" type="line"/>
      <point x="645" y="211" type="line" smooth="yes"/>
      <point x="686" y="211"/>
      <point x="707" y="190"/>
      <point x="707" y="153" type="curve" smooth="yes"/>
      <point x="707" y="118"/>
      <point x="684" y="92"/>
      <point x="644" y="92" type="curve" smooth="yes"/>
    </contour>
    <component base="hha.eth"/>
  </outline>
</glyph>
<glyph name="mu.eth" format="2">
  <advance width="985"/>
  <unicode hex="1219"/>
  <note>
uni1219
</note>
  <anchor x="515" y="714" name="top"/>
  <outline>
    <contour>
      <point x="237" y="-10" type="curve" smooth="yes"/>
      <point x="318" y="-10"/>
      <point x="378" y="37"/>
      <point x="422" y="92" type="curve"/>
      <point x="422" y="604" type="line"/>
      <point x="499" y="604" type="line"/>
      <point x="499" y="73" type="line"/>
      <point x="637" y="73" type="line" smooth="yes"/>
      <point x="773" y="73"/>
      <point x="843" y="188"/>
      <point x="843" y="402" type="curve" smooth="yes"/>
      <point x="843" y="608"/>
      <point x="778" y="714"/>
      <point x="653" y="714" type="curve" smooth="yes"/>
      <point x="286" y="714" type="line" smooth="yes"/>
      <point x="135" y="714"/>
      <point x="50" y="563"/>
      <point x="50" y="319" type="curve" smooth="yes"/>
      <point x="50" y="108"/>
      <point x="113" y="-10"/>
    </contour>
    <contour>
      <point x="246" y="105" type="curve" smooth="yes"/>
      <point x="198" y="105"/>
      <point x="182" y="173"/>
      <point x="182" y="325" type="curve" smooth="yes"/>
      <point x="182" y="479"/>
      <point x="224" y="604"/>
      <point x="281" y="604" type="curve" smooth="yes"/>
      <point x="292" y="604" type="line"/>
      <point x="292" y="130" type="line"/>
      <point x="280" y="115"/>
      <point x="266" y="105"/>
    </contour>
    <contour>
      <point x="629" y="188" type="line"/>
      <point x="629" y="604" type="line"/>
      <point x="643" y="604" type="line" smooth="yes"/>
      <point x="694" y="604"/>
      <point x="712" y="496"/>
      <point x="712" y="400" type="curve" smooth="yes"/>
      <point x="712" y="291"/>
      <point x="691" y="188"/>
      <point x="643" y="188" type="curve" smooth="yes"/>
    </contour>
    <component base="rightdoubleflag" xOffset="769" yOffset="331"/>
  </outline>
</glyph>
<glyph name="mi.eth" format="2">
  <advance width="885"/>
  <unicode hex="121A"/>
  <note>
uni121A
</note>
  <anchor x="454" y="714" name="top"/>
  <outline>
    <contour>
      <point x="537" y="0" type="line"/>
      <point x="648" y="0" type="line"/>
      <point x="783" y="393" type="line" smooth="yes"/>
      <point x="805" y="457"/>
      <point x="821" y="517"/>
      <point x="821" y="566" type="curve" smooth="yes"/>
      <point x="821" y="667"/>
      <point x="778" y="714"/>
      <point x="669" y="714" type="curve" smooth="yes"/>
      <point x="278" y="714" type="line" smooth="yes"/>
      <point x="115" y="714"/>
      <point x="28" y="615"/>
      <point x="28" y="463" type="curve" smooth="yes"/>
      <point x="28" y="338"/>
      <point x="100" y="271"/>
      <point x="210" y="271" type="curve" smooth="yes"/>
      <point x="294" y="271"/>
      <point x="355" y="299"/>
      <point x="398" y="350" type="curve"/>
      <point x="398" y="604" type="line"/>
      <point x="482" y="604" type="line"/>
      <point x="476" y="580"/>
      <point x="472" y="537"/>
      <point x="472" y="495" type="curve" smooth="yes"/>
      <point x="472" y="392"/>
      <point x="518" y="342"/>
      <point x="612" y="342" type="curve" smooth="yes"/>
      <point x="631" y="342" type="line"/>
      <point x="537" y="79" type="line"/>
    </contour>
    <contour>
      <point x="603" y="0" type="line"/>
      <point x="726" y="0" type="line"/>
      <point x="726" y="90" type="line"/>
      <point x="603" y="90" type="line"/>
    </contour>
    <contour>
      <point x="220" y="381" type="curve" smooth="yes"/>
      <point x="187" y="381"/>
      <point x="161" y="408"/>
      <point x="161" y="470" type="curve" smooth="yes"/>
      <point x="161" y="555"/>
      <point x="197" y="604"/>
      <point x="265" y="604" type="curve" smooth="yes"/>
      <point x="268" y="604" type="line"/>
      <point x="268" y="405" type="line"/>
      <point x="257" y="391"/>
      <point x="242" y="381"/>
    </contour>
    <contour>
      <point x="656" y="452" type="line" smooth="yes"/>
      <point x="612" y="452"/>
      <point x="602" y="470"/>
      <point x="602" y="510" type="curve" smooth="yes"/>
      <point x="602" y="539"/>
      <point x="605" y="566"/>
      <point x="612" y="604" type="curve"/>
      <point x="639" y="604" type="line" smooth="yes"/>
      <point x="675" y="604"/>
      <point x="692" y="588"/>
      <point x="692" y="556" type="curve" smooth="yes"/>
      <point x="692" y="536"/>
      <point x="687" y="507"/>
      <point x="678" y="477" type="curve" smooth="yes"/>
      <point x="670" y="452" type="line"/>
    </contour>
    <component base="rightdoubleflag" xOffset="669"/>
  </outline>
</glyph>
<glyph name="maa.eth" format="2">
  <advance width="846"/>
  <unicode hex="121B"/>
  <note>
uni121B
</note>
  <anchor x="424" y="714" name="top"/>
  <outline>
    <contour>
      <point x="509" y="0" type="line"/>
      <point x="648" y="0" type="line"/>
      <point x="783" y="393" type="line" smooth="yes"/>
      <point x="805" y="457"/>
      <point x="821" y="517"/>
      <point x="821" y="566" type="curve" smooth="yes"/>
      <point x="821" y="667"/>
      <point x="778" y="714"/>
      <point x="669" y="714" type="curve" smooth="yes"/>
      <point x="278" y="714" type="line" smooth="yes"/>
      <point x="115" y="714"/>
      <point x="28" y="615"/>
      <point x="28" y="463" type="curve" smooth="yes"/>
      <point x="28" y="338"/>
      <point x="100" y="271"/>
      <point x="210" y="271" type="curve" smooth="yes"/>
      <point x="294" y="271"/>
      <point x="355" y="299"/>
      <point x="398" y="350" type="curve"/>
      <point x="398" y="604" type="line"/>
      <point x="482" y="604" type="line"/>
      <point x="476" y="580"/>
      <point x="472" y="537"/>
      <point x="472" y="495" type="curve" smooth="yes"/>
      <point x="472" y="392"/>
      <point x="518" y="342"/>
      <point x="612" y="342" type="curve" smooth="yes"/>
      <point x="631" y="342" type="line"/>
    </contour>
    <contour>
      <point x="220" y="381" type="curve" smooth="yes"/>
      <point x="187" y="381"/>
      <point x="161" y="408"/>
      <point x="161" y="470" type="curve" smooth="yes"/>
      <point x="161" y="555"/>
      <point x="197" y="604"/>
      <point x="265" y="604" type="curve" smooth="yes"/>
      <point x="268" y="604" type="line"/>
      <point x="268" y="405" type="line"/>
      <point x="257" y="391"/>
      <point x="242" y="381"/>
    </contour>
    <contour>
      <point x="653" y="445" type="line" smooth="yes"/>
      <point x="611" y="445"/>
      <point x="602" y="465"/>
      <point x="602" y="510" type="curve" smooth="yes"/>
      <point x="602" y="539"/>
      <point x="605" y="566"/>
      <point x="612" y="604" type="curve"/>
      <point x="639" y="604" type="line" smooth="yes"/>
      <point x="675" y="604"/>
      <point x="692" y="588"/>
      <point x="692" y="556" type="curve" smooth="yes"/>
      <point x="692" y="536"/>
      <point x="689" y="508"/>
      <point x="678" y="477" type="curve" smooth="yes"/>
      <point x="667" y="445" type="line"/>
    </contour>
  </outline>
</glyph>
<glyph name="mee.eth" format="2">
  <advance width="938"/>
  <unicode hex="121C"/>
  <note>
uni121C
</note>
  <anchor x="477" y="714" name="top"/>
  <outline>
    <contour>
      <point x="540" y="0" type="line"/>
      <point x="652" y="0" type="line"/>
      <point x="787" y="393" type="line" smooth="yes"/>
      <point x="809" y="457"/>
      <point x="825" y="517"/>
      <point x="825" y="566" type="curve" smooth="yes"/>
      <point x="825" y="667"/>
      <point x="778" y="714"/>
      <point x="669" y="714" type="curve" smooth="yes"/>
      <point x="278" y="714" type="line" smooth="yes"/>
      <point x="115" y="714"/>
      <point x="28" y="615"/>
      <point x="28" y="463" type="curve" smooth="yes"/>
      <point x="28" y="332"/>
      <point x="100" y="261"/>
      <point x="210" y="261" type="curve" smooth="yes"/>
      <point x="294" y="261"/>
      <point x="358" y="293"/>
      <point x="401" y="350" type="curve"/>
      <point x="401" y="604" type="line"/>
      <point x="482" y="604" type="line"/>
      <point x="477" y="582"/>
      <point x="474" y="539"/>
      <point x="474" y="495" type="curve" smooth="yes"/>
      <point x="474" y="391"/>
      <point x="518" y="340"/>
      <point x="611" y="340" type="curve" smooth="yes"/>
      <point x="636" y="340" type="line"/>
      <point x="540" y="76" type="line"/>
    </contour>
    <contour>
      <point x="220" y="371" type="curve" smooth="yes"/>
      <point x="187" y="371"/>
      <point x="161" y="400"/>
      <point x="161" y="470" type="curve" smooth="yes"/>
      <point x="161" y="554"/>
      <point x="200" y="604"/>
      <point x="268" y="604" type="curve" smooth="yes"/>
      <point x="271" y="604" type="line"/>
      <point x="271" y="395" type="line"/>
      <point x="260" y="380"/>
      <point x="242" y="371"/>
    </contour>
    <contour>
      <point x="675" y="100" type="line"/>
      <point x="712" y="208" type="line"/>
      <point x="742" y="208" type="line" smooth="yes"/>
      <point x="780" y="208"/>
      <point x="796" y="188"/>
      <point x="796" y="157" type="curve" smooth="yes"/>
      <point x="796" y="120"/>
      <point x="773" y="100"/>
      <point x="726" y="100" type="curve" smooth="yes"/>
    </contour>
    <contour>
      <point x="575" y="0" type="line"/>
      <point x="725" y="0" type="line" smooth="yes"/>
      <point x="866" y="0"/>
      <point x="927" y="62"/>
      <point x="927" y="159" type="curve" smooth="yes"/>
      <point x="927" y="251"/>
      <point x="874" y="308"/>
      <point x="752" y="308" type="curve" smooth="yes"/>
      <point x="688" y="308" type="line"/>
    </contour>
    <contour>
      <point x="654" y="449" type="line" smooth="yes"/>
      <point x="618" y="449"/>
      <point x="604" y="468"/>
      <point x="604" y="510" type="curve" smooth="yes"/>
      <point x="604" y="540"/>
      <point x="606" y="568"/>
      <point x="612" y="604" type="curve"/>
      <point x="647" y="604" type="line" smooth="yes"/>
      <point x="675" y="604"/>
      <point x="692" y="581"/>
      <point x="692" y="556" type="curve" smooth="yes"/>
      <point x="692" y="536"/>
      <point x="688" y="507"/>
      <point x="680" y="477" type="curve" smooth="yes"/>
      <point x="672" y="449" type="line"/>
    </contour>
  </outline>
</glyph>
<glyph name="me.eth" format="2">
  <advance width="844"/>
  <unicode hex="121D"/>
  <note>
uni121D
</note>
  <anchor x="422" y="714" name="top"/>
  <outline>
    <contour>
      <point x="202" y="261" type="curve" smooth="yes"/>
      <point x="278" y="261"/>
      <point x="355" y="293"/>
      <point x="398" y="350" type="curve"/>
      <point x="398" y="604" type="line"/>
      <point x="474" y="604" type="line"/>
      <point x="474" y="349" type="line"/>
      <point x="635" y="349" type="line" smooth="yes"/>
      <point x="767" y="349"/>
      <point x="816" y="434"/>
      <point x="816" y="540" type="curve" smooth="yes"/>
      <point x="816" y="642"/>
      <point x="758" y="714"/>
      <point x="633" y="714" type="curve" smooth="yes"/>
      <point x="278" y="714" type="line" smooth="yes"/>
      <point x="114" y="714"/>
      <point x="28" y="615"/>
      <point x="28" y="463" type="curve" smooth="yes"/>
      <point x="28" y="332"/>
      <point x="95" y="261"/>
    </contour>
    <contour>
      <point x="145" y="0" type="line"/>
      <point x="281" y="0" type="line"/>
      <point x="398" y="350" type="line"/>
      <point x="272" y="350" type="line"/>
    </contour>
    <contour>
      <point x="220" y="370" type="curve" smooth="yes"/>
      <point x="187" y="370"/>
      <point x="161" y="400"/>
      <point x="161" y="470" type="curve" smooth="yes"/>
      <point x="161" y="557"/>
      <point x="197" y="604"/>
      <point x="265" y="604" type="curve" smooth="yes"/>
      <point x="268" y="604" type="line"/>
      <point x="268" y="392" type="line"/>
      <point x="257" y="377"/>
      <point x="242" y="370"/>
    </contour>
    <contour>
      <point x="604" y="459" type="line"/>
      <point x="604" y="604" type="line"/>
      <point x="625" y="604" type="line" smooth="yes"/>
      <point x="677" y="604"/>
      <point x="684" y="565"/>
      <point x="684" y="535" type="curve" smooth="yes"/>
      <point x="684" y="500"/>
      <point x="675" y="459"/>
      <point x="628" y="459" type="curve" smooth="yes"/>
    </contour>
  </outline>
</glyph>
<glyph name="mo.eth" format="2">
  <advance width="844"/>
  <unicode hex="121E"/>
  <note>
uni121E
</note>
  <anchor x="422" y="714" name="top"/>
  <outline>
    <contour>
      <point x="202" y="261" type="curve" smooth="yes"/>
      <point x="289" y="261"/>
      <point x="355" y="293"/>
      <point x="398" y="350" type="curve"/>
      <point x="398" y="604" type="line"/>
      <point x="473" y="604" type="line"/>
      <point x="473" y="350" type="line"/>
      <point x="659" y="350" type="line" smooth="yes"/>
      <point x="767" y="350"/>
      <point x="816" y="434"/>
      <point x="816" y="540" type="curve" smooth="yes"/>
      <point x="816" y="642"/>
      <point x="758" y="714"/>
      <point x="633" y="714" type="curve" smooth="yes"/>
      <point x="278" y="714" type="line" smooth="yes"/>
      <point x="114" y="714"/>
      <point x="28" y="615"/>
      <point x="28" y="463" type="curve" smooth="yes"/>
      <point x="28" y="332"/>
      <point x="95" y="261"/>
    </contour>
    <contour>
      <point x="268" y="0" type="line"/>
      <point x="398" y="0" type="line"/>
      <point x="398" y="350" type="line"/>
      <point x="268" y="350" type="line"/>
    </contour>
    <contour>
      <point x="220" y="371" type="curve" smooth="yes"/>
      <point x="187" y="371"/>
      <point x="161" y="400"/>
      <point x="161" y="470" type="curve" smooth="yes"/>
      <point x="161" y="557"/>
      <point x="197" y="604"/>
      <point x="265" y="604" type="curve" smooth="yes"/>
      <point x="268" y="604" type="line"/>
      <point x="268" y="396" type="line"/>
      <point x="257" y="381"/>
      <point x="242" y="371"/>
    </contour>
    <contour>
      <point x="604" y="460" type="line"/>
      <point x="604" y="604" type="line"/>
      <point x="625" y="604" type="line" smooth="yes"/>
      <point x="677" y="604"/>
      <point x="684" y="565"/>
      <point x="684" y="535" type="curve" smooth="yes"/>
      <point x="684" y="500"/>
      <point x="675" y="460"/>
      <point x="628" y="460" type="curve" smooth="yes"/>
    </contour>
  </outline>
</glyph>
<glyph name="sza.eth" format="2">
  <advance width="763"/>
  <unicode hex="1220"/>
  <note>
uni1220
</note>
  <anchor x="381" y="714" name="top"/>
  <outline>
    <contour>
      <point x="245" y="-10" type="curve" smooth="yes"/>
      <point x="340" y="-10"/>
      <point x="389" y="38"/>
      <point x="406" y="130" type="curve"/>
      <point x="426" y="102"/>
      <point x="459" y="81"/>
      <point x="517" y="81" type="curve" smooth="yes"/>
      <point x="641" y="81"/>
      <point x="686" y="179"/>
      <point x="686" y="309" type="curve" smooth="yes"/>
      <point x="686" y="714" type="line"/>
      <point x="556" y="714" type="line"/>
      <point x="556" y="311" type="line" smooth="yes"/>
      <point x="556" y="232"/>
      <point x="544" y="196"/>
      <point x="502" y="196" type="curve" smooth="yes"/>
      <point x="459" y="196"/>
      <point x="448" y="236"/>
      <point x="448" y="312" type="curve" smooth="yes"/>
      <point x="448" y="714" type="line"/>
      <point x="318" y="714" type="line"/>
      <point x="318" y="218" type="line" smooth="yes"/>
      <point x="318" y="138"/>
      <point x="299" y="105"/>
      <point x="262" y="105" type="curve" smooth="yes"/>
      <point x="226" y="105"/>
      <point x="207" y="135"/>
      <point x="207" y="217" type="curve" smooth="yes"/>
      <point x="207" y="714" type="line"/>
      <point x="77" y="714" type="line"/>
      <point x="77" y="212" type="line" smooth="yes"/>
      <point x="77" y="70"/>
      <point x="122" y="-10"/>
    </contour>
  </outline>
</glyph>
<glyph name="szi.eth" format="2">
	<advance width="709"/>
	<unicode hex="1222"/>
	<anchor x="399" y="714" name="top"/>
	<note>
		uni1222
	</note>
	<outline>
		<contour>
			<point x="402" y="0" type="line"/>
			<point x="513" y="0" type="line"/>
			<point x="672" y="469" type="line"/>
			<point x="539" y="427" type="line"/>
			<point x="402" y="79" type="line"/>
		</contour>
		<contour>
			<point x="468" y="0" type="line"/>
			<point x="591" y="0" type="line"/>
			<point x="591" y="90" type="line"/>
			<point x="468" y="90" type="line"/>
		</contour>
		<component base="shorttoploops"/>
		<component base="rightdoubleflag" xOffset="510"/>
	</outline>
</glyph>
<glyph name="szaa.eth" format="2">
  <advance width="763"/>
  <unicode hex="1223"/>
  <note>
uni1223
</note>
  <anchor x="381" y="714" name="top"/>
  <outline>
    <contour>
      <point x="384" y="0" type="line"/>
      <point x="513" y="0" type="line"/>
      <point x="672" y="468" type="line"/>
      <point x="533" y="427" type="line"/>
    </contour>
    <component base="shorttoploops"/>
  </outline>
</glyph>
<glyph name="szee.eth" format="2">
  <advance width="813"/>
  <unicode hex="1224"/>
  <note>
uni1224
</note>
  <anchor x="439" y="714" name="top"/>
  <outline>
    <contour>
      <point x="411" y="0" type="line"/>
      <point x="519" y="0" type="line"/>
      <point x="674" y="475" type="line"/>
      <point x="527" y="426" type="line"/>
      <point x="411" y="79" type="line"/>
    </contour>
    <contour>
      <point x="538" y="92" type="line"/>
      <point x="575" y="211" type="line"/>
      <point x="617" y="211" type="line" smooth="yes"/>
      <point x="655" y="211"/>
      <point x="671" y="190"/>
      <point x="671" y="157" type="curve" smooth="yes"/>
      <point x="671" y="118"/>
      <point x="648" y="92"/>
      <point x="601" y="92" type="curve" smooth="yes"/>
    </contour>
    <contour>
      <point x="453" y="0" type="line"/>
      <point x="599" y="0" type="line" smooth="yes"/>
      <point x="741" y="0"/>
      <point x="802" y="62"/>
      <point x="802" y="159" type="curve" smooth="yes"/>
      <point x="802" y="251"/>
      <point x="749" y="303"/>
      <point x="626" y="303" type="curve" smooth="yes"/>
      <point x="552" y="303" type="line"/>
    </contour>
    <component base="shorttoploops"/>
  </outline>
</glyph>
<glyph name="sze.eth" format="2">
  <advance width="821"/>
  <unicode hex="1225"/>
  <note>
uni1225
</note>
  <anchor x="382" y="714" name="top"/>
  <outline>
    <contour>
      <point x="20" y="0" type="line"/>
      <point x="149" y="0" type="line"/>
      <point x="262" y="332" type="line"/>
      <point x="169" y="427" type="line"/>
    </contour>
    <component base="shorttoploops" xOffset="58"/>
  </outline>
</glyph>
<glyph name="ru.eth" format="2">
  <advance width="520"/>
  <unicode hex="1229"/>
  <note>
uni1229
</note>
  <anchor x="273" y="714" name="top"/>
  <outline>
    <contour>
      <point x="215" y="0" type="line"/>
      <point x="345" y="0" type="line"/>
      <point x="345" y="182" type="line"/>
      <point x="420" y="182" type="line"/>
      <point x="388" y="272" type="line"/>
      <point x="237" y="272" type="line" smooth="yes"/>
      <point x="189" y="272"/>
      <point x="175" y="299"/>
      <point x="175" y="334" type="curve" smooth="yes"/>
      <point x="175" y="386"/>
      <point x="206" y="402"/>
      <point x="250" y="437" type="curve" smooth="yes"/>
      <point x="345" y="512"/>
      <point x="377" y="582"/>
      <point x="377" y="714" type="curve"/>
      <point x="247" y="714" type="line"/>
      <point x="247" y="610"/>
      <point x="222" y="579"/>
      <point x="147" y="523" type="curve" smooth="yes"/>
      <point x="76" y="470"/>
      <point x="31" y="435"/>
      <point x="31" y="337" type="curve" smooth="yes"/>
      <point x="31" y="239"/>
      <point x="78" y="178"/>
      <point x="196" y="178" type="curve" smooth="yes"/>
      <point x="215" y="178" type="line"/>
    </contour>
    <component base="rightsingleflag" xOffset="301" yOffset="-139"/>
  </outline>
</glyph>
<glyph name="ri.eth" format="2">
  <advance width="511"/>
  <unicode hex="122A"/>
  <note>
uni122A
</note>
  <anchor x="255" y="714" name="top"/>
  <outline>
    <contour>
      <point x="254" y="0" type="line"/>
      <point x="410" y="0"/>
      <point x="480" y="86"/>
      <point x="480" y="243" type="curve" smooth="yes"/>
      <point x="480" y="279" type="line"/>
      <point x="350" y="279" type="line"/>
      <point x="350" y="239" type="line" smooth="yes"/>
      <point x="350" y="131"/>
      <point x="320" y="90"/>
      <point x="254" y="90" type="curve"/>
    </contour>
    <component base="nose"/>
  </outline>
</glyph>
<glyph name="raa.eth" format="2">
  <advance width="606"/>
  <unicode hex="122B"/>
  <note>
uni122B
</note>
  <anchor x="316" y="714" name="top"/>
  <outline>
    <contour>
      <point x="252" y="0" type="line"/>
      <point x="376" y="0" type="line"/>
      <point x="377" y="152"/>
      <point x="403" y="238"/>
      <point x="487" y="243" type="curve"/>
      <point x="502" y="199"/>
      <point x="523" y="172"/>
      <point x="577" y="172" type="curve" smooth="yes"/>
      <point x="601" y="172" type="line"/>
      <point x="564" y="333" type="line"/>
      <point x="494" y="333" type="line" smooth="yes"/>
      <point x="326" y="333"/>
      <point x="268" y="219"/>
      <point x="258" y="90" type="curve"/>
      <point x="252" y="90" type="line"/>
    </contour>
    <component base="nose"/>
  </outline>
</glyph>
<glyph name="ree.eth" format="2">
	<advance width="601"/>
	<unicode hex="122C"/>
	<anchor x="309" y="714" name="top"/>
	<note>
		uni122C
	</note>
	<outline>
		<contour>
			<point x="247" y="0" type="line"/>
			<point x="436" y="0" type="line"/>
			<point x="436" y="60" type="line"/>
			<point x="344" y="90" type="line"/>
			<point x="247" y="90" type="line"/>
		</contour>
		<component base="nose"/>
		<component base="ballbig" xOffset="255" yOffset="-165"/>
	</outline>
</glyph>
<glyph name="re.eth" format="2">
  <advance width="470"/>
  <unicode hex="122D"/>
  <note>
uni122D
</note>
  <anchor x="257" y="714" name="top"/>
  <outline>
    <contour>
      <point x="438" y="-66" type="curve" smooth="yes"/>
      <point x="465" y="-66" type="line"/>
      <point x="441" y="46" type="line"/>
      <point x="465" y="156" type="line"/>
      <point x="441" y="156" type="line" smooth="yes"/>
      <point x="390" y="156"/>
      <point x="365" y="129"/>
      <point x="354" y="90" type="curve"/>
      <point x="289" y="90" type="line" smooth="yes"/>
      <point x="220" y="90"/>
      <point x="184" y="132"/>
      <point x="184" y="248" type="curve" smooth="yes"/>
      <point x="184" y="315" type="line" smooth="yes"/>
      <point x="184" y="543"/>
      <point x="224" y="624"/>
      <point x="318" y="624" type="curve" smooth="yes"/>
      <point x="347" y="624" type="line"/>
      <point x="364" y="570"/>
      <point x="393" y="553"/>
      <point x="439" y="553" type="curve" smooth="yes"/>
      <point x="461" y="553" type="line"/>
      <point x="424" y="714" type="line"/>
      <point x="321" y="714" type="line" smooth="yes"/>
      <point x="146" y="714"/>
      <point x="50" y="613"/>
      <point x="50" y="308" type="curve" smooth="yes"/>
      <point x="50" y="247" type="line" smooth="yes"/>
      <point x="50" y="66"/>
      <point x="118" y="0"/>
      <point x="263" y="0" type="curve" smooth="yes"/>
      <point x="354" y="0" type="line"/>
      <point x="363" y="-34"/>
      <point x="390" y="-66"/>
    </contour>
  </outline>
</glyph>
<glyph name="ro.eth" format="2">
  <advance width="585"/>
  <unicode hex="122E"/>
  <note>
uni122E
</note>
  <anchor x="310" y="714" name="top"/>
  <outline>
    <contour>
      <point x="438" y="-66" type="curve" smooth="yes"/>
      <point x="465" y="-66" type="line"/>
      <point x="441" y="46" type="line"/>
      <point x="465" y="156" type="line"/>
      <point x="441" y="156" type="line" smooth="yes"/>
      <point x="390" y="156"/>
      <point x="365" y="129"/>
      <point x="354" y="90" type="curve"/>
      <point x="289" y="90" type="line" smooth="yes"/>
      <point x="217" y="90"/>
      <point x="180" y="132"/>
      <point x="180" y="248" type="curve" smooth="yes"/>
      <point x="180" y="315" type="line" smooth="yes"/>
      <point x="180" y="543"/>
      <point x="221" y="624"/>
      <point x="318" y="624" type="curve"/>
      <point x="417" y="714" type="line"/>
      <point x="321" y="714" type="line" smooth="yes"/>
      <point x="146" y="714"/>
      <point x="50" y="613"/>
      <point x="50" y="308" type="curve" smooth="yes"/>
      <point x="50" y="247" type="line" smooth="yes"/>
      <point x="50" y="66"/>
      <point x="118" y="0"/>
      <point x="263" y="0" type="curve" smooth="yes"/>
      <point x="354" y="0" type="line"/>
      <point x="363" y="-34"/>
      <point x="390" y="-66"/>
    </contour>
    <component base="ballbig" xOffset="239" yOffset="266"/>
  </outline>
</glyph>
<glyph name="sa.eth" format="2">
	<advance width="562"/>
	<unicode hex="1230"/>
	<anchor x="281" y="760" name="top"/>
	<note>
		uni1230
	</note>
	<outline>
		<contour>
			<point x="217" y="564" type="line"/>
			<point x="347" y="564" type="line"/>
			<point x="347" y="760" type="line"/>
			<point x="217" y="760" type="line"/>
		</contour>
		<component base="shortnarch"/>
	</outline>
</glyph>
<glyph name="qe.eth" format="2">
  <advance width="570"/>
  <unicode hex="1245"/>
  <note>
uni1245
</note>
  <anchor x="285" y="844" name="top"/>
  <outline>
    <contour>
      <point x="220" y="685" type="line"/>
      <point x="350" y="685" type="line"/>
      <point x="350" y="773" type="line"/>
      <point x="220" y="773" type="line"/>
    </contour>
    <component base="qa.eth"/>
    <component base="leftsingleflag" yScale="-1" xOffset="60" yOffset="1094"/>
  </outline>
</glyph>
<glyph name="qwi.eth" format="2">
  <advance width="857"/>
  <unicode hex="124A"/>
  <note>
uni124A
</note>
  <anchor x="436" y="714" name="top"/>
  <outline>
    <contour>
      <point x="832" y="178" type="curve" smooth="yes"/>
      <point x="852" y="178" type="line"/>
      <point x="815" y="339" type="line"/>
      <point x="648" y="339" type="line"/>
      <point x="648" y="249" type="line"/>
      <point x="738" y="249" type="line"/>
      <point x="755" y="195"/>
      <point x="783" y="178"/>
    </contour>
    <contour>
      <point x="505" y="342" type="line"/>
      <point x="634" y="342" type="line"/>
      <point x="634" y="432" type="line"/>
      <point x="505" y="432" type="line"/>
    </contour>
    <contour>
      <point x="618" y="249" type="line"/>
      <point x="729" y="249" type="line"/>
      <point x="729" y="521" type="line"/>
      <point x="618" y="521" type="line"/>
    </contour>
    <component base="qa.eth"/>
  </outline>
</glyph>
<glyph name="qwaa.eth" format="2">
	<advance width="570"/>
	<unicode hex="124B"/>
	<anchor x="285" y="713" name="top"/>
	<note>
		uni124B
	</note>
	<outline>
		<contour>
			<point x="187" y="120" type="line"/>
			<point x="534" y="120" type="line"/>
			<point x="534" y="210" type="line"/>
			<point x="187" y="210" type="line"/>
		</contour>
		<contour>
			<point x="433" y="0" type="line"/>
			<point x="534" y="0" type="line"/>
			<point x="534" y="210" type="line"/>
			<point x="433" y="210" type="line"/>
		</contour>
		<component base="midring" yOffset="54"/>
		<component base="leftsingleflag" xOffset="35" yOffset="-201"/>
		<component base="stem1" yScale="0.785" xOffset="157" yOffset="153"/>
	</outline>
</glyph>
<glyph name="qwe.eth" format="2">
	<advance width="830"/>
	<unicode hex="124D"/>
	<anchor x="422" y="714" name="top"/>
	<note>
		uni124D
	</note>
	<outline>
		<contour>
			<point x="602" y="340" type="line"/>
			<point x="711" y="340" type="line"/>
			<point x="711" y="600" type="line"/>
			<point x="602" y="600" type="line"/>
		</contour>
		<contour>
			<point x="480" y="340" type="line"/>
			<point x="659" y="340" type="line"/>
			<point x="659" y="430" type="line"/>
			<point x="480" y="430" type="line"/>
		</contour>
		<component base="rightsingleflag" xOffset="611" yOffset="19"/>
		<component base="qa.eth"/>
	</outline>
</glyph>
<glyph name="qha.eth" format="2">
  <advance width="570"/>
  <unicode hex="1250"/>
  <note>
uni1250
</note>
  <anchor x="285" y="839" name="top"/>
  <outline>
    <contour>
      <point x="220" y="685" type="line"/>
      <point x="350" y="685" type="line"/>
      <point x="350" y="766" type="line"/>
      <point x="220" y="766" type="line"/>
    </contour>
    <component base="qa.eth"/>
    <component base="bonemiddle" xOffset="27"/>
  </outline>
</glyph>
<glyph name="qhaa.eth" format="2">
	<advance width="575"/>
	<unicode hex="1253"/>
	<anchor x="287" y="839" name="top"/>
	<note>
		uni1253
	</note>
	<outline>
		<contour>
			<point x="226" y="663" type="line"/>
			<point x="356" y="663" type="line"/>
			<point x="356" y="771" type="line"/>
			<point x="226" y="771" type="line"/>
		</contour>
		<component base="qaa.eth" xOffset="15"/>
		<component base="bonemiddle" xOffset="31"/>
	</outline>
</glyph>
<glyph name="qhee.eth" format="2">
  <advance width="570"/>
  <unicode hex="1254"/>
  <note>
uni1254
</note>
  <anchor x="285" y="870" name="top"/>
  <outline>
    <contour>
      <point x="220" y="685" type="line"/>
      <point x="350" y="685" type="line"/>
      <point x="350" y="789" type="line"/>
      <point x="220" y="789" type="line"/>
    </contour>
    <component base="qee.eth"/>
    <component base="bonemiddle" xOffset="23" yOffset="31"/>
  </outline>
</glyph>
<glyph name="qhe.eth" format="2">
  <advance width="648"/>
  <unicode hex="1255"/>
  <note>
uni1255
</note>
  <anchor x="316" y="839" name="top"/>
  <outline>
    <contour>
      <point x="306" y="0" type="line"/>
      <point x="436" y="0" type="line"/>
      <point x="436" y="566" type="line"/>
      <point x="406" y="566" type="line" smooth="yes"/>
      <point x="329" y="566"/>
      <point x="297" y="592"/>
      <point x="297" y="678" type="curve" smooth="yes"/>
      <point x="297" y="714" type="line"/>
      <point x="167" y="714" type="line"/>
      <point x="167" y="651" type="line" smooth="yes"/>
      <point x="167" y="556"/>
      <point x="215" y="486"/>
      <point x="306" y="471" type="curve"/>
    </contour>
    <component base="midringshort" xOffset="78" yOffset="-112"/>
    <component base="bone"/>
  </outline>
</glyph>
<glyph name="qhwa.eth" format="2">
  <advance width="680"/>
  <unicode hex="1258"/>
  <note>
uni1258
</note>
  <anchor x="343" y="868" name="top"/>
  <outline>
    <contour>
      <point x="218" y="685" type="line"/>
      <point x="348" y="685" type="line"/>
      <point x="348" y="789" type="line"/>
      <point x="218" y="789" type="line"/>
    </contour>
    <component base="stem1" xOffset="155"/>
    <component base="rightbulbsmall" xOffset="333" yOffset="-177"/>
    <component base="midringshort" yOffset="67"/>
    <component base="bonemiddle" xOffset="22" yOffset="29"/>
  </outline>
</glyph>
<glyph name="qhwi.eth" format="2">
  <advance width="857"/>
  <unicode hex="125A"/>
  <note>
uni125A
</note>
  <anchor x="436" y="839" name="top"/>
  <outline>
    <contour>
      <point x="832" y="178" type="curve" smooth="yes"/>
      <point x="852" y="178" type="line"/>
      <point x="815" y="339" type="line"/>
      <point x="648" y="339" type="line"/>
      <point x="648" y="249" type="line"/>
      <point x="738" y="249" type="line"/>
      <point x="755" y="195"/>
      <point x="783" y="178"/>
    </contour>
    <contour>
      <point x="505" y="342" type="line"/>
      <point x="634" y="342" type="line"/>
      <point x="634" y="432" type="line"/>
      <point x="505" y="432" type="line"/>
    </contour>
    <contour>
      <point x="618" y="249" type="line"/>
      <point x="729" y="249" type="line"/>
      <point x="729" y="521" type="line"/>
      <point x="618" y="521" type="line"/>
    </contour>
    <component base="qha.eth"/>
  </outline>
</glyph>
<glyph name="qhwaa.eth" format="2">
	<advance width="570"/>
	<unicode hex="125B"/>
	<anchor x="285" y="839" name="top"/>
	<note>
		uni125B
	</note>
	<outline>
		<contour>
			<point x="187" y="120" type="line"/>
			<point x="524" y="120" type="line"/>
			<point x="524" y="210" type="line"/>
			<point x="187" y="210" type="line"/>
		</contour>
		<contour>
			<point x="423" y="0" type="line"/>
			<point x="524" y="0" type="line"/>
			<point x="524" y="210" type="line"/>
			<point x="423" y="210" type="line"/>
		</contour>
		<component base="midringshort" yOffset="49"/>
		<component base="bonemiddle" xOffset="26"/>
		<component base="stem1" yScale="0.882" xOffset="160" yOffset="132"/>
		<component base="leftsingleflag" xOffset="35" yOffset="-201"/>
	</outline>
</glyph>
<glyph name="qhwe.eth" format="2">
  <advance width="840"/>
  <unicode hex="125D"/>
  <note>
uni125D
</note>
  <anchor x="427" y="839" name="top"/>
  <outline>
    <contour>
      <point x="602" y="340" type="line"/>
      <point x="711" y="340" type="line"/>
      <point x="711" y="600" type="line"/>
      <point x="602" y="600" type="line"/>
    </contour>
    <contour>
      <point x="480" y="340" type="line"/>
      <point x="659" y="340" type="line"/>
      <point x="659" y="430" type="line"/>
      <point x="480" y="430" type="line"/>
    </contour>
    <component base="qha.eth"/>
    <component base="rightsingleflag" xOffset="621" yOffset="19"/>
  </outline>
</glyph>
<glyph name="baa.eth" format="2">
  <advance width="555"/>
  <unicode hex="1263"/>
  <note>
uni1263
</note>
  <anchor x="274" y="724" name="top"/>
  <outline>
    <contour>
      <point x="348" y="0" type="line"/>
      <point x="478" y="0" type="line"/>
      <point x="478" y="483" type="line" smooth="yes"/>
      <point x="478" y="636"/>
      <point x="419" y="724"/>
      <point x="276" y="724" type="curve" smooth="yes"/>
      <point x="132" y="724"/>
      <point x="70" y="626"/>
      <point x="70" y="485" type="curve" smooth="yes"/>
      <point x="70" y="240" type="line"/>
      <point x="200" y="240" type="line"/>
      <point x="200" y="477" type="line" smooth="yes"/>
      <point x="200" y="556"/>
      <point x="216" y="609"/>
      <point x="277" y="609" type="curve" smooth="yes"/>
      <point x="332" y="609"/>
      <point x="348" y="563"/>
      <point x="348" y="478" type="curve" smooth="yes"/>
    </contour>
  </outline>
</glyph>
<glyph name="te.eth" format="2">
  <advance width="509"/>
  <unicode hex="1275"/>
  <note>
uni1275
</note>
  <anchor x="254" y="805" name="top"/>
  <outline>
    <contour>
      <point x="193" y="0" type="line"/>
      <point x="324" y="0" type="line"/>
      <point x="324" y="621" type="line"/>
      <point x="290" y="621" type="line" smooth="yes"/>
      <point x="231" y="621"/>
      <point x="210" y="644"/>
      <point x="210" y="725" type="curve" smooth="yes"/>
      <point x="210" y="805" type="line"/>
      <point x="83" y="805" type="line"/>
      <point x="83" y="702" type="line" smooth="yes"/>
      <point x="83" y="591"/>
      <point x="123" y="536"/>
      <point x="193" y="523" type="curve"/>
    </contour>
    <component base="footmiddle" yOffset="364"/>
  </outline>
</glyph>
<glyph name="caa.eth" format="2">
  <advance width="534"/>
  <unicode hex="127B"/>
  <note>
uni127B
</note>
  <anchor x="267" y="839" name="top"/>
  <outline>
    <contour>
      <point x="211" y="639" type="line"/>
      <point x="341" y="639" type="line"/>
      <point x="341" y="750" type="line"/>
      <point x="211" y="750" type="line"/>
    </contour>
    <component base="jstem"/>
    <component base="footmiddle" xOffset="22" yOffset="462"/>
    <component base="bonemiddle" xOffset="18"/>
  </outline>
</glyph>
<glyph name="cee.eth" format="2">
  <advance width="548"/>
  <unicode hex="127C"/>
  <note>
uni127C
</note>
  <anchor x="274" y="839" name="top"/>
  <outline>
    <contour>
      <point x="194" y="652" type="line"/>
      <point x="324" y="652" type="line"/>
      <point x="324" y="746" type="line"/>
      <point x="194" y="746" type="line"/>
    </contour>
    <component base="stem1" xOffset="131"/>
    <component base="baselinebowl" xOffset="174"/>
    <component base="bonemiddle"/>
    <component base="footmiddle" xOffset="4" yOffset="450"/>
  </outline>
</glyph>
<glyph name="ce.eth" format="2">
  <advance width="597"/>
  <unicode hex="127D"/>
  <note>
uni127D
</note>
  <anchor x="298" y="839" name="top"/>
  <outline>
    <contour>
      <point x="280" y="0" type="line"/>
      <point x="411" y="0" type="line"/>
      <point x="411" y="579" type="line"/>
      <point x="377" y="579" type="line" smooth="yes"/>
      <point x="318" y="579"/>
      <point x="297" y="602"/>
      <point x="297" y="683" type="curve" smooth="yes"/>
      <point x="297" y="773" type="line"/>
      <point x="170" y="773" type="line"/>
      <point x="170" y="660" type="line" smooth="yes"/>
      <point x="170" y="549"/>
      <point x="210" y="494"/>
      <point x="280" y="481" type="curve"/>
    </contour>
    <contour>
      <point x="39" y="683" type="line"/>
      <point x="354" y="683" type="line"/>
      <point x="365" y="649"/>
      <point x="387" y="617"/>
      <point x="440" y="617" type="curve" smooth="yes"/>
      <point x="465" y="617" type="line"/>
      <point x="441" y="729" type="line"/>
      <point x="465" y="839" type="line"/>
      <point x="441" y="839" type="line" smooth="yes"/>
      <point x="387" y="839"/>
      <point x="363" y="807"/>
      <point x="354" y="773" type="curve"/>
      <point x="116" y="773" type="line"/>
      <point x="107" y="807"/>
      <point x="83" y="839"/>
      <point x="29" y="839" type="curve" smooth="yes"/>
      <point x="5" y="839" type="line"/>
    </contour>
    <component base="footmiddle" xOffset="88" yOffset="333"/>
  </outline>
</glyph>
<glyph name="co.eth" format="2">
  <advance width="581"/>
  <unicode hex="127E"/>
  <note>
uni127E
</note>
  <anchor x="290" y="864" name="top"/>
  <outline>
    <contour>
      <point x="186" y="704" type="line"/>
      <point x="423" y="704" type="line"/>
      <point x="423" y="793" type="line"/>
      <point x="186" y="793" type="line"/>
    </contour>
    <component base="to.eth" xOffset="36"/>
    <component base="leftdoubleflag" xOffset="10" yOffset="703"/>
    <component base="rightsingleflag" yScale="-1" xOffset="352" yOffset="1114"/>
  </outline>
</glyph>
<glyph name="xaa.eth" format="2">
  <advance width="490"/>
  <unicode hex="1283"/>
  <note>
uni1283
</note>
  <anchor x="214" y="714" name="top"/>
  <outline>
    <contour>
      <point x="5" y="-71" type="line"/>
      <point x="32" y="-71" type="line" smooth="yes"/>
      <point x="75" y="-71"/>
      <point x="105" y="-45"/>
      <point x="117" y="0" type="curve"/>
      <point x="194" y="0" type="line" smooth="yes"/>
      <point x="358" y="0"/>
      <point x="424" y="84"/>
      <point x="424" y="249" type="curve" smooth="yes"/>
      <point x="424" y="341" type="line"/>
      <point x="293" y="341" type="line"/>
      <point x="293" y="247" type="line" smooth="yes"/>
      <point x="293" y="139"/>
      <point x="265" y="90"/>
      <point x="178" y="90" type="curve" smooth="yes"/>
      <point x="41" y="90" type="line"/>
    </contour>
    <contour>
      <point x="293" y="280" type="line"/>
      <point x="424" y="280" type="line"/>
      <point x="424" y="528" type="line"/>
      <point x="391" y="528" type="line" smooth="yes"/>
      <point x="334" y="528"/>
      <point x="314" y="552"/>
      <point x="314" y="631" type="curve" smooth="yes"/>
      <point x="314" y="714" type="line"/>
      <point x="184" y="714" type="line"/>
      <point x="184" y="604" type="line" smooth="yes"/>
      <point x="184" y="495"/>
      <point x="223" y="439"/>
      <point x="293" y="424" type="curve"/>
    </contour>
    <component base="leftsingleflag" xOffset="9" yOffset="227"/>
  </outline>
</glyph>
<glyph name="xe.eth" format="2">
  <advance width="500"/>
  <unicode hex="1285"/>
  <note>
uni1285
</note>
  <anchor x="229" y="714" name="top"/>
  <outline>
    <contour>
      <point x="24" y="366" type="curve"/>
      <point x="144" y="366" type="line"/>
      <point x="144" y="466"/>
      <point x="175" y="516"/>
      <point x="213" y="535" type="curve"/>
      <point x="192" y="640" type="line"/>
      <point x="83" y="613"/>
      <point x="24" y="531"/>
    </contour>
    <component base="na.eth" xOffset="158"/>
  </outline>
</glyph>
<glyph name="xwi.eth" format="2">
  <advance width="692"/>
  <unicode hex="128A"/>
  <note>
uni128A
</note>
  <anchor x="346" y="714" name="top"/>
  <outline>
    <contour>
      <point x="667" y="115" type="curve" smooth="yes"/>
      <point x="687" y="115" type="line"/>
      <point x="650" y="276" type="line"/>
      <point x="483" y="276" type="line"/>
      <point x="483" y="186" type="line"/>
      <point x="573" y="186" type="line"/>
      <point x="590" y="132"/>
      <point x="618" y="115"/>
    </contour>
    <contour>
      <point x="340" y="279" type="line"/>
      <point x="469" y="279" type="line"/>
      <point x="469" y="369" type="line"/>
      <point x="340" y="369" type="line"/>
    </contour>
    <contour>
      <point x="453" y="186" type="line"/>
      <point x="564" y="186" type="line"/>
      <point x="564" y="458" type="line"/>
      <point x="453" y="458" type="line"/>
    </contour>
    <component base="xa.eth"/>
  </outline>
</glyph>
<glyph name="xwaa.eth" format="2">
  <advance width="585"/>
  <unicode hex="128B"/>
  <note>
uni128B
</note>
  <anchor x="286" y="714" name="top"/>
  <outline>
    <contour>
      <point x="282" y="150" type="line"/>
      <point x="413" y="150" type="line"/>
      <point x="413" y="530" type="line"/>
      <point x="379" y="530" type="line" smooth="yes"/>
      <point x="320" y="530"/>
      <point x="299" y="553"/>
      <point x="299" y="634" type="curve" smooth="yes"/>
      <point x="299" y="714" type="line"/>
      <point x="172" y="714" type="line"/>
      <point x="172" y="611" type="line" smooth="yes"/>
      <point x="172" y="500"/>
      <point x="212" y="445"/>
      <point x="282" y="432" type="curve"/>
    </contour>
    <contour>
      <point x="228" y="120" type="line"/>
      <point x="567" y="120" type="line"/>
      <point x="567" y="210" type="line"/>
      <point x="228" y="210" type="line"/>
    </contour>
    <contour>
      <point x="462" y="0" type="line"/>
      <point x="567" y="0" type="line"/>
      <point x="567" y="210" type="line"/>
      <point x="462" y="210" type="line"/>
    </contour>
    <component base="leftsingleflag" xOffset="39" yOffset="-201"/>
    <component base="leftsingleflag" yOffset="227"/>
  </outline>
</glyph>
<glyph name="xwee.eth" format="2">
  <advance width="634"/>
  <unicode hex="128C"/>
  <note>
uni128C
</note>
  <anchor x="314" y="714" name="top"/>
  <outline>
    <contour>
      <point x="228" y="0" type="line"/>
      <point x="364" y="0" type="line"/>
      <point x="364" y="90" type="line"/>
      <point x="228" y="90" type="line"/>
    </contour>
    <component base="xee.eth"/>
    <component base="leftsingleflag" xOffset="85" yOffset="-321"/>
  </outline>
</glyph>
<glyph name="xwe.eth" format="2">
  <advance width="686"/>
  <unicode hex="128D"/>
  <note>
uni128D
</note>
  <anchor x="343" y="714" name="top"/>
  <outline>
    <contour>
      <point x="458" y="246" type="line"/>
      <point x="567" y="246" type="line"/>
      <point x="567" y="444" type="line"/>
      <point x="458" y="444" type="line"/>
    </contour>
    <contour>
      <point x="336" y="246" type="line"/>
      <point x="515" y="246" type="line"/>
      <point x="515" y="336" type="line"/>
      <point x="336" y="336" type="line"/>
    </contour>
    <component base="xa.eth"/>
    <component base="rightsingleflag" xOffset="467" yOffset="-75"/>
  </outline>
</glyph>
<glyph name="na.eth" format="2">
  <advance width="342"/>
  <unicode hex="1290"/>
  <note>
uni1290
</note>
  <anchor x="155" y="714" name="top"/>
  <outline>
    <contour>
      <point x="145" y="0" type="line"/>
      <point x="276" y="0" type="line"/>
      <point x="276" y="530" type="line"/>
      <point x="242" y="530" type="line" smooth="yes"/>
      <point x="183" y="530"/>
      <point x="162" y="553"/>
      <point x="162" y="634" type="curve" smooth="yes"/>
      <point x="162" y="714" type="line"/>
      <point x="35" y="714" type="line"/>
      <point x="35" y="611" type="line" smooth="yes"/>
      <point x="35" y="500"/>
      <point x="75" y="445"/>
      <point x="145" y="432" type="curve"/>
    </contour>
  </outline>
</glyph>
<glyph name="naa.eth" format="2">
  <advance width="476"/>
  <unicode hex="1293"/>
  <note>
uni1293
</note>
  <anchor x="265" y="714" name="top"/>
  <outline>
    <contour>
      <point x="60" y="247" type="line"/>
      <point x="190" y="293" type="line"/>
      <point x="190" y="315" type="line" smooth="yes"/>
      <point x="190" y="543"/>
      <point x="248" y="623"/>
      <point x="342" y="623" type="curve" smooth="yes"/>
      <point x="357" y="623" type="line"/>
      <point x="374" y="569"/>
      <point x="406" y="553"/>
      <point x="444" y="553" type="curve" smooth="yes"/>
      <point x="471" y="553" type="line"/>
      <point x="434" y="714" type="line"/>
      <point x="343" y="714" type="line" smooth="yes"/>
      <point x="156" y="714"/>
      <point x="60" y="613"/>
      <point x="60" y="308" type="curve" smooth="yes"/>
    </contour>
    <contour>
      <point x="210" y="0" type="line"/>
      <point x="340" y="0" type="line"/>
      <point x="340" y="362" type="line"/>
      <point x="115" y="362" type="line"/>
      <point x="60" y="247" type="line"/>
      <point x="210" y="247" type="line"/>
    </contour>
  </outline>
</glyph>
<glyph name="nee.eth" format="2">
  <advance width="460"/>
  <unicode hex="1294"/>
  <note>
uni1294
</note>
  <anchor x="252" y="714" name="top"/>
  <outline>
    <contour>
      <point x="62" y="0" type="line"/>
      <point x="176" y="0" type="line"/>
      <point x="366" y="530" type="line"/>
      <point x="265" y="530" type="line" smooth="yes"/>
      <point x="206" y="530"/>
      <point x="185" y="553"/>
      <point x="185" y="634" type="curve" smooth="yes"/>
      <point x="185" y="714" type="line"/>
      <point x="55" y="714" type="line"/>
      <point x="55" y="611" type="line" smooth="yes"/>
      <point x="55" y="500"/>
      <point x="101" y="438"/>
      <point x="196" y="426" type="curve"/>
      <point x="62" y="76" type="line"/>
    </contour>
    <contour>
      <point x="180" y="92" type="line"/>
      <point x="230" y="211" type="line"/>
      <point x="256" y="211" type="line" smooth="yes"/>
      <point x="297" y="211"/>
      <point x="318" y="190"/>
      <point x="318" y="153" type="curve" smooth="yes"/>
      <point x="318" y="118"/>
      <point x="295" y="92"/>
      <point x="255" y="92" type="curve" smooth="yes"/>
    </contour>
    <contour>
      <point x="80" y="0" type="line"/>
      <point x="246" y="0" type="line" smooth="yes"/>
      <point x="388" y="0"/>
      <point x="449" y="62"/>
      <point x="449" y="159" type="curve" smooth="yes"/>
      <point x="449" y="251"/>
      <point x="396" y="303"/>
      <point x="273" y="303" type="curve" smooth="yes"/>
      <point x="207" y="303" type="line"/>
    </contour>
  </outline>
</glyph>
<glyph name="ne.eth" format="2">
  <advance width="496"/>
  <unicode hex="1295"/>
  <note>
uni1295
</note>
  <anchor x="237" y="714" name="top"/>
  <outline>
    <contour>
      <point x="153" y="0" type="line"/>
      <point x="287" y="0" type="line"/>
      <point x="469" y="491" type="line"/>
      <point x="326" y="491" type="line"/>
      <point x="326" y="509" type="line" smooth="yes"/>
      <point x="326" y="650"/>
      <point x="274" y="714"/>
      <point x="144" y="714" type="curve" smooth="yes"/>
      <point x="42" y="714" type="line"/>
      <point x="5" y="553" type="line"/>
      <point x="26" y="553" type="line" smooth="yes"/>
      <point x="71" y="553"/>
      <point x="103" y="569"/>
      <point x="119" y="624" type="curve"/>
      <point x="124" y="624" type="line" smooth="yes"/>
      <point x="163" y="624"/>
      <point x="196" y="591"/>
      <point x="196" y="507" type="curve" smooth="yes"/>
      <point x="196" y="383" type="line"/>
      <point x="292" y="383" type="line"/>
    </contour>
  </outline>
</glyph>
<glyph name="no.eth" format="2">
  <advance width="602"/>
  <unicode hex="1296"/>
  <note>
uni1296
</note>
  <anchor x="324" y="714" name="top"/>
  <outline>
    <contour>
      <point x="253" y="0" type="line"/>
      <point x="383" y="0" type="line"/>
      <point x="383" y="357" type="line"/>
      <point x="190" y="357" type="line"/>
      <point x="194" y="501"/>
      <point x="222" y="579"/>
      <point x="279" y="611" type="curve"/>
      <point x="429" y="714" type="line"/>
      <point x="383" y="714" type="line" smooth="yes"/>
      <point x="156" y="714"/>
      <point x="60" y="613"/>
      <point x="60" y="308" type="curve" smooth="yes"/>
      <point x="60" y="247" type="line"/>
      <point x="253" y="247" type="line"/>
    </contour>
    <component base="ballbig" xOffset="256" yOffset="266"/>
  </outline>
</glyph>
<glyph name="nya.eth" format="2">
  <advance width="490"/>
  <unicode hex="1298"/>
  <note>
uni1298
</note>
  <anchor x="235" y="780" name="top"/>
  <outline>
    <contour>
      <point x="282" y="0" type="line"/>
      <point x="413" y="0" type="line"/>
      <point x="413" y="470" type="line"/>
      <point x="379" y="470" type="line" smooth="yes"/>
      <point x="320" y="470"/>
      <point x="299" y="493"/>
      <point x="299" y="574" type="curve" smooth="yes"/>
      <point x="299" y="654" type="line"/>
      <point x="172" y="654" type="line"/>
      <point x="172" y="551" type="line" smooth="yes"/>
      <point x="172" y="440"/>
      <point x="212" y="385"/>
      <point x="282" y="372" type="curve"/>
    </contour>
    <component base="bone" yOffset="-59"/>
  </outline>
</glyph>
<glyph name="nyaa.eth" format="2">
  <advance width="516"/>
  <unicode hex="129B"/>
  <note>
uni129B
</note>
  <anchor x="258" y="799" name="top"/>
  <outline>
    <contour>
      <point x="45" y="187" type="line"/>
      <point x="175" y="232" type="line"/>
      <point x="175" y="279" type="line" smooth="yes"/>
      <point x="175" y="417"/>
      <point x="217" y="485"/>
      <point x="302" y="485" type="curve" smooth="yes"/>
      <point x="315" y="485" type="line"/>
      <point x="328" y="440"/>
      <point x="355" y="414"/>
      <point x="404" y="414" type="curve" smooth="yes"/>
      <point x="429" y="414" type="line"/>
      <point x="392" y="575" type="line"/>
      <point x="291" y="575" type="line" smooth="yes"/>
      <point x="151" y="575"/>
      <point x="45" y="484"/>
      <point x="45" y="269" type="curve" smooth="yes"/>
    </contour>
    <contour>
      <point x="195" y="0" type="line"/>
      <point x="325" y="0" type="line"/>
      <point x="325" y="297" type="line"/>
      <point x="100" y="297" type="line"/>
      <point x="45" y="187" type="line"/>
      <point x="195" y="187" type="line"/>
    </contour>
    <contour>
      <point x="198" y="541" type="line"/>
      <point x="323" y="541" type="line"/>
      <point x="323" y="687" type="line"/>
      <point x="198" y="687" type="line"/>
    </contour>
    <component base="bonemiddle" yOffset="-40"/>
  </outline>
</glyph>
<glyph name="nyee.eth" format="2">
  <advance width="594"/>
  <unicode hex="129C"/>
  <note>
uni129C
</note>
  <anchor x="294" y="789" name="top"/>
  <outline>
    <contour>
      <point x="185" y="0" type="line"/>
      <point x="299" y="0" type="line"/>
      <point x="475" y="493" type="line"/>
      <point x="326" y="493" type="line"/>
      <point x="326" y="684" type="line"/>
      <point x="197" y="684" type="line"/>
      <point x="197" y="383" type="line"/>
      <point x="303" y="383" type="line"/>
      <point x="185" y="76" type="line"/>
    </contour>
    <contour>
      <point x="320" y="92" type="line"/>
      <point x="364" y="211" type="line"/>
      <point x="390" y="211" type="line" smooth="yes"/>
      <point x="431" y="211"/>
      <point x="452" y="190"/>
      <point x="452" y="153" type="curve" smooth="yes"/>
      <point x="452" y="118"/>
      <point x="429" y="92"/>
      <point x="389" y="92" type="curve" smooth="yes"/>
    </contour>
    <contour>
      <point x="221" y="0" type="line"/>
      <point x="380" y="0" type="line" smooth="yes"/>
      <point x="522" y="0"/>
      <point x="583" y="62"/>
      <point x="583" y="159" type="curve" smooth="yes"/>
      <point x="583" y="251"/>
      <point x="530" y="303"/>
      <point x="407" y="303" type="curve" smooth="yes"/>
      <point x="332" y="303" type="line"/>
    </contour>
    <component base="bonemiddle" yOffset="-50"/>
  </outline>
</glyph>
<glyph name="nye.eth" format="2">
  <advance width="530"/>
  <unicode hex="129D"/>
  <note>
uni129D
</note>
  <anchor x="233" y="785" name="top"/>
  <outline>
    <contour>
      <point x="181" y="0" type="line"/>
      <point x="324" y="0" type="line"/>
      <point x="462" y="387" type="line"/>
      <point x="319" y="387" type="line"/>
      <point x="319" y="393" type="line" smooth="yes"/>
      <point x="319" y="461"/>
      <point x="289" y="546"/>
      <point x="173" y="546" type="curve" smooth="yes"/>
      <point x="46" y="546" type="line"/>
      <point x="9" y="384" type="line"/>
      <point x="27" y="384" type="line" smooth="yes"/>
      <point x="78" y="384"/>
      <point x="106" y="400"/>
      <point x="122" y="455" type="curve"/>
      <point x="127" y="455" type="line" smooth="yes"/>
      <point x="156" y="455"/>
      <point x="184" y="428"/>
      <point x="184" y="348" type="curve" smooth="yes"/>
      <point x="184" y="285" type="line"/>
      <point x="277" y="285" type="line"/>
    </contour>
    <contour>
      <point x="143" y="474" type="line"/>
      <point x="273" y="474" type="line"/>
      <point x="273" y="686" type="line"/>
      <point x="143" y="686" type="line"/>
    </contour>
    <component base="footshort" xScale="-1" yScale="-1" xOffset="428" yOffset="714"/>
  </outline>
</glyph>
<glyph name="nyo.eth" format="2">
  <advance width="570"/>
  <unicode hex="129E"/>
  <note>
uni129E
</note>
  <anchor x="287" y="800" name="top"/>
  <outline>
    <contour>
      <point x="204" y="0" type="line"/>
      <point x="334" y="0" type="line"/>
      <point x="334" y="288" type="line"/>
      <point x="193" y="288" type="line"/>
      <point x="193" y="397"/>
      <point x="222" y="472"/>
      <point x="293" y="472" type="curve"/>
      <point x="416" y="564" type="line"/>
      <point x="288" y="564" type="line" smooth="yes"/>
      <point x="172" y="564"/>
      <point x="63" y="475"/>
      <point x="63" y="249" type="curve" smooth="yes"/>
      <point x="63" y="181" type="line"/>
      <point x="204" y="181" type="line"/>
    </contour>
    <contour>
      <point x="409" y="299" type="curve" smooth="yes"/>
      <point x="509" y="299"/>
      <point x="556" y="360"/>
      <point x="556" y="434" type="curve" smooth="yes"/>
      <point x="556" y="511"/>
      <point x="509" y="564"/>
      <point x="409" y="564" type="curve" smooth="yes"/>
      <point x="310" y="564"/>
      <point x="262" y="510"/>
      <point x="262" y="432" type="curve" smooth="yes"/>
      <point x="262" y="354"/>
      <point x="308" y="299"/>
    </contour>
    <contour>
      <point x="205" y="520" type="line"/>
      <point x="335" y="520" type="line"/>
      <point x="335" y="689" type="line"/>
      <point x="205" y="689" type="line"/>
    </contour>
    <contour>
      <point x="409" y="376" type="curve" smooth="yes"/>
      <point x="379" y="376"/>
      <point x="365" y="396"/>
      <point x="365" y="432" type="curve" smooth="yes"/>
      <point x="365" y="468"/>
      <point x="379" y="487"/>
      <point x="409" y="487" type="curve" smooth="yes"/>
      <point x="439" y="487"/>
      <point x="453" y="468"/>
      <point x="453" y="432" type="curve" smooth="yes"/>
      <point x="453" y="396"/>
      <point x="439" y="376"/>
    </contour>
    <component base="bonemiddle" xOffset="14" yOffset="-39"/>
  </outline>
</glyph>
<glyph name="aGlottal.eth" format="2">
  <advance width="486"/>
  <unicode hex="12A0"/>
  <note>
uni12A0
</note>
  <anchor x="253" y="714" name="top"/>
  <outline>
    <contour>
      <point x="41" y="0" type="line"/>
      <point x="176" y="0" type="line"/>
      <point x="366" y="533" type="line"/>
      <point x="265" y="533" type="line" smooth="yes"/>
      <point x="206" y="533"/>
      <point x="187" y="553"/>
      <point x="187" y="634" type="curve" smooth="yes"/>
      <point x="187" y="714" type="line"/>
      <point x="57" y="714" type="line"/>
      <point x="57" y="611" type="line" smooth="yes"/>
      <point x="57" y="500"/>
      <point x="103" y="438"/>
      <point x="197" y="426" type="curve"/>
    </contour>
    <contour>
      <point x="336" y="0" type="curve"/>
      <point x="466" y="0" type="line"/>
      <point x="463" y="240"/>
      <point x="415" y="342"/>
      <point x="300" y="390" type="curve"/>
      <point x="251" y="285" type="line"/>
      <point x="303" y="250"/>
      <point x="335" y="182"/>
    </contour>
  </outline>
</glyph>
<glyph name="aaGlottal.eth" format="2">
  <advance width="470"/>
  <unicode hex="12A3"/>
  <note>
uni12A3
</note>
  <anchor x="245" y="714" name="top"/>
  <outline>
    <contour>
      <point x="79" y="147" type="line"/>
      <point x="212" y="147" type="line"/>
      <point x="350" y="533" type="line"/>
      <point x="249" y="533" type="line" smooth="yes"/>
      <point x="190" y="533"/>
      <point x="171" y="553"/>
      <point x="171" y="634" type="curve" smooth="yes"/>
      <point x="171" y="714" type="line"/>
      <point x="41" y="714" type="line"/>
      <point x="41" y="611" type="line" smooth="yes"/>
      <point x="41" y="500"/>
      <point x="87" y="438"/>
      <point x="181" y="426" type="curve"/>
    </contour>
    <contour>
      <point x="320" y="0" type="curve"/>
      <point x="450" y="0" type="line"/>
      <point x="447" y="240"/>
      <point x="399" y="342"/>
      <point x="284" y="390" type="curve"/>
      <point x="235" y="285" type="line"/>
      <point x="287" y="250"/>
      <point x="319" y="182"/>
    </contour>
  </outline>
</glyph>
<glyph name="eeGlottal.eth" format="2">
  <advance width="698"/>
  <unicode hex="12A4"/>
  <note>
uni12A4
</note>
  <anchor x="364" y="714" name="top"/>
  <outline>
    <contour>
      <point x="368" y="0" type="line"/>
      <point x="484" y="0" type="line" smooth="yes"/>
      <point x="626" y="0"/>
      <point x="687" y="62"/>
      <point x="687" y="159" type="curve" smooth="yes"/>
      <point x="687" y="251"/>
      <point x="634" y="303"/>
      <point x="511" y="303" type="curve" smooth="yes"/>
      <point x="308" y="303" type="line"/>
    </contour>
    <contour>
      <point x="448" y="92" type="line"/>
      <point x="438" y="211" type="line"/>
      <point x="494" y="211" type="line" smooth="yes"/>
      <point x="535" y="211"/>
      <point x="556" y="190"/>
      <point x="556" y="153" type="curve" smooth="yes"/>
      <point x="556" y="118"/>
      <point x="533" y="92"/>
      <point x="493" y="92" type="curve" smooth="yes"/>
    </contour>
    <component base="aGlottal.eth"/>
  </outline>
</glyph>
<glyph name="eGlottal.eth" format="2">
  <advance width="532"/>
  <unicode hex="12A5"/>
  <note>
uni12A5
</note>
  <anchor x="276" y="714" name="top"/>
  <outline>
    <contour>
      <point x="87" y="0" type="line"/>
      <point x="223" y="0" type="line"/>
      <point x="318" y="269" type="line"/>
      <point x="354" y="229"/>
      <point x="379" y="179"/>
      <point x="382" y="0" type="curve"/>
      <point x="512" y="0" type="line"/>
      <point x="508" y="237"/>
      <point x="466" y="329"/>
      <point x="359" y="384" type="curve"/>
      <point x="399" y="497" type="line"/>
      <point x="300" y="497" type="line"/>
      <point x="332" y="596" type="line"/>
      <point x="272" y="596" type="line" smooth="yes"/>
      <point x="199" y="596"/>
      <point x="171" y="622"/>
      <point x="171" y="685" type="curve" smooth="yes"/>
      <point x="171" y="714" type="line"/>
      <point x="41" y="714" type="line"/>
      <point x="41" y="687" type="line" smooth="yes"/>
      <point x="41" y="576"/>
      <point x="92" y="522"/>
      <point x="161" y="508" type="curve"/>
      <point x="123" y="394" type="line"/>
      <point x="232" y="394" type="line"/>
    </contour>
  </outline>
</glyph>
<glyph name="oGlottal.eth" format="2">
  <advance width="477"/>
  <unicode hex="12A6"/>
  <note>
uni12A6
</note>
  <anchor x="249" y="714" name="top"/>
  <outline>
    <contour>
      <point x="41" y="0" type="line"/>
      <point x="176" y="0" type="line"/>
      <point x="366" y="533" type="line"/>
      <point x="265" y="533" type="line" smooth="yes"/>
      <point x="206" y="533"/>
      <point x="187" y="553"/>
      <point x="187" y="634" type="curve" smooth="yes"/>
      <point x="187" y="714" type="line"/>
      <point x="57" y="714" type="line"/>
      <point x="57" y="611" type="line" smooth="yes"/>
      <point x="57" y="500"/>
      <point x="103" y="438"/>
      <point x="197" y="426" type="curve"/>
    </contour>
    <contour>
      <point x="327" y="139" type="curve"/>
      <point x="457" y="139" type="line"/>
      <point x="438" y="281"/>
      <point x="390" y="353"/>
      <point x="300" y="390" type="curve"/>
      <point x="251" y="285" type="line"/>
      <point x="287" y="261"/>
      <point x="314" y="223"/>
    </contour>
  </outline>
</glyph>
<glyph name="waGlottal.eth" format="2">
  <advance width="585"/>
  <unicode hex="12A7"/>
  <note>
uni12A7
</note>
  <anchor x="285" y="780" name="top"/>
  <outline>
    <contour>
      <point x="140" y="0" type="line"/>
      <point x="275" y="0" type="line"/>
      <point x="369" y="269" type="line"/>
      <point x="407" y="228"/>
      <point x="433" y="173"/>
      <point x="435" y="0" type="curve"/>
      <point x="565" y="0" type="line"/>
      <point x="560" y="230"/>
      <point x="517" y="334"/>
      <point x="411" y="384" type="curve"/>
      <point x="446" y="483" type="line"/>
      <point x="306" y="483" type="line"/>
      <point x="306" y="676" type="line"/>
      <point x="176" y="676" type="line"/>
      <point x="176" y="381" type="line"/>
      <point x="279" y="381" type="line"/>
    </contour>
    <component base="bone" yOffset="-59"/>
  </outline>
</glyph>
<glyph name="ka.eth" format="2">
	<advance width="579"/>
	<unicode hex="12A8"/>
	<anchor x="266" y="760" name="top"/>
	<note>
		uni12A8
	</note>
	<outline>
		<contour>
			<point x="138" y="476" type="curve"/>
			<point x="219" y="563" type="line"/>
			<point x="192" y="580"/>
			<point x="177" y="611"/>
			<point x="177" y="661" type="curve" smooth="yes"/>
			<point x="177" y="760" type="line"/>
			<point x="30" y="760" type="line"/>
			<point x="30" y="661" type="line" smooth="yes"/>
			<point x="30" y="550"/>
			<point x="75" y="502"/>
		</contour>
		<component base="shortnarch" xOffset="17"/>
	</outline>
</glyph>
<glyph name="kaa.eth" format="2">
  <advance width="586"/>
  <unicode hex="12AB"/>
  <note>
uni12AB
</note>
  <anchor x="269" y="760" name="top"/>
  <outline>
    <contour>
      <point x="138" y="480" type="curve"/>
      <point x="208" y="562" type="line"/>
      <point x="178" y="578"/>
      <point x="160" y="610"/>
      <point x="160" y="661" type="curve" smooth="yes"/>
      <point x="160" y="760" type="line"/>
      <point x="30" y="760" type="line"/>
      <point x="30" y="661" type="line" smooth="yes"/>
      <point x="30" y="552"/>
      <point x="62" y="505"/>
    </contour>
    <component base="baashort" xOffset="49"/>
  </outline>
</glyph>
<glyph name="ke.eth" format="2">
  <advance width="591"/>
  <unicode hex="12AD"/>
  <note>
uni12AD
</note>
  <anchor x="272" y="760" name="top"/>
  <outline>
    <contour>
      <point x="384" y="0" type="line"/>
      <point x="514" y="0" type="line"/>
      <point x="514" y="363" type="line" smooth="yes"/>
      <point x="514" y="516"/>
      <point x="449" y="604"/>
      <point x="316" y="604" type="curve" smooth="yes"/>
      <point x="182" y="604"/>
      <point x="114" y="507"/>
      <point x="114" y="365" type="curve" smooth="yes"/>
      <point x="114" y="327" type="line"/>
      <point x="244" y="327" type="line"/>
      <point x="244" y="357" type="line" smooth="yes"/>
      <point x="244" y="435"/>
      <point x="261" y="489"/>
      <point x="317" y="489" type="curve" smooth="yes"/>
      <point x="368" y="489"/>
      <point x="384" y="442"/>
      <point x="384" y="358" type="curve" smooth="yes"/>
    </contour>
    <contour>
      <point x="117" y="0" type="line"/>
      <point x="247" y="0" type="line"/>
      <point x="247" y="152" type="line" smooth="yes"/>
      <point x="247" y="214"/>
      <point x="265" y="241"/>
      <point x="309" y="241" type="curve"/>
      <point x="309" y="351" type="line"/>
      <point x="160" y="351"/>
      <point x="117" y="276"/>
      <point x="117" y="158" type="curve" smooth="yes"/>
    </contour>
    <contour>
      <point x="138" y="480" type="curve"/>
      <point x="208" y="562" type="line"/>
      <point x="178" y="578"/>
      <point x="160" y="610"/>
      <point x="160" y="661" type="curve" smooth="yes"/>
      <point x="160" y="760" type="line"/>
      <point x="30" y="760" type="line"/>
      <point x="30" y="661" type="line" smooth="yes"/>
      <point x="30" y="552"/>
      <point x="62" y="505"/>
    </contour>
  </outline>
</glyph>
<glyph name="ko.eth" format="2">
  <advance width="575"/>
  <unicode hex="12AE"/>
  <note>
uni12AE
</note>
  <anchor x="274" y="760" name="top"/>
  <outline>
    <contour>
      <point x="138" y="480" type="curve"/>
      <point x="208" y="562" type="line"/>
      <point x="178" y="578"/>
      <point x="160" y="610"/>
      <point x="160" y="661" type="curve" smooth="yes"/>
      <point x="160" y="760" type="line"/>
      <point x="30" y="760" type="line"/>
      <point x="30" y="661" type="line" smooth="yes"/>
      <point x="30" y="552"/>
      <point x="62" y="505"/>
    </contour>
    <component base="baashort" xScale="-1" xOffset="579"/>
  </outline>
</glyph>
<glyph name="kwi.eth" format="2">
  <advance width="810"/>
  <unicode hex="12B2"/>
  <note>
uni12B2
</note>
  <anchor x="406" y="760" name="top"/>
  <outline>
    <contour>
      <point x="785" y="148" type="curve" smooth="yes"/>
      <point x="805" y="148" type="line"/>
      <point x="768" y="309" type="line"/>
      <point x="601" y="309" type="line"/>
      <point x="601" y="219" type="line"/>
      <point x="691" y="219" type="line"/>
      <point x="708" y="165"/>
      <point x="736" y="148"/>
    </contour>
    <contour>
      <point x="452" y="312" type="line"/>
      <point x="587" y="312" type="line"/>
      <point x="587" y="402" type="line"/>
      <point x="452" y="402" type="line"/>
    </contour>
    <contour>
      <point x="571" y="219" type="line"/>
      <point x="682" y="219" type="line"/>
      <point x="682" y="491" type="line"/>
      <point x="571" y="491" type="line"/>
    </contour>
    <component base="ka.eth"/>
  </outline>
</glyph>
<glyph name="kwaa.eth" format="2">
  <advance width="655"/>
  <unicode hex="12B3"/>
  <note>
uni12B3
</note>
  <anchor x="330" y="760" name="top"/>
  <outline>
    <contour>
      <point x="379" y="143" type="line"/>
      <point x="509" y="143" type="line"/>
      <point x="509" y="363" type="line" smooth="yes"/>
      <point x="509" y="516"/>
      <point x="444" y="604"/>
      <point x="311" y="604" type="curve" smooth="yes"/>
      <point x="177" y="604"/>
      <point x="109" y="507"/>
      <point x="109" y="365" type="curve" smooth="yes"/>
      <point x="109" y="298" type="line"/>
      <point x="239" y="298" type="line"/>
      <point x="239" y="357" type="line" smooth="yes"/>
      <point x="239" y="435"/>
      <point x="256" y="489"/>
      <point x="312" y="489" type="curve" smooth="yes"/>
      <point x="363" y="489"/>
      <point x="379" y="442"/>
      <point x="379" y="358" type="curve" smooth="yes"/>
    </contour>
    <contour>
      <point x="330" y="117" type="line"/>
      <point x="514" y="117" type="line"/>
      <point x="514" y="207" type="line"/>
      <point x="330" y="207" type="line"/>
    </contour>
    <contour>
      <point x="138" y="480" type="curve"/>
      <point x="208" y="562" type="line"/>
      <point x="178" y="578"/>
      <point x="160" y="610"/>
      <point x="160" y="661" type="curve" smooth="yes"/>
      <point x="160" y="760" type="line"/>
      <point x="30" y="760" type="line"/>
      <point x="30" y="661" type="line" smooth="yes"/>
      <point x="30" y="552"/>
      <point x="62" y="505"/>
    </contour>
    <contour>
      <point x="504" y="0" type="line"/>
      <point x="630" y="0" type="line"/>
      <point x="630" y="207" type="line"/>
      <point x="504" y="207" type="line"/>
    </contour>
    <component base="leftsingleflag" xOffset="141" yOffset="-204"/>
  </outline>
</glyph>
<glyph name="kwee.eth" format="2">
  <advance width="739"/>
  <unicode hex="12B4"/>
  <note>
uni12B4
</note>
  <anchor x="379" y="760" name="top"/>
  <outline>
    <contour>
      <point x="351" y="0" type="line"/>
      <point x="463" y="0" type="line"/>
      <point x="463" y="90" type="line"/>
      <point x="351" y="90" type="line"/>
    </contour>
    <component base="kaa.eth"/>
    <component base="baselinebowl" xOffset="359"/>
    <component base="leftsingleflag" xOffset="166" yOffset="-321"/>
  </outline>
</glyph>
<glyph name="kwe.eth" format="2">
  <advance width="770"/>
  <unicode hex="12B5"/>
  <note>
uni12B5
</note>
  <anchor x="397" y="760" name="top"/>
  <outline>
    <contour>
      <point x="542" y="330" type="line"/>
      <point x="651" y="330" type="line"/>
      <point x="651" y="590" type="line"/>
      <point x="542" y="590" type="line"/>
    </contour>
    <contour>
      <point x="420" y="330" type="line"/>
      <point x="599" y="330" type="line"/>
      <point x="599" y="420" type="line"/>
      <point x="420" y="420" type="line"/>
    </contour>
    <component base="ka.eth"/>
    <component base="rightsingleflag" xOffset="551" yOffset="9"/>
  </outline>
</glyph>
<glyph name="kxa.eth" format="2">
  <advance width="705"/>
  <unicode hex="12B8"/>
  <note>
uni12B8
</note>
  <anchor x="316" y="839" name="top"/>
  <outline>
    <contour>
      <point x="220" y="0" type="line"/>
      <point x="350" y="0" type="line"/>
      <point x="350" y="311" type="line" smooth="yes"/>
      <point x="350" y="390"/>
      <point x="366" y="445"/>
      <point x="425" y="445" type="curve" smooth="yes"/>
      <point x="484" y="445"/>
      <point x="498" y="391"/>
      <point x="498" y="312" type="curve" smooth="yes"/>
      <point x="498" y="0" type="line"/>
      <point x="628" y="0" type="line"/>
      <point x="628" y="317" type="line" smooth="yes"/>
      <point x="628" y="470"/>
      <point x="559" y="558"/>
      <point x="426" y="558" type="curve" smooth="yes"/>
      <point x="292" y="558"/>
      <point x="220" y="461"/>
      <point x="220" y="319" type="curve" smooth="yes"/>
    </contour>
    <contour>
      <point x="281" y="430" type="curve"/>
      <point x="362" y="517" type="line"/>
      <point x="324" y="534"/>
      <point x="303" y="565"/>
      <point x="303" y="616" type="curve" smooth="yes"/>
      <point x="303" y="714" type="line"/>
      <point x="173" y="714" type="line"/>
      <point x="173" y="615" type="line" smooth="yes"/>
      <point x="173" y="504"/>
      <point x="218" y="456"/>
    </contour>
    <component base="bone"/>
  </outline>
</glyph>
<glyph name="kxaa.eth" format="2">
  <advance width="694"/>
  <unicode hex="12BB"/>
  <note>
uni12BB
</note>
  <anchor x="311" y="839" name="top"/>
  <outline>
    <contour>
      <point x="487" y="0" type="line"/>
      <point x="617" y="0" type="line"/>
      <point x="617" y="317" type="line" smooth="yes"/>
      <point x="617" y="470"/>
      <point x="548" y="558"/>
      <point x="415" y="558" type="curve" smooth="yes"/>
      <point x="281" y="558"/>
      <point x="209" y="461"/>
      <point x="209" y="319" type="curve" smooth="yes"/>
      <point x="209" y="267" type="line"/>
      <point x="339" y="267" type="line"/>
      <point x="339" y="311" type="line" smooth="yes"/>
      <point x="339" y="390"/>
      <point x="355" y="445"/>
      <point x="414" y="445" type="curve" smooth="yes"/>
      <point x="473" y="445"/>
      <point x="487" y="391"/>
      <point x="487" y="312" type="curve" smooth="yes"/>
    </contour>
    <contour>
      <point x="270" y="430" type="curve"/>
      <point x="351" y="517" type="line"/>
      <point x="324" y="534"/>
      <point x="309" y="565"/>
      <point x="309" y="615" type="curve" smooth="yes"/>
      <point x="309" y="714" type="line"/>
      <point x="162" y="714" type="line"/>
      <point x="162" y="615" type="line" smooth="yes"/>
      <point x="162" y="504"/>
      <point x="207" y="456"/>
    </contour>
    <component base="bone"/>
  </outline>
</glyph>
<glyph name="kxe.eth" format="2">
  <advance width="733"/>
  <unicode hex="12BD"/>
  <note>
uni12BD
</note>
  <anchor x="330" y="839" name="top"/>
  <outline>
    <contour>
      <point x="526" y="0" type="line"/>
      <point x="656" y="0" type="line"/>
      <point x="656" y="313" type="line" smooth="yes"/>
      <point x="656" y="466"/>
      <point x="591" y="554"/>
      <point x="458" y="554" type="curve" smooth="yes"/>
      <point x="324" y="554"/>
      <point x="256" y="457"/>
      <point x="256" y="315" type="curve" smooth="yes"/>
      <point x="256" y="277" type="line"/>
      <point x="386" y="277" type="line"/>
      <point x="386" y="307" type="line" smooth="yes"/>
      <point x="386" y="385"/>
      <point x="403" y="439"/>
      <point x="459" y="439" type="curve" smooth="yes"/>
      <point x="510" y="439"/>
      <point x="526" y="392"/>
      <point x="526" y="308" type="curve" smooth="yes"/>
    </contour>
    <contour>
      <point x="259" y="0" type="line"/>
      <point x="389" y="0" type="line"/>
      <point x="389" y="102" type="line" smooth="yes"/>
      <point x="389" y="164"/>
      <point x="407" y="191"/>
      <point x="451" y="191" type="curve"/>
      <point x="451" y="301" type="line"/>
      <point x="302" y="301"/>
      <point x="259" y="226"/>
      <point x="259" y="108" type="curve" smooth="yes"/>
    </contour>
    <contour>
      <point x="280" y="430" type="curve"/>
      <point x="350" y="512" type="line"/>
      <point x="320" y="528"/>
      <point x="302" y="560"/>
      <point x="302" y="611" type="curve" smooth="yes"/>
      <point x="302" y="710" type="line"/>
      <point x="172" y="710" type="line"/>
      <point x="172" y="611" type="line" smooth="yes"/>
      <point x="172" y="502"/>
      <point x="204" y="455"/>
    </contour>
    <component base="bone"/>
  </outline>
</glyph>
<glyph name="kxo.eth" format="2">
  <advance width="720"/>
  <unicode hex="12BE"/>
  <note>
uni12BE
</note>
  <anchor x="332" y="839" name="top"/>
  <outline>
    <contour>
      <point x="260" y="0" type="line"/>
      <point x="390" y="0" type="line"/>
      <point x="390" y="308" type="line" smooth="yes"/>
      <point x="390" y="392"/>
      <point x="406" y="439"/>
      <point x="457" y="439" type="curve" smooth="yes"/>
      <point x="513" y="439"/>
      <point x="530" y="385"/>
      <point x="530" y="307" type="curve" smooth="yes"/>
      <point x="530" y="188" type="line"/>
      <point x="660" y="188" type="line"/>
      <point x="660" y="315" type="line" smooth="yes"/>
      <point x="660" y="457"/>
      <point x="592" y="554"/>
      <point x="458" y="554" type="curve" smooth="yes"/>
      <point x="325" y="554"/>
      <point x="260" y="466"/>
      <point x="260" y="313" type="curve" smooth="yes"/>
    </contour>
    <contour>
      <point x="279" y="430" type="curve"/>
      <point x="349" y="512" type="line"/>
      <point x="319" y="528"/>
      <point x="301" y="560"/>
      <point x="301" y="611" type="curve" smooth="yes"/>
      <point x="301" y="710" type="line"/>
      <point x="171" y="710" type="line"/>
      <point x="171" y="611" type="line" smooth="yes"/>
      <point x="171" y="502"/>
      <point x="203" y="455"/>
    </contour>
    <component base="bone"/>
  </outline>
</glyph>
<glyph name="kxwi.eth" format="2">
  <advance width="943"/>
  <unicode hex="12C2"/>
  <note>
uni12C2
</note>
  <anchor x="471" y="839" name="top"/>
  <outline>
    <contour>
      <point x="918" y="105" type="curve" smooth="yes"/>
      <point x="938" y="105" type="line"/>
      <point x="901" y="266" type="line"/>
      <point x="734" y="266" type="line"/>
      <point x="734" y="176" type="line"/>
      <point x="824" y="176" type="line"/>
      <point x="841" y="122"/>
      <point x="869" y="105"/>
    </contour>
    <contour>
      <point x="591" y="269" type="line"/>
      <point x="720" y="269" type="line"/>
      <point x="720" y="359" type="line"/>
      <point x="591" y="359" type="line"/>
    </contour>
    <contour>
      <point x="704" y="176" type="line"/>
      <point x="815" y="176" type="line"/>
      <point x="815" y="448" type="line"/>
      <point x="704" y="448" type="line"/>
    </contour>
    <component base="kxa.eth"/>
  </outline>
</glyph>
<glyph name="kxwaa.eth" format="2">
  <advance width="736"/>
  <unicode hex="12C3"/>
  <note>
uni12C3
</note>
  <anchor x="368" y="844" name="top"/>
  <outline>
    <contour>
      <point x="467" y="0" type="line"/>
      <point x="597" y="0" type="line"/>
      <point x="597" y="317" type="line" smooth="yes"/>
      <point x="597" y="470"/>
      <point x="528" y="558"/>
      <point x="395" y="558" type="curve" smooth="yes"/>
      <point x="261" y="558"/>
      <point x="189" y="461"/>
      <point x="189" y="319" type="curve" smooth="yes"/>
      <point x="189" y="267" type="line"/>
      <point x="319" y="267" type="line"/>
      <point x="319" y="311" type="line" smooth="yes"/>
      <point x="319" y="390"/>
      <point x="335" y="445"/>
      <point x="394" y="445" type="curve" smooth="yes"/>
      <point x="453" y="445"/>
      <point x="467" y="391"/>
      <point x="467" y="312" type="curve" smooth="yes"/>
    </contour>
    <contour>
      <point x="250" y="430" type="curve"/>
      <point x="331" y="517" type="line"/>
      <point x="304" y="534"/>
      <point x="289" y="565"/>
      <point x="289" y="615" type="curve" smooth="yes"/>
      <point x="289" y="714" type="line"/>
      <point x="142" y="714" type="line"/>
      <point x="142" y="615" type="line" smooth="yes"/>
      <point x="142" y="504"/>
      <point x="187" y="456"/>
    </contour>
    <component base="footright" xOffset="259"/>
    <component base="footshort" xScale="-1" yScale="-1" xOffset="428" yOffset="773"/>
  </outline>
</glyph>
<glyph name="kxwee.eth" format="2">
  <advance width="847"/>
  <unicode hex="12C4"/>
  <note>
uni12C4
</note>
  <anchor x="420" y="839" name="top"/>
  <outline>
    <contour>
      <point x="469" y="0" type="line"/>
      <point x="604" y="0" type="line"/>
      <point x="604" y="90" type="line"/>
      <point x="469" y="90" type="line"/>
    </contour>
    <component base="baselinebowl" xOffset="467"/>
    <component base="leftsingleflag" xOffset="281" yOffset="-321"/>
    <component base="kxaa.eth"/>
  </outline>
</glyph>
<glyph name="kxwe.eth" format="2">
  <advance width="883"/>
  <unicode hex="12C5"/>
  <note>
uni12C5
</note>
  <anchor x="441" y="839" name="top"/>
  <outline>
    <contour>
      <point x="662" y="300" type="line"/>
      <point x="771" y="300" type="line"/>
      <point x="771" y="550" type="line"/>
      <point x="662" y="550" type="line"/>
    </contour>
    <contour>
      <point x="520" y="300" type="line"/>
      <point x="719" y="300" type="line"/>
      <point x="719" y="390" type="line"/>
      <point x="520" y="390" type="line"/>
    </contour>
    <component base="kxa.eth"/>
    <component base="rightsingleflag" xOffset="664" yOffset="-21"/>
  </outline>
</glyph>
<glyph name="wa.eth" format="2">
  <advance width="689"/>
  <unicode hex="12C8"/>
  <note>
uni12C8
</note>
  <anchor x="344" y="714" name="top"/>
  <outline>
    <contour>
      <point x="237" y="-10" type="curve" smooth="yes"/>
      <point x="299" y="-10"/>
      <point x="343" y="28"/>
      <point x="376" y="73" type="curve"/>
      <point x="423" y="73" type="line" smooth="yes"/>
      <point x="565" y="73"/>
      <point x="639" y="188"/>
      <point x="639" y="402" type="curve" smooth="yes"/>
      <point x="639" y="608"/>
      <point x="570" y="714"/>
      <point x="410" y="714" type="curve" smooth="yes"/>
      <point x="297" y="714" type="line" smooth="yes"/>
      <point x="135" y="714"/>
      <point x="50" y="563"/>
      <point x="50" y="319" type="curve" smooth="yes"/>
      <point x="50" y="108"/>
      <point x="113" y="-10"/>
    </contour>
    <contour>
      <point x="242" y="100" type="curve" smooth="yes"/>
      <point x="198" y="100"/>
      <point x="182" y="172"/>
      <point x="182" y="325" type="curve" smooth="yes"/>
      <point x="182" y="486"/>
      <point x="224" y="604"/>
      <point x="281" y="604" type="curve" smooth="yes"/>
      <point x="288" y="604" type="line"/>
      <point x="288" y="135" type="line"/>
      <point x="276" y="114"/>
      <point x="263" y="100"/>
    </contour>
    <contour>
      <point x="418" y="183" type="line"/>
      <point x="418" y="604" type="line"/>
      <point x="428" y="604" type="line" smooth="yes"/>
      <point x="487" y="604"/>
      <point x="508" y="492"/>
      <point x="508" y="400" type="curve" smooth="yes"/>
      <point x="508" y="293"/>
      <point x="483" y="183"/>
      <point x="428" y="183" type="curve" smooth="yes"/>
    </contour>
  </outline>
</glyph>
<glyph name="wu.eth" format="2">
  <advance width="775"/>
  <unicode hex="12C9"/>
  <note>
uni12C9
</note>
  <anchor x="410" y="714" name="top"/>
  <outline>
    <contour>
      <point x="391" y="73" type="line"/>
      <point x="689" y="73" type="line"/>
      <point x="689" y="163" type="line"/>
      <point x="391" y="163" type="line"/>
    </contour>
    <component base="wa.eth"/>
    <component base="rightdoubleflag" xOffset="559" yOffset="73"/>
  </outline>
</glyph>
<glyph name="waa.eth" format="2">
  <advance width="637"/>
  <unicode hex="12CB"/>
  <note>
uni12CB
</note>
  <anchor x="318" y="714" name="top"/>
  <outline>
    <contour>
      <point x="196" y="261" type="curve" smooth="yes"/>
      <point x="277" y="261"/>
      <point x="322" y="296"/>
      <point x="353" y="349" type="curve"/>
      <point x="450" y="349" type="line" smooth="yes"/>
      <point x="560" y="349"/>
      <point x="609" y="434"/>
      <point x="609" y="540" type="curve" smooth="yes"/>
      <point x="609" y="642"/>
      <point x="552" y="714"/>
      <point x="427" y="714" type="curve" smooth="yes"/>
      <point x="278" y="714" type="line" smooth="yes"/>
      <point x="114" y="714"/>
      <point x="28" y="615"/>
      <point x="28" y="463" type="curve" smooth="yes"/>
      <point x="28" y="332"/>
      <point x="95" y="261"/>
    </contour>
    <contour>
      <point x="268" y="0" type="line"/>
      <point x="398" y="0" type="line"/>
      <point x="398" y="374" type="line"/>
      <point x="268" y="371" type="line"/>
    </contour>
    <contour>
      <point x="220" y="371" type="curve" smooth="yes"/>
      <point x="187" y="371"/>
      <point x="161" y="401"/>
      <point x="161" y="470" type="curve" smooth="yes"/>
      <point x="161" y="557"/>
      <point x="197" y="604"/>
      <point x="265" y="604" type="curve" smooth="yes"/>
      <point x="268" y="604" type="line"/>
      <point x="268" y="396" type="line"/>
      <point x="257" y="381"/>
      <point x="242" y="371"/>
    </contour>
    <contour>
      <point x="397" y="459" type="line"/>
      <point x="397" y="604" type="line"/>
      <point x="419" y="604" type="line" smooth="yes"/>
      <point x="471" y="604"/>
      <point x="477" y="565"/>
      <point x="477" y="535" type="curve" smooth="yes"/>
      <point x="477" y="500"/>
      <point x="469" y="459"/>
      <point x="422" y="459" type="curve" smooth="yes"/>
    </contour>
  </outline>
</glyph>
<glyph name="wo.eth" format="2">
  <advance width="641"/>
  <unicode hex="12CE"/>
  <note>
uni12CB
</note>
  <anchor x="320" y="714" name="top"/>
  <outline>
    <contour>
      <point x="196" y="261" type="curve" smooth="yes"/>
      <point x="277" y="261"/>
      <point x="326" y="297"/>
      <point x="357" y="350" type="curve"/>
      <point x="454" y="350" type="line" smooth="yes"/>
      <point x="564" y="350"/>
      <point x="613" y="434"/>
      <point x="613" y="540" type="curve" smooth="yes"/>
      <point x="613" y="642"/>
      <point x="556" y="714"/>
      <point x="431" y="714" type="curve" smooth="yes"/>
      <point x="278" y="714" type="line" smooth="yes"/>
      <point x="114" y="714"/>
      <point x="28" y="615"/>
      <point x="28" y="463" type="curve" smooth="yes"/>
      <point x="28" y="332"/>
      <point x="95" y="261"/>
    </contour>
    <contour>
      <point x="124" y="0" type="line"/>
      <point x="259" y="0" type="line"/>
      <point x="418" y="374" type="line"/>
      <point x="285" y="374" type="line"/>
    </contour>
    <contour>
      <point x="220" y="371" type="curve" smooth="yes"/>
      <point x="187" y="371"/>
      <point x="161" y="401"/>
      <point x="161" y="470" type="curve" smooth="yes"/>
      <point x="161" y="557"/>
      <point x="197" y="604"/>
      <point x="265" y="604" type="curve" smooth="yes"/>
      <point x="271" y="604" type="line"/>
      <point x="271" y="395" type="line"/>
      <point x="260" y="381"/>
      <point x="242" y="371"/>
    </contour>
    <contour>
      <point x="401" y="460" type="line"/>
      <point x="401" y="604" type="line"/>
      <point x="423" y="604" type="line" smooth="yes"/>
      <point x="475" y="604"/>
      <point x="481" y="565"/>
      <point x="481" y="535" type="curve" smooth="yes"/>
      <point x="481" y="500"/>
      <point x="473" y="460"/>
      <point x="426" y="460" type="curve" smooth="yes"/>
    </contour>
  </outline>
</glyph>
<glyph name="aPhr.eth" format="2">
  <advance width="482"/>
  <unicode hex="12D0"/>
  <note>
uni12D0
</note>
  <anchor x="241" y="724" name="top"/>
  <outline>
    <contour>
      <point x="240" y="-10" type="curve" smooth="yes"/>
      <point x="388" y="-10"/>
      <point x="432" y="104"/>
      <point x="432" y="253" type="curve" smooth="yes"/>
      <point x="432" y="461" type="line" smooth="yes"/>
      <point x="432" y="609"/>
      <point x="388" y="724"/>
      <point x="240" y="724" type="curve" smooth="yes"/>
      <point x="99" y="724"/>
      <point x="50" y="618"/>
      <point x="50" y="459" type="curve" smooth="yes"/>
      <point x="50" y="255" type="line" smooth="yes"/>
      <point x="50" y="95"/>
      <point x="100" y="-10"/>
    </contour>
    <contour>
      <point x="242" y="105" type="curve" smooth="yes"/>
      <point x="192" y="105"/>
      <point x="180" y="158"/>
      <point x="180" y="250" type="curve" smooth="yes"/>
      <point x="180" y="463" type="line" smooth="yes"/>
      <point x="180" y="556"/>
      <point x="191" y="609"/>
      <point x="242" y="609" type="curve" smooth="yes"/>
      <point x="296" y="609"/>
      <point x="303" y="549"/>
      <point x="303" y="462" type="curve" smooth="yes"/>
      <point x="303" y="251" type="line" smooth="yes"/>
      <point x="303" y="165"/>
      <point x="296" y="105"/>
    </contour>
  </outline>
</glyph>
<glyph name="iPhr.eth" format="2">
  <advance width="622"/>
  <unicode hex="12D2"/>
  <note>
uni12D2
</note>
  <anchor x="322" y="725" name="top"/>
  <outline>
    <contour>
      <point x="247" y="0" type="line"/>
      <point x="353" y="0" type="line"/>
      <point x="484" y="376" type="line"/>
      <point x="391" y="376" type="line"/>
      <point x="393" y="393"/>
      <point x="395" y="418"/>
      <point x="395" y="465" type="curve" smooth="yes"/>
      <point x="395" y="512" type="line" smooth="yes"/>
      <point x="395" y="663"/>
      <point x="330" y="725"/>
      <point x="210" y="725" type="curve" smooth="yes"/>
      <point x="91" y="725"/>
      <point x="28" y="654"/>
      <point x="28" y="519" type="curve" smooth="yes"/>
      <point x="28" y="462" type="line" smooth="yes"/>
      <point x="28" y="321"/>
      <point x="89" y="261"/>
      <point x="205" y="261" type="curve" smooth="yes"/>
      <point x="253" y="261"/>
      <point x="287" y="271"/>
      <point x="307" y="292" type="curve"/>
      <point x="325" y="292" type="line"/>
      <point x="247" y="80" type="line"/>
    </contour>
    <contour>
      <point x="327" y="0" type="line"/>
      <point x="523" y="0" type="line"/>
      <point x="523" y="90" type="line"/>
      <point x="327" y="90" type="line"/>
    </contour>
    <contour>
      <point x="212" y="361" type="curve" smooth="yes"/>
      <point x="175" y="361"/>
      <point x="165" y="395"/>
      <point x="165" y="470" type="curve" smooth="yes"/>
      <point x="165" y="525" type="line" smooth="yes"/>
      <point x="165" y="593"/>
      <point x="177" y="625"/>
      <point x="211" y="625" type="curve" smooth="yes"/>
      <point x="246" y="625"/>
      <point x="257" y="593"/>
      <point x="257" y="525" type="curve" smooth="yes"/>
      <point x="257" y="470" type="line" smooth="yes"/>
      <point x="257" y="395"/>
      <point x="249" y="361"/>
    </contour>
    <component base="rightdoubleflag" xOffset="406"/>
  </outline>
</glyph>
<glyph name="aaPhr.eth" format="2">
  <advance width="494"/>
  <unicode hex="12D3"/>
  <note>
uni12D3
</note>
  <anchor x="256" y="725" name="top"/>
  <outline>
    <contour>
      <point x="218" y="0" type="line"/>
      <point x="353" y="0" type="line"/>
      <point x="484" y="376" type="line"/>
      <point x="391" y="376" type="line"/>
      <point x="393" y="393"/>
      <point x="395" y="418"/>
      <point x="395" y="465" type="curve" smooth="yes"/>
      <point x="395" y="512" type="line" smooth="yes"/>
      <point x="395" y="663"/>
      <point x="330" y="725"/>
      <point x="210" y="725" type="curve" smooth="yes"/>
      <point x="91" y="725"/>
      <point x="28" y="654"/>
      <point x="28" y="519" type="curve" smooth="yes"/>
      <point x="28" y="462" type="line" smooth="yes"/>
      <point x="28" y="321"/>
      <point x="89" y="261"/>
      <point x="205" y="261" type="curve" smooth="yes"/>
      <point x="253" y="261"/>
      <point x="287" y="271"/>
      <point x="307" y="292" type="curve"/>
      <point x="325" y="292" type="line"/>
    </contour>
    <contour>
      <point x="212" y="361" type="curve" smooth="yes"/>
      <point x="175" y="361"/>
      <point x="165" y="395"/>
      <point x="165" y="470" type="curve" smooth="yes"/>
      <point x="165" y="525" type="line" smooth="yes"/>
      <point x="165" y="593"/>
      <point x="177" y="625"/>
      <point x="211" y="625" type="curve" smooth="yes"/>
      <point x="246" y="625"/>
      <point x="257" y="593"/>
      <point x="257" y="525" type="curve" smooth="yes"/>
      <point x="257" y="470" type="line" smooth="yes"/>
      <point x="257" y="395"/>
      <point x="249" y="361"/>
    </contour>
  </outline>
</glyph>
<glyph name="eePhr.eth" format="2">
  <advance width="638"/>
  <unicode hex="12D4"/>
  <note>
uni12D4
</note>
  <anchor x="327" y="725" name="top"/>
  <outline>
    <contour>
      <point x="247" y="0" type="line"/>
      <point x="353" y="0" type="line"/>
      <point x="484" y="376" type="line"/>
      <point x="391" y="376" type="line"/>
      <point x="393" y="393"/>
      <point x="395" y="418"/>
      <point x="395" y="465" type="curve" smooth="yes"/>
      <point x="395" y="512" type="line" smooth="yes"/>
      <point x="395" y="663"/>
      <point x="330" y="725"/>
      <point x="210" y="725" type="curve" smooth="yes"/>
      <point x="91" y="725"/>
      <point x="28" y="654"/>
      <point x="28" y="519" type="curve" smooth="yes"/>
      <point x="28" y="462" type="line" smooth="yes"/>
      <point x="28" y="321"/>
      <point x="89" y="261"/>
      <point x="205" y="261" type="curve" smooth="yes"/>
      <point x="253" y="261"/>
      <point x="287" y="271"/>
      <point x="307" y="292" type="curve"/>
      <point x="325" y="292" type="line"/>
      <point x="247" y="80" type="line"/>
    </contour>
    <contour>
      <point x="364" y="92" type="line"/>
      <point x="408" y="211" type="line"/>
      <point x="434" y="211" type="line" smooth="yes"/>
      <point x="475" y="211"/>
      <point x="496" y="190"/>
      <point x="496" y="153" type="curve" smooth="yes"/>
      <point x="496" y="118"/>
      <point x="473" y="92"/>
      <point x="433" y="92" type="curve" smooth="yes"/>
    </contour>
    <contour>
      <point x="278" y="0" type="line"/>
      <point x="424" y="0" type="line" smooth="yes"/>
      <point x="566" y="0"/>
      <point x="627" y="62"/>
      <point x="627" y="159" type="curve" smooth="yes"/>
      <point x="627" y="251"/>
      <point x="574" y="303"/>
      <point x="451" y="303" type="curve" smooth="yes"/>
      <point x="389" y="303" type="line"/>
    </contour>
    <contour>
      <point x="212" y="361" type="curve" smooth="yes"/>
      <point x="175" y="361"/>
      <point x="165" y="395"/>
      <point x="165" y="470" type="curve" smooth="yes"/>
      <point x="165" y="525" type="line" smooth="yes"/>
      <point x="165" y="593"/>
      <point x="177" y="625"/>
      <point x="211" y="625" type="curve" smooth="yes"/>
      <point x="246" y="625"/>
      <point x="257" y="593"/>
      <point x="257" y="525" type="curve" smooth="yes"/>
      <point x="257" y="470" type="line" smooth="yes"/>
      <point x="257" y="395"/>
      <point x="249" y="361"/>
    </contour>
  </outline>
</glyph>
<glyph name="ePhr.eth" format="2">
  <advance width="482"/>
  <unicode hex="12D5"/>
  <note>
uni12D5
</note>
  <anchor x="241" y="760" name="top"/>
  <outline>
    <contour>
      <point x="240" y="-10" type="curve" smooth="yes"/>
      <point x="388" y="-10"/>
      <point x="432" y="104"/>
      <point x="432" y="253" type="curve" smooth="yes"/>
      <point x="432" y="366" type="line" smooth="yes"/>
      <point x="432" y="514"/>
      <point x="388" y="629"/>
      <point x="240" y="629" type="curve" smooth="yes"/>
      <point x="99" y="629"/>
      <point x="50" y="523"/>
      <point x="50" y="364" type="curve" smooth="yes"/>
      <point x="50" y="255" type="line" smooth="yes"/>
      <point x="50" y="95"/>
      <point x="100" y="-10"/>
    </contour>
    <contour>
      <point x="242" y="105" type="curve" smooth="yes"/>
      <point x="192" y="105"/>
      <point x="180" y="158"/>
      <point x="180" y="250" type="curve" smooth="yes"/>
      <point x="180" y="368" type="line" smooth="yes"/>
      <point x="180" y="461"/>
      <point x="191" y="514"/>
      <point x="242" y="514" type="curve" smooth="yes"/>
      <point x="296" y="514"/>
      <point x="303" y="454"/>
      <point x="303" y="367" type="curve" smooth="yes"/>
      <point x="303" y="251" type="line" smooth="yes"/>
      <point x="303" y="165"/>
      <point x="296" y="105"/>
    </contour>
    <contour>
      <point x="175" y="604" type="line"/>
      <point x="305" y="604" type="line"/>
      <point x="305" y="760" type="line"/>
      <point x="175" y="760" type="line"/>
    </contour>
  </outline>
</glyph>
<glyph name="oPhr.eth" format="2">
  <advance width="460"/>
  <unicode hex="12D6"/>
  <note>
uni12D6
</note>
  <anchor x="230" y="723" name="top"/>
  <outline>
    <contour>
      <point x="20" y="0" type="curve"/>
      <point x="155" y="0" type="line"/>
      <point x="157" y="169"/>
      <point x="182" y="203"/>
      <point x="290" y="280" type="curve" smooth="yes"/>
      <point x="371" y="337"/>
      <point x="440" y="387"/>
      <point x="440" y="520" type="curve" smooth="yes"/>
      <point x="440" y="651"/>
      <point x="374" y="723"/>
      <point x="250" y="723" type="curve" smooth="yes"/>
      <point x="126" y="723"/>
      <point x="58" y="652"/>
      <point x="58" y="527" type="curve" smooth="yes"/>
      <point x="58" y="438"/>
      <point x="93" y="371"/>
      <point x="151" y="337" type="curve"/>
      <point x="51" y="264"/>
      <point x="24" y="180"/>
    </contour>
    <contour>
      <point x="250" y="398" type="curve"/>
      <point x="213" y="414"/>
      <point x="190" y="461"/>
      <point x="190" y="525" type="curve" smooth="yes"/>
      <point x="190" y="586"/>
      <point x="211" y="623"/>
      <point x="252" y="623" type="curve" smooth="yes"/>
      <point x="290" y="623"/>
      <point x="310" y="590"/>
      <point x="310" y="532" type="curve" smooth="yes"/>
      <point x="310" y="472"/>
      <point x="289" y="428"/>
    </contour>
  </outline>
</glyph>
<glyph name="za.eth" format="2">
  <advance width="514"/>
  <unicode hex="12D8"/>
  <note>
uni12D8
</note>
  <anchor x="257" y="714" name="top"/>
  <outline>
    <contour>
      <point x="70" y="0" type="line"/>
      <point x="200" y="0" type="line"/>
      <point x="200" y="316" type="line"/>
      <point x="314" y="316" type="line"/>
      <point x="314" y="0" type="line"/>
      <point x="444" y="0" type="line"/>
      <point x="444" y="714" type="line"/>
      <point x="314" y="714" type="line"/>
      <point x="314" y="428" type="line"/>
      <point x="200" y="428" type="line"/>
      <point x="200" y="714" type="line"/>
      <point x="70" y="714" type="line"/>
    </contour>
  </outline>
</glyph>
<glyph name="zaa.eth" format="2">
  <advance width="514"/>
  <unicode hex="12DB"/>
  <note>
uni12DB
</note>
  <anchor x="257" y="714" name="top"/>
  <outline>
    <contour>
      <point x="314" y="0" type="line"/>
      <point x="444" y="0" type="line"/>
      <point x="444" y="714" type="line"/>
      <point x="314" y="714" type="line"/>
      <point x="314" y="428" type="line"/>
      <point x="200" y="428" type="line"/>
      <point x="200" y="714" type="line"/>
      <point x="70" y="714" type="line"/>
      <point x="70" y="164" type="line"/>
      <point x="200" y="164" type="line"/>
      <point x="200" y="316" type="line"/>
      <point x="314" y="316" type="line"/>
    </contour>
  </outline>
</glyph>
<glyph name="ze.eth" format="2">
  <advance width="620"/>
  <unicode hex="12DD"/>
  <note>
uni12DD
</note>
  <anchor x="277" y="714" name="top"/>
  <outline>
    <contour>
      <point x="176" y="0" type="line"/>
      <point x="306" y="0" type="line"/>
      <point x="306" y="316" type="line"/>
      <point x="420" y="316" type="line"/>
      <point x="420" y="0" type="line"/>
      <point x="550" y="0" type="line"/>
      <point x="550" y="714" type="line"/>
      <point x="420" y="714" type="line"/>
      <point x="420" y="428" type="line"/>
      <point x="306" y="428" type="line"/>
      <point x="306" y="526" type="line" smooth="yes"/>
      <point x="306" y="644"/>
      <point x="245" y="714"/>
      <point x="146" y="714" type="curve" smooth="yes"/>
      <point x="42" y="714" type="line"/>
      <point x="5" y="553" type="line"/>
      <point x="28" y="553" type="line" smooth="yes"/>
      <point x="77" y="553"/>
      <point x="103" y="574"/>
      <point x="119" y="624" type="curve"/>
      <point x="127" y="624" type="line" smooth="yes"/>
      <point x="160" y="624"/>
      <point x="176" y="593"/>
      <point x="176" y="519" type="curve" smooth="yes"/>
    </contour>
  </outline>
</glyph>
<glyph name="zhaa.eth" format="2">
  <advance width="726"/>
  <unicode hex="12E3"/>
  <note>
uni12E3
</note>
  <anchor x="363" y="714" name="top"/>
  <outline>
    <contour>
      <point x="420" y="0" type="line"/>
      <point x="550" y="0" type="line"/>
      <point x="550" y="519" type="line" smooth="yes"/>
      <point x="550" y="593"/>
      <point x="566" y="624"/>
      <point x="599" y="624" type="curve" smooth="yes"/>
      <point x="607" y="624" type="line"/>
      <point x="623" y="574"/>
      <point x="649" y="553"/>
      <point x="698" y="553" type="curve" smooth="yes"/>
      <point x="721" y="553" type="line"/>
      <point x="684" y="714" type="line"/>
      <point x="580" y="714" type="line" smooth="yes"/>
      <point x="481" y="714"/>
      <point x="420" y="644"/>
      <point x="420" y="526" type="curve" smooth="yes"/>
      <point x="420" y="428" type="line"/>
      <point x="306" y="428" type="line"/>
      <point x="306" y="526" type="line" smooth="yes"/>
      <point x="306" y="644"/>
      <point x="245" y="714"/>
      <point x="146" y="714" type="curve" smooth="yes"/>
      <point x="42" y="714" type="line"/>
      <point x="5" y="553" type="line"/>
      <point x="28" y="553" type="line" smooth="yes"/>
      <point x="77" y="553"/>
      <point x="103" y="574"/>
      <point x="119" y="624" type="curve"/>
      <point x="127" y="624" type="line" smooth="yes"/>
      <point x="160" y="624"/>
      <point x="176" y="593"/>
      <point x="176" y="519" type="curve" smooth="yes"/>
      <point x="176" y="165" type="line"/>
      <point x="306" y="165" type="line"/>
      <point x="306" y="316" type="line"/>
      <point x="420" y="316" type="line"/>
    </contour>
  </outline>
</glyph>
<glyph name="zhe.eth" format="2">
  <advance width="748"/>
  <unicode hex="12E5"/>
  <note>
uni12E5
</note>
  <anchor x="374" y="844" name="top"/>
  <outline>
    <contour>
      <point x="198" y="0" type="line"/>
      <point x="328" y="0" type="line"/>
      <point x="328" y="219" type="line"/>
      <point x="442" y="219" type="line"/>
      <point x="442" y="0" type="line"/>
      <point x="572" y="0" type="line"/>
      <point x="572" y="362" type="line" smooth="yes"/>
      <point x="572" y="436"/>
      <point x="588" y="467"/>
      <point x="621" y="467" type="curve" smooth="yes"/>
      <point x="629" y="467" type="line"/>
      <point x="645" y="417"/>
      <point x="671" y="396"/>
      <point x="720" y="396" type="curve" smooth="yes"/>
      <point x="743" y="396" type="line"/>
      <point x="706" y="557" type="line"/>
      <point x="602" y="557" type="line" smooth="yes"/>
      <point x="503" y="557"/>
      <point x="442" y="487"/>
      <point x="442" y="369" type="curve" smooth="yes"/>
      <point x="442" y="331" type="line"/>
      <point x="328" y="331" type="line"/>
      <point x="328" y="369" type="line" smooth="yes"/>
      <point x="328" y="487"/>
      <point x="267" y="557"/>
      <point x="168" y="557" type="curve" smooth="yes"/>
      <point x="64" y="557" type="line"/>
      <point x="27" y="396" type="line"/>
      <point x="50" y="396" type="line" smooth="yes"/>
      <point x="99" y="396"/>
      <point x="125" y="417"/>
      <point x="141" y="467" type="curve"/>
      <point x="149" y="467" type="line" smooth="yes"/>
      <point x="182" y="467"/>
      <point x="198" y="436"/>
      <point x="198" y="362" type="curve" smooth="yes"/>
    </contour>
    <contour>
      <point x="282" y="447" type="line"/>
      <point x="282" y="726" type="line"/>
      <point x="152" y="726" type="line"/>
      <point x="152" y="509" type="line"/>
    </contour>
    <component base="footshort" xScale="-1" yScale="-1" xOffset="428" yOffset="773"/>
  </outline>
</glyph>
<glyph name="ya.eth" format="2">
  <advance width="427"/>
  <unicode hex="12E8"/>
  <note>
uni12E8
</note>
  <anchor x="218" y="724" name="top"/>
  <outline>
    <contour>
      <point x="147" y="0" type="line"/>
      <point x="277" y="0" type="line"/>
      <point x="277" y="127" type="line" smooth="yes"/>
      <point x="277" y="202"/>
      <point x="273" y="266"/>
      <point x="251" y="318" type="curve"/>
      <point x="346" y="360"/>
      <point x="407" y="419"/>
      <point x="407" y="529" type="curve" smooth="yes"/>
      <point x="407" y="655"/>
      <point x="340" y="724"/>
      <point x="221" y="724" type="curve" smooth="yes"/>
      <point x="99" y="724"/>
      <point x="30" y="651"/>
      <point x="30" y="529" type="curve" smooth="yes"/>
      <point x="30" y="449"/>
      <point x="60" y="398"/>
      <point x="87" y="345" type="curve" smooth="yes"/>
      <point x="118" y="285"/>
      <point x="147" y="228"/>
      <point x="147" y="137" type="curve" smooth="yes"/>
    </contour>
    <contour>
      <point x="203" y="408" type="curve"/>
      <point x="180" y="443"/>
      <point x="167" y="485"/>
      <point x="167" y="533" type="curve" smooth="yes"/>
      <point x="167" y="591"/>
      <point x="186" y="622"/>
      <point x="221" y="622" type="curve" smooth="yes"/>
      <point x="262" y="622"/>
      <point x="274" y="579"/>
      <point x="274" y="537" type="curve" smooth="yes"/>
      <point x="274" y="461"/>
      <point x="235" y="425"/>
    </contour>
  </outline>
</glyph>
<glyph name="yi.eth" format="2">
  <advance width="590"/>
  <unicode hex="12EA"/>
  <note>
uni12EA
</note>
  <anchor x="307" y="724" name="top"/>
  <outline>
    <contour>
      <point x="565" y="-29" type="curve" smooth="yes"/>
      <point x="585" y="-29" type="line"/>
      <point x="548" y="132" type="line"/>
      <point x="381" y="132" type="line"/>
      <point x="381" y="42" type="line"/>
      <point x="471" y="42" type="line"/>
      <point x="488" y="-12"/>
      <point x="516" y="-29"/>
    </contour>
    <contour>
      <point x="238" y="135" type="line"/>
      <point x="367" y="135" type="line"/>
      <point x="367" y="225" type="line"/>
      <point x="238" y="225" type="line"/>
    </contour>
    <contour>
      <point x="351" y="42" type="line"/>
      <point x="462" y="42" type="line"/>
      <point x="462" y="314" type="line"/>
      <point x="351" y="314" type="line"/>
    </contour>
    <component base="ya.eth"/>
  </outline>
</glyph>
<glyph name="ye.eth" format="2">
  <advance width="613"/>
  <unicode hex="12ED"/>
  <note>
uni12ED
</note>
  <anchor x="304" y="725" name="top"/>
  <outline>
    <contour>
      <point x="393" y="0" type="curve" smooth="yes"/>
      <point x="535" y="0"/>
      <point x="598" y="92"/>
      <point x="598" y="248" type="curve" smooth="yes"/>
      <point x="598" y="287" type="line"/>
      <point x="468" y="287" type="line"/>
      <point x="468" y="224" type="line" smooth="yes"/>
      <point x="468" y="152"/>
      <point x="449" y="105"/>
      <point x="398" y="105" type="curve" smooth="yes"/>
      <point x="316" y="105"/>
      <point x="256" y="227"/>
      <point x="241" y="344" type="curve"/>
      <point x="389" y="344"/>
      <point x="489" y="420"/>
      <point x="489" y="557" type="curve" smooth="yes"/>
      <point x="489" y="649"/>
      <point x="444" y="725"/>
      <point x="309" y="725" type="curve" smooth="yes"/>
      <point x="173" y="725"/>
      <point x="101" y="647"/>
      <point x="101" y="453" type="curve" smooth="yes"/>
      <point x="101" y="214"/>
      <point x="211" y="0"/>
    </contour>
    <contour>
      <point x="173" y="0" type="line"/>
      <point x="397" y="0" type="line"/>
      <point x="311" y="90" type="line"/>
      <point x="173" y="90" type="line"/>
    </contour>
    <contour>
      <point x="231" y="444" type="curve"/>
      <point x="230" y="458"/>
      <point x="230" y="469"/>
      <point x="230" y="483" type="curve" smooth="yes"/>
      <point x="230" y="571"/>
      <point x="252" y="623"/>
      <point x="306" y="623" type="curve" smooth="yes"/>
      <point x="346" y="623"/>
      <point x="362" y="593"/>
      <point x="362" y="545" type="curve" smooth="yes"/>
      <point x="362" y="465"/>
      <point x="318" y="445"/>
    </contour>
    <component base="leftsingleflag" xOffset="5" yOffset="-321"/>
  </outline>
</glyph>
<glyph name="da.eth" format="2">
  <advance width="509"/>
  <unicode hex="12F0"/>
  <note>
uni12F0
</note>
  <anchor x="254" y="725" name="top"/>
  <outline>
    <contour>
      <point x="174" y="158" type="curve"/>
      <point x="320" y="158" type="line"/>
      <point x="286" y="205"/>
      <point x="252" y="275"/>
      <point x="245" y="344" type="curve"/>
      <point x="378" y="344"/>
      <point x="477" y="419"/>
      <point x="477" y="557" type="curve" smooth="yes"/>
      <point x="477" y="653"/>
      <point x="418" y="725"/>
      <point x="299" y="725" type="curve" smooth="yes"/>
      <point x="175" y="725"/>
      <point x="100" y="646"/>
      <point x="100" y="464" type="curve" smooth="yes"/>
      <point x="100" y="336"/>
      <point x="134" y="232"/>
    </contour>
    <contour>
      <point x="229" y="444" type="curve"/>
      <point x="229" y="455"/>
      <point x="229" y="469"/>
      <point x="229" y="483" type="curve" smooth="yes"/>
      <point x="229" y="571"/>
      <point x="256" y="623"/>
      <point x="302" y="623" type="curve" smooth="yes"/>
      <point x="337" y="623"/>
      <point x="349" y="593"/>
      <point x="349" y="555" type="curve" smooth="yes"/>
      <point x="349" y="478"/>
      <point x="299" y="445"/>
    </contour>
    <component base="footmiddle" yOffset="71"/>
  </outline>
</glyph>
<glyph name="daa.eth" format="2">
  <advance width="667"/>
  <unicode hex="12F3"/>
  <note>
uni12F3
</note>
  <anchor x="305" y="724" name="top"/>
  <outline>
    <contour>
      <point x="361" y="246" type="curve"/>
      <point x="491" y="287" type="line"/>
      <point x="385" y="295"/>
      <point x="295" y="387"/>
      <point x="295" y="519" type="curve" smooth="yes"/>
      <point x="295" y="579"/>
      <point x="314" y="619"/>
      <point x="351" y="619" type="curve" smooth="yes"/>
      <point x="380" y="619"/>
      <point x="393" y="594"/>
      <point x="393" y="556" type="curve" smooth="yes"/>
      <point x="393" y="492"/>
      <point x="355" y="439"/>
      <point x="282" y="439" type="curve"/>
      <point x="288" y="348" type="line"/>
      <point x="442" y="353"/>
      <point x="529" y="430"/>
      <point x="529" y="545" type="curve" smooth="yes"/>
      <point x="529" y="638"/>
      <point x="471" y="724"/>
      <point x="348" y="724" type="curve" smooth="yes"/>
      <point x="229" y="724"/>
      <point x="156" y="644"/>
      <point x="156" y="498" type="curve" smooth="yes"/>
      <point x="156" y="376"/>
      <point x="224" y="267"/>
    </contour>
    <contour>
      <point x="475" y="0" type="line"/>
      <point x="605" y="0" type="line"/>
      <point x="605" y="287" type="line"/>
      <point x="175" y="287" type="line"/>
      <point x="175" y="197" type="line"/>
      <point x="475" y="197" type="line"/>
    </contour>
    <component base="leftsingleflag" yOffset="-124"/>
  </outline>
</glyph>
<glyph name="dee.eth" format="2">
  <advance width="634"/>
  <unicode hex="12F4"/>
  <note>
uni12F4
</note>
  <anchor x="312" y="725" name="top"/>
  <outline>
    <contour>
      <point x="148" y="144" type="line"/>
      <point x="382" y="144" type="line"/>
      <point x="475" y="234" type="line"/>
      <point x="329" y="234" type="line"/>
      <point x="292" y="253"/>
      <point x="258" y="308"/>
      <point x="246" y="350" type="curve"/>
      <point x="394" y="350"/>
      <point x="470" y="442"/>
      <point x="470" y="547" type="curve" smooth="yes"/>
      <point x="470" y="652"/>
      <point x="412" y="725"/>
      <point x="300" y="725" type="curve" smooth="yes"/>
      <point x="161" y="725"/>
      <point x="93" y="646"/>
      <point x="93" y="488" type="curve" smooth="yes"/>
      <point x="93" y="372"/>
      <point x="132" y="284"/>
      <point x="173" y="234" type="curve"/>
      <point x="148" y="234" type="line"/>
    </contour>
    <contour>
      <point x="229" y="446" type="curve"/>
      <point x="226" y="462"/>
      <point x="224" y="475"/>
      <point x="224" y="496" type="curve" smooth="yes"/>
      <point x="224" y="576"/>
      <point x="248" y="623"/>
      <point x="291" y="623" type="curve" smooth="yes"/>
      <point x="326" y="623"/>
      <point x="342" y="593"/>
      <point x="342" y="550" type="curve" smooth="yes"/>
      <point x="342" y="483"/>
      <point x="305" y="447"/>
    </contour>
    <component base="ballsmall" xOffset="327" yOffset="-199"/>
    <component base="leftsingleflag" yOffset="-177"/>
  </outline>
</glyph>
<glyph name="do.eth" format="2">
  <advance width="589"/>
  <unicode hex="12F6"/>
  <note>
uni12F6
</note>
  <anchor x="294" y="724" name="top"/>
  <outline>
    <contour>
      <point x="343" y="246" type="curve"/>
      <point x="473" y="287" type="line"/>
      <point x="367" y="295"/>
      <point x="277" y="387"/>
      <point x="277" y="519" type="curve" smooth="yes"/>
      <point x="277" y="579"/>
      <point x="296" y="619"/>
      <point x="333" y="619" type="curve" smooth="yes"/>
      <point x="362" y="619"/>
      <point x="375" y="594"/>
      <point x="375" y="556" type="curve" smooth="yes"/>
      <point x="375" y="492"/>
      <point x="337" y="439"/>
      <point x="264" y="439" type="curve"/>
      <point x="270" y="348" type="line"/>
      <point x="424" y="353"/>
      <point x="511" y="430"/>
      <point x="511" y="545" type="curve" smooth="yes"/>
      <point x="511" y="638"/>
      <point x="453" y="724"/>
      <point x="330" y="724" type="curve" smooth="yes"/>
      <point x="211" y="724"/>
      <point x="138" y="644"/>
      <point x="138" y="497" type="curve" smooth="yes"/>
      <point x="138" y="393"/>
      <point x="206" y="267"/>
    </contour>
    <contour>
      <point x="5" y="0" type="line"/>
      <point x="129" y="0" type="line"/>
      <point x="129" y="105" type="line" smooth="yes"/>
      <point x="129" y="173"/>
      <point x="141" y="200"/>
      <point x="206" y="200" type="curve" smooth="yes"/>
      <point x="392" y="200" type="line"/>
      <point x="392" y="290" type="line"/>
      <point x="165" y="290" type="line" smooth="yes"/>
      <point x="69" y="290"/>
      <point x="5" y="226"/>
      <point x="5" y="108" type="curve" smooth="yes"/>
    </contour>
    <component base="rightsingleflag" xOffset="370" yOffset="-121"/>
  </outline>
</glyph>
<glyph name="dwa.eth" format="2">
  <advance width="649"/>
  <unicode hex="12F7"/>
  <note>
uni12F7
</note>
  <anchor x="324" y="724" name="top"/>
  <outline>
    <contour>
      <point x="306" y="248" type="curve"/>
      <point x="436" y="289" type="line"/>
      <point x="330" y="297"/>
      <point x="240" y="387"/>
      <point x="240" y="519" type="curve" smooth="yes"/>
      <point x="240" y="579"/>
      <point x="259" y="619"/>
      <point x="296" y="619" type="curve" smooth="yes"/>
      <point x="325" y="619"/>
      <point x="338" y="594"/>
      <point x="338" y="556" type="curve" smooth="yes"/>
      <point x="338" y="492"/>
      <point x="300" y="439"/>
      <point x="227" y="439" type="curve"/>
      <point x="233" y="348" type="line"/>
      <point x="387" y="353"/>
      <point x="474" y="430"/>
      <point x="474" y="545" type="curve" smooth="yes"/>
      <point x="474" y="638"/>
      <point x="416" y="724"/>
      <point x="293" y="724" type="curve" smooth="yes"/>
      <point x="174" y="724"/>
      <point x="101" y="644"/>
      <point x="101" y="514" type="curve" smooth="yes"/>
      <point x="101" y="376"/>
      <point x="169" y="269"/>
    </contour>
    <contour>
      <point x="371" y="0" type="line"/>
      <point x="501" y="0" type="line"/>
      <point x="501" y="290" type="line"/>
      <point x="202" y="290" type="line"/>
      <point x="202" y="200" type="line"/>
      <point x="371" y="200" type="line"/>
    </contour>
    <component base="leftsingleflag" yOffset="-121"/>
    <component base="footright" xOffset="172"/>
  </outline>
</glyph>
<glyph name="dda.eth" format="2">
  <advance width="509"/>
  <unicode hex="12F8"/>
  <note>
uni12F8
</note>
  <anchor x="254" y="778" name="top"/>
  <outline>
    <contour>
      <point x="159" y="157" type="curve"/>
      <point x="305" y="157" type="line"/>
      <point x="282" y="192"/>
      <point x="263" y="238"/>
      <point x="251" y="284" type="curve"/>
      <point x="393" y="290"/>
      <point x="461" y="371"/>
      <point x="461" y="484" type="curve" smooth="yes"/>
      <point x="461" y="583"/>
      <point x="408" y="657"/>
      <point x="292" y="657" type="curve" smooth="yes"/>
      <point x="163" y="657"/>
      <point x="97" y="565"/>
      <point x="97" y="414" type="curve" smooth="yes"/>
      <point x="97" y="297"/>
      <point x="132" y="216"/>
    </contour>
    <contour>
      <point x="230" y="384" type="curve"/>
      <point x="229" y="396"/>
      <point x="228" y="412"/>
      <point x="228" y="430" type="curve" smooth="yes"/>
      <point x="228" y="507"/>
      <point x="243" y="555"/>
      <point x="287" y="555" type="curve" smooth="yes"/>
      <point x="320" y="555"/>
      <point x="332" y="527"/>
      <point x="332" y="485" type="curve" smooth="yes"/>
      <point x="332" y="428"/>
      <point x="305" y="385"/>
    </contour>
    <contour>
      <point x="217" y="613" type="line"/>
      <point x="347" y="613" type="line"/>
      <point x="347" y="778" type="line"/>
      <point x="217" y="778" type="line"/>
    </contour>
    <component base="footmiddle" yOffset="70"/>
  </outline>
</glyph>
<glyph name="ddaa.eth" format="2">
  <advance width="682"/>
  <unicode hex="12FB"/>
  <note>
uni12FB
</note>
  <anchor x="303" y="788" name="top"/>
  <outline>
    <contour>
      <point x="356" y="214" type="curve"/>
      <point x="489" y="249" type="line"/>
      <point x="385" y="255"/>
      <point x="292" y="357"/>
      <point x="292" y="472" type="curve" smooth="yes"/>
      <point x="292" y="526"/>
      <point x="307" y="560"/>
      <point x="343" y="560" type="curve" smooth="yes"/>
      <point x="371" y="560"/>
      <point x="389" y="534"/>
      <point x="389" y="496" type="curve" smooth="yes"/>
      <point x="389" y="434"/>
      <point x="354" y="397"/>
      <point x="279" y="397" type="curve"/>
      <point x="285" y="306" type="line"/>
      <point x="447" y="311"/>
      <point x="526" y="386"/>
      <point x="526" y="496" type="curve" smooth="yes"/>
      <point x="526" y="583"/>
      <point x="464" y="665"/>
      <point x="350" y="665" type="curve" smooth="yes"/>
      <point x="226" y="665"/>
      <point x="153" y="586"/>
      <point x="153" y="472" type="curve" smooth="yes"/>
      <point x="153" y="349"/>
      <point x="219" y="236"/>
    </contour>
    <contour>
      <point x="472" y="0" type="line"/>
      <point x="602" y="0" type="line"/>
      <point x="602" y="254" type="line"/>
      <point x="172" y="254" type="line"/>
      <point x="172" y="164" type="line"/>
      <point x="472" y="164" type="line"/>
    </contour>
    <contour>
      <point x="284" y="610" type="line"/>
      <point x="414" y="610" type="line"/>
      <point x="414" y="788" type="line"/>
      <point x="284" y="788" type="line"/>
    </contour>
    <component base="leftsingleflag" yOffset="-157"/>
  </outline>
</glyph>
<glyph name="ddee.eth" format="2">
  <advance width="618"/>
  <unicode hex="12FC"/>
  <note>
uni12FC
</note>
  <anchor x="304" y="788" name="top"/>
  <outline>
    <contour>
      <point x="175" y="232" type="curve"/>
      <point x="332" y="232" type="line"/>
      <point x="294" y="250"/>
      <point x="265" y="288"/>
      <point x="253" y="322" type="curve"/>
      <point x="388" y="322"/>
      <point x="464" y="409"/>
      <point x="464" y="509" type="curve" smooth="yes"/>
      <point x="464" y="606"/>
      <point x="405" y="679"/>
      <point x="298" y="679" type="curve" smooth="yes"/>
      <point x="156" y="679"/>
      <point x="94" y="593"/>
      <point x="94" y="446" type="curve" smooth="yes"/>
      <point x="94" y="338"/>
      <point x="143" y="271"/>
    </contour>
    <contour>
      <point x="159" y="144" type="line"/>
      <point x="417" y="144" type="line"/>
      <point x="465" y="234" type="line"/>
      <point x="159" y="234" type="line"/>
    </contour>
    <contour>
      <point x="231" y="415" type="curve"/>
      <point x="231" y="428"/>
      <point x="229" y="441"/>
      <point x="229" y="458" type="curve" smooth="yes"/>
      <point x="229" y="529"/>
      <point x="249" y="576"/>
      <point x="292" y="576" type="curve" smooth="yes"/>
      <point x="323" y="576"/>
      <point x="336" y="548"/>
      <point x="336" y="513" type="curve" smooth="yes"/>
      <point x="336" y="454"/>
      <point x="301" y="416"/>
    </contour>
    <contour>
      <point x="229" y="642" type="line"/>
      <point x="359" y="642" type="line"/>
      <point x="359" y="788" type="line"/>
      <point x="229" y="788" type="line"/>
    </contour>
    <component base="ballsmall" xOffset="311" yOffset="-199"/>
    <component base="leftsingleflag" yOffset="-177"/>
  </outline>
</glyph>
<glyph name="ddo.eth" format="2">
  <advance width="579"/>
  <unicode hex="12FE"/>
  <note>
uni12FE
</note>
  <anchor x="289" y="768" name="top"/>
  <outline>
    <contour>
      <point x="343" y="149" type="curve"/>
      <point x="473" y="190" type="line"/>
      <point x="367" y="198"/>
      <point x="277" y="290"/>
      <point x="277" y="422" type="curve" smooth="yes"/>
      <point x="277" y="482"/>
      <point x="296" y="522"/>
      <point x="333" y="522" type="curve" smooth="yes"/>
      <point x="362" y="522"/>
      <point x="375" y="497"/>
      <point x="375" y="459" type="curve" smooth="yes"/>
      <point x="375" y="395"/>
      <point x="337" y="342"/>
      <point x="264" y="342" type="curve"/>
      <point x="270" y="251" type="line"/>
      <point x="424" y="256"/>
      <point x="511" y="333"/>
      <point x="511" y="448" type="curve" smooth="yes"/>
      <point x="511" y="541"/>
      <point x="453" y="627"/>
      <point x="330" y="627" type="curve" smooth="yes"/>
      <point x="211" y="627"/>
      <point x="138" y="547"/>
      <point x="138" y="400" type="curve" smooth="yes"/>
      <point x="138" y="296"/>
      <point x="206" y="170"/>
    </contour>
    <contour>
      <point x="5" y="0" type="line"/>
      <point x="129" y="0" type="line"/>
      <point x="129" y="28" type="line" smooth="yes"/>
      <point x="129" y="82"/>
      <point x="141" y="103"/>
      <point x="206" y="103" type="curve" smooth="yes"/>
      <point x="392" y="103" type="line"/>
      <point x="392" y="193" type="line"/>
      <point x="165" y="193" type="line" smooth="yes"/>
      <point x="69" y="193"/>
      <point x="5" y="148"/>
      <point x="5" y="43" type="curve" smooth="yes"/>
    </contour>
    <contour>
      <point x="263" y="603" type="line"/>
      <point x="393" y="603" type="line"/>
      <point x="393" y="768" type="line"/>
      <point x="263" y="768" type="line"/>
    </contour>
    <component base="rightsingleflag" xOffset="360" yOffset="-218"/>
  </outline>
</glyph>
<glyph name="ddwa.eth" format="2">
  <advance width="688"/>
  <unicode hex="12FF"/>
  <note>
uni12FF
</note>
  <anchor x="344" y="788" name="top"/>
  <outline>
    <contour>
      <point x="333" y="214" type="curve"/>
      <point x="466" y="249" type="line"/>
      <point x="362" y="255"/>
      <point x="269" y="357"/>
      <point x="269" y="472" type="curve" smooth="yes"/>
      <point x="269" y="526"/>
      <point x="284" y="560"/>
      <point x="320" y="560" type="curve" smooth="yes"/>
      <point x="348" y="560"/>
      <point x="366" y="534"/>
      <point x="366" y="496" type="curve" smooth="yes"/>
      <point x="366" y="434"/>
      <point x="331" y="397"/>
      <point x="256" y="397" type="curve"/>
      <point x="262" y="306" type="line"/>
      <point x="424" y="311"/>
      <point x="503" y="386"/>
      <point x="503" y="496" type="curve" smooth="yes"/>
      <point x="503" y="583"/>
      <point x="441" y="665"/>
      <point x="327" y="665" type="curve" smooth="yes"/>
      <point x="203" y="665"/>
      <point x="130" y="586"/>
      <point x="130" y="472" type="curve" smooth="yes"/>
      <point x="130" y="349"/>
      <point x="196" y="236"/>
    </contour>
    <contour>
      <point x="419" y="0" type="line"/>
      <point x="549" y="0" type="line"/>
      <point x="549" y="254" type="line"/>
      <point x="149" y="254" type="line"/>
      <point x="149" y="164" type="line"/>
      <point x="419" y="164" type="line"/>
    </contour>
    <contour>
      <point x="261" y="610" type="line"/>
      <point x="391" y="610" type="line"/>
      <point x="391" y="788" type="line"/>
      <point x="261" y="788" type="line"/>
    </contour>
    <component base="footright" xOffset="211"/>
    <component base="leftsingleflag" yOffset="-157"/>
  </outline>
</glyph>
<glyph name="ja.eth" format="2">
  <advance width="516"/>
  <unicode hex="1300"/>
  <note>
uni1300
</note>
  <anchor x="258" y="831" name="top"/>
  <outline>
    <contour>
      <point x="142" y="156" type="curve"/>
      <point x="286" y="156" type="line"/>
      <point x="265" y="191"/>
      <point x="246" y="233"/>
      <point x="233" y="270" type="curve"/>
      <point x="374" y="275"/>
      <point x="440" y="352"/>
      <point x="440" y="457" type="curve" smooth="yes"/>
      <point x="440" y="549"/>
      <point x="388" y="621"/>
      <point x="275" y="621" type="curve" smooth="yes"/>
      <point x="146" y="621"/>
      <point x="78" y="537"/>
      <point x="78" y="407" type="curve" smooth="yes"/>
      <point x="78" y="284"/>
      <point x="115" y="206"/>
    </contour>
    <contour>
      <point x="212" y="370" type="curve"/>
      <point x="211" y="382"/>
      <point x="210" y="397"/>
      <point x="210" y="411" type="curve" smooth="yes"/>
      <point x="210" y="476"/>
      <point x="224" y="518"/>
      <point x="266" y="518" type="curve" smooth="yes"/>
      <point x="298" y="518"/>
      <point x="311" y="493"/>
      <point x="311" y="465" type="curve" smooth="yes"/>
      <point x="311" y="402"/>
      <point x="280" y="370"/>
    </contour>
    <contour>
      <point x="193" y="576" type="line"/>
      <point x="323" y="576" type="line"/>
      <point x="323" y="733" type="line"/>
      <point x="193" y="733" type="line"/>
    </contour>
    <component base="footmiddle" yOffset="71"/>
    <component base="bonemiddle" yOffset="-8"/>
  </outline>
</glyph>
<glyph name="jee.eth" format="2">
  <advance width="699"/>
  <unicode hex="1304"/>
  <note>
uni1304
</note>
  <anchor x="345" y="829" name="top"/>
  <outline>
    <contour>
      <point x="356" y="182" type="curve"/>
      <point x="489" y="218" type="line"/>
      <point x="383" y="224"/>
      <point x="292" y="324"/>
      <point x="292" y="427" type="curve" smooth="yes"/>
      <point x="292" y="472"/>
      <point x="309" y="508"/>
      <point x="347" y="508" type="curve" smooth="yes"/>
      <point x="380" y="508"/>
      <point x="389" y="481"/>
      <point x="389" y="455" type="curve" smooth="yes"/>
      <point x="389" y="401"/>
      <point x="350" y="365"/>
      <point x="279" y="365" type="curve"/>
      <point x="285" y="274" type="line"/>
      <point x="447" y="280"/>
      <point x="526" y="355"/>
      <point x="526" y="450" type="curve" smooth="yes"/>
      <point x="526" y="531"/>
      <point x="469" y="613"/>
      <point x="344" y="613" type="curve" smooth="yes"/>
      <point x="224" y="613"/>
      <point x="153" y="538"/>
      <point x="153" y="421" type="curve" smooth="yes"/>
      <point x="153" y="312"/>
      <point x="215" y="204"/>
    </contour>
    <contour>
      <point x="172" y="133" type="line"/>
      <point x="472" y="133" type="line"/>
      <point x="537" y="223" type="line"/>
      <point x="172" y="223" type="line"/>
    </contour>
    <contour>
      <point x="280" y="558" type="line"/>
      <point x="410" y="558" type="line"/>
      <point x="410" y="728" type="line"/>
      <point x="280" y="728" type="line"/>
    </contour>
    <component base="ballsmall" xOffset="392" yOffset="-210"/>
    <component base="leftsingleflag" yOffset="-188"/>
    <component base="bonelong" xOffset="59" yOffset="-10"/>
  </outline>
</glyph>
<glyph name="jo.eth" format="2">
  <advance width="597"/>
  <unicode hex="1306"/>
  <note>
uni1306
</note>
  <anchor x="298" y="830" name="top"/>
  <outline>
    <contour>
      <point x="329" y="183" type="curve"/>
      <point x="462" y="219" type="line"/>
      <point x="356" y="225"/>
      <point x="265" y="325"/>
      <point x="265" y="428" type="curve" smooth="yes"/>
      <point x="265" y="473"/>
      <point x="282" y="509"/>
      <point x="320" y="509" type="curve" smooth="yes"/>
      <point x="353" y="509"/>
      <point x="362" y="482"/>
      <point x="362" y="456" type="curve" smooth="yes"/>
      <point x="362" y="402"/>
      <point x="323" y="366"/>
      <point x="252" y="366" type="curve"/>
      <point x="258" y="275" type="line"/>
      <point x="420" y="281"/>
      <point x="499" y="356"/>
      <point x="499" y="451" type="curve" smooth="yes"/>
      <point x="499" y="532"/>
      <point x="442" y="614"/>
      <point x="317" y="614" type="curve" smooth="yes"/>
      <point x="197" y="614"/>
      <point x="126" y="539"/>
      <point x="126" y="422" type="curve" smooth="yes"/>
      <point x="126" y="313"/>
      <point x="188" y="205"/>
    </contour>
    <contour>
      <point x="5" y="0" type="line"/>
      <point x="129" y="0" type="line"/>
      <point x="129" y="54" type="line" smooth="yes"/>
      <point x="129" y="108"/>
      <point x="141" y="129"/>
      <point x="206" y="129" type="curve" smooth="yes"/>
      <point x="392" y="129" type="line"/>
      <point x="392" y="219" type="line"/>
      <point x="165" y="219" type="line" smooth="yes"/>
      <point x="69" y="219"/>
      <point x="5" y="174"/>
      <point x="5" y="69" type="curve" smooth="yes"/>
    </contour>
    <contour>
      <point x="253" y="559" type="line"/>
      <point x="383" y="559" type="line"/>
      <point x="383" y="729" type="line"/>
      <point x="253" y="729" type="line"/>
    </contour>
    <component base="bonelong" xOffset="28" yOffset="-9"/>
    <component base="rightsingleflag" xOffset="371" yOffset="-192"/>
  </outline>
</glyph>
<glyph name="jwa.eth" format="2">
  <advance width="754"/>
  <unicode hex="1307"/>
  <note>
uni1307
</note>
  <anchor x="377" y="830" name="top"/>
  <outline>
    <contour>
      <point x="356" y="183" type="curve"/>
      <point x="489" y="219" type="line"/>
      <point x="383" y="225"/>
      <point x="292" y="325"/>
      <point x="292" y="428" type="curve" smooth="yes"/>
      <point x="292" y="473"/>
      <point x="309" y="509"/>
      <point x="347" y="509" type="curve" smooth="yes"/>
      <point x="380" y="509"/>
      <point x="389" y="482"/>
      <point x="389" y="456" type="curve" smooth="yes"/>
      <point x="389" y="402"/>
      <point x="350" y="366"/>
      <point x="279" y="366" type="curve"/>
      <point x="285" y="275" type="line"/>
      <point x="447" y="281"/>
      <point x="526" y="356"/>
      <point x="526" y="451" type="curve" smooth="yes"/>
      <point x="526" y="532"/>
      <point x="469" y="614"/>
      <point x="344" y="614" type="curve" smooth="yes"/>
      <point x="224" y="614"/>
      <point x="153" y="539"/>
      <point x="153" y="422" type="curve" smooth="yes"/>
      <point x="153" y="313"/>
      <point x="215" y="205"/>
    </contour>
    <contour>
      <point x="462" y="0" type="line"/>
      <point x="592" y="0" type="line"/>
      <point x="592" y="224" type="line"/>
      <point x="172" y="224" type="line"/>
      <point x="172" y="134" type="line"/>
      <point x="462" y="134" type="line"/>
    </contour>
    <contour>
      <point x="280" y="559" type="line"/>
      <point x="410" y="559" type="line"/>
      <point x="410" y="729" type="line"/>
      <point x="280" y="729" type="line"/>
    </contour>
    <component base="footright" xOffset="277"/>
    <component base="leftsingleflag" yOffset="-187"/>
    <component base="bonelong" xOffset="56" yOffset="-9"/>
  </outline>
</glyph>
<glyph name="ga.eth" format="2">
  <advance width="512"/>
  <unicode hex="1308"/>
  <note>
uni1308
</note>
  <anchor x="220" y="714" name="top"/>
  <outline>
    <contour>
      <point x="305" y="0" type="line"/>
      <point x="435" y="0" type="line"/>
      <point x="435" y="373" type="line" smooth="yes"/>
      <point x="435" y="621"/>
      <point x="357" y="714"/>
      <point x="142" y="714" type="curve" smooth="yes"/>
      <point x="42" y="714" type="line"/>
      <point x="5" y="553" type="line"/>
      <point x="25" y="553" type="line" smooth="yes"/>
      <point x="82" y="553"/>
      <point x="104" y="577"/>
      <point x="119" y="624" type="curve"/>
      <point x="127" y="624" type="line" smooth="yes"/>
      <point x="250" y="624"/>
      <point x="305" y="568"/>
      <point x="305" y="339" type="curve" smooth="yes"/>
    </contour>
  </outline>
</glyph>
<glyph name="gaa.eth" format="2">
  <advance width="517"/>
  <unicode hex="130B"/>
  <note>
uni130B
</note>
  <anchor x="222" y="714" name="top"/>
  <outline>
    <contour>
      <point x="5" y="-71" type="line"/>
      <point x="30" y="-71" type="line" smooth="yes"/>
      <point x="78" y="-71"/>
      <point x="104" y="-47"/>
      <point x="119" y="0" type="curve"/>
      <point x="208" y="0" type="line" smooth="yes"/>
      <point x="381" y="0"/>
      <point x="440" y="83"/>
      <point x="440" y="244" type="curve" smooth="yes"/>
      <point x="440" y="373" type="line" smooth="yes"/>
      <point x="440" y="621"/>
      <point x="362" y="714"/>
      <point x="147" y="714" type="curve" smooth="yes"/>
      <point x="44" y="714" type="line"/>
      <point x="7" y="553" type="line"/>
      <point x="31" y="553" type="line" smooth="yes"/>
      <point x="80" y="553"/>
      <point x="107" y="577"/>
      <point x="121" y="624" type="curve"/>
      <point x="127" y="624" type="line" smooth="yes"/>
      <point x="250" y="624"/>
      <point x="310" y="568"/>
      <point x="310" y="344" type="curve" smooth="yes"/>
      <point x="310" y="244" type="line" smooth="yes"/>
      <point x="310" y="132"/>
      <point x="283" y="90"/>
      <point x="193" y="90" type="curve" smooth="yes"/>
      <point x="42" y="90" type="line"/>
    </contour>
  </outline>
</glyph>
<glyph name="ge.eth" format="2">
	<advance width="632"/>
	<unicode hex="130D"/>
	<anchor x="286" y="714" name="top"/>
	<note>
		uni130D
	</note>
	<outline>
		<contour>
			<point x="425" y="0" type="line"/>
			<point x="555" y="0" type="line"/>
			<point x="555" y="373" type="line" smooth="yes"/>
			<point x="555" y="621"/>
			<point x="474" y="714"/>
			<point x="259" y="714" type="curve" smooth="yes"/>
			<point x="172" y="714" type="line"/>
			<point x="254" y="628" type="line"/>
			<point x="281" y="628" type="line" smooth="yes"/>
			<point x="392" y="628"/>
			<point x="425" y="568"/>
			<point x="425" y="339" type="curve" smooth="yes"/>
		</contour>
		<component base="ballbig" yOffset="266"/>
	</outline>
</glyph>
<glyph name="go.eth" format="2">
  <advance width="512"/>
  <unicode hex="130E"/>
  <note>
uni130E
</note>
  <anchor x="220" y="760" name="top"/>
  <outline>
    <contour>
      <point x="305" y="0" type="line"/>
      <point x="435" y="0" type="line"/>
      <point x="435" y="278" type="line" smooth="yes"/>
      <point x="435" y="525"/>
      <point x="357" y="619"/>
      <point x="142" y="619" type="curve" smooth="yes"/>
      <point x="42" y="619" type="line"/>
      <point x="5" y="458" type="line"/>
      <point x="23" y="458" type="line" smooth="yes"/>
      <point x="74" y="458"/>
      <point x="100" y="473"/>
      <point x="119" y="529" type="curve"/>
      <point x="127" y="529" type="line" smooth="yes"/>
      <point x="250" y="529"/>
      <point x="305" y="473"/>
      <point x="305" y="244" type="curve" smooth="yes"/>
    </contour>
    <contour>
      <point x="149" y="577" type="line"/>
      <point x="283" y="577" type="line"/>
      <point x="283" y="760" type="line"/>
      <point x="149" y="760" type="line"/>
    </contour>
  </outline>
</glyph>
<glyph name="goa.eth" format="2">
	<advance width="533"/>
	<unicode hex="130F"/>
	<anchor x="241" y="760" name="top"/>
	<note>
		uni130F
	</note>
	<outline>
		<contour>
			<point x="205" y="0" type="line"/>
			<point x="426" y="0" type="line"/>
			<point x="426" y="90" type="line"/>
			<point x="205" y="90" type="line"/>
		</contour>
		<component base="go.eth" xOffset="21"/>
		<component base="leftdoubleflag" xOffset="22"/>
	</outline>
</glyph>
<glyph name="gwi.eth" format="2">
  <advance width="754"/>
  <unicode hex="1312"/>
  <note>
uni1312
</note>
  <anchor x="377" y="714" name="top"/>
  <outline>
    <contour>
      <point x="729" y="204" type="curve" smooth="yes"/>
      <point x="749" y="204" type="line"/>
      <point x="712" y="365" type="line"/>
      <point x="545" y="365" type="line"/>
      <point x="545" y="275" type="line"/>
      <point x="635" y="275" type="line"/>
      <point x="652" y="221"/>
      <point x="680" y="204"/>
    </contour>
    <contour>
      <point x="402" y="368" type="line"/>
      <point x="531" y="368" type="line"/>
      <point x="531" y="458" type="line"/>
      <point x="402" y="458" type="line"/>
    </contour>
    <contour>
      <point x="515" y="275" type="line"/>
      <point x="626" y="275" type="line"/>
      <point x="626" y="547" type="line"/>
      <point x="515" y="547" type="line"/>
    </contour>
    <component base="ga.eth"/>
  </outline>
</glyph>
<glyph name="gwaa.eth" format="2">
  <advance width="512"/>
  <unicode hex="1313"/>
  <note>
uni1313
</note>
  <anchor x="220" y="714" name="top"/>
  <outline>
    <contour>
      <point x="305" y="0" type="line"/>
      <point x="435" y="0" type="line"/>
      <point x="435" y="111" type="line" smooth="yes"/>
      <point x="435" y="360"/>
      <point x="357" y="451"/>
      <point x="142" y="451" type="curve" smooth="yes"/>
      <point x="42" y="451" type="line"/>
      <point x="5" y="290" type="line"/>
      <point x="31" y="290" type="line" smooth="yes"/>
      <point x="66" y="290"/>
      <point x="103" y="304"/>
      <point x="119" y="361" type="curve"/>
      <point x="127" y="361" type="line" smooth="yes"/>
      <point x="262" y="361"/>
      <point x="305" y="302"/>
      <point x="305" y="77" type="curve" smooth="yes"/>
    </contour>
    <contour>
      <point x="204" y="392" type="line"/>
      <point x="338" y="392" type="line"/>
      <point x="338" y="471" type="line" smooth="yes"/>
      <point x="338" y="658"/>
      <point x="268" y="714"/>
      <point x="129" y="714" type="curve" smooth="yes"/>
      <point x="42" y="714" type="line"/>
      <point x="5" y="553" type="line"/>
      <point x="29" y="553" type="line" smooth="yes"/>
      <point x="72" y="553"/>
      <point x="103" y="571"/>
      <point x="119" y="624" type="curve"/>
      <point x="123" y="624" type="line" smooth="yes"/>
      <point x="177" y="624"/>
      <point x="204" y="601"/>
      <point x="204" y="441" type="curve" smooth="yes"/>
    </contour>
  </outline>
</glyph>
<glyph name="gwe.eth" format="2">
  <advance width="760"/>
  <unicode hex="1315"/>
  <note>
uni1315
</note>
  <anchor x="380" y="714" name="top"/>
  <outline>
    <contour>
      <point x="522" y="340" type="line"/>
      <point x="631" y="340" type="line"/>
      <point x="631" y="600" type="line"/>
      <point x="522" y="600" type="line"/>
    </contour>
    <contour>
      <point x="400" y="340" type="line"/>
      <point x="579" y="340" type="line"/>
      <point x="579" y="430" type="line"/>
      <point x="400" y="430" type="line"/>
    </contour>
    <component base="ga.eth"/>
    <component base="rightsingleflag" xOffset="541" yOffset="19"/>
  </outline>
</glyph>
<glyph name="gga.eth" format="2">
  <advance width="542"/>
  <unicode hex="1318"/>
  <note>
uni1318
</note>
  <anchor x="235" y="780" name="top"/>
  <outline>
    <contour>
      <point x="316" y="0" type="line"/>
      <point x="446" y="0" type="line"/>
      <point x="446" y="170" type="line" smooth="yes"/>
      <point x="446" y="418"/>
      <point x="368" y="511"/>
      <point x="153" y="511" type="curve" smooth="yes"/>
      <point x="53" y="511" type="line"/>
      <point x="16" y="350" type="line"/>
      <point x="36" y="350" type="line" smooth="yes"/>
      <point x="93" y="350"/>
      <point x="115" y="374"/>
      <point x="130" y="421" type="curve"/>
      <point x="138" y="421" type="line" smooth="yes"/>
      <point x="261" y="421"/>
      <point x="316" y="365"/>
      <point x="316" y="136" type="curve" smooth="yes"/>
    </contour>
    <contour>
      <point x="173" y="470" type="line"/>
      <point x="303" y="470" type="line"/>
      <point x="303" y="663" type="line"/>
      <point x="173" y="663" type="line"/>
    </contour>
    <component base="bone" yOffset="-59"/>
  </outline>
</glyph>
<glyph name="ggaa.eth" format="2">
  <advance width="542"/>
  <unicode hex="131B"/>
  <note>
uni131B
</note>
  <anchor x="235" y="780" name="top"/>
  <outline>
    <contour>
      <point x="17" y="-71" type="line"/>
      <point x="42" y="-71" type="line" smooth="yes"/>
      <point x="90" y="-71"/>
      <point x="116" y="-47"/>
      <point x="131" y="0" type="curve"/>
      <point x="220" y="0" type="line" smooth="yes"/>
      <point x="393" y="0"/>
      <point x="452" y="83"/>
      <point x="452" y="244" type="curve" smooth="yes"/>
      <point x="452" y="267" type="line" smooth="yes"/>
      <point x="452" y="453"/>
      <point x="374" y="516"/>
      <point x="159" y="516" type="curve" smooth="yes"/>
      <point x="56" y="516" type="line"/>
      <point x="29" y="344" type="line"/>
      <point x="53" y="344" type="line" smooth="yes"/>
      <point x="105" y="344"/>
      <point x="131" y="373"/>
      <point x="149" y="430" type="curve"/>
      <point x="155" y="430" type="line" smooth="yes"/>
      <point x="278" y="430"/>
      <point x="322" y="393"/>
      <point x="322" y="256" type="curve" smooth="yes"/>
      <point x="322" y="244" type="line" smooth="yes"/>
      <point x="322" y="132"/>
      <point x="295" y="90"/>
      <point x="205" y="90" type="curve" smooth="yes"/>
      <point x="54" y="90" type="line"/>
    </contour>
    <contour>
      <point x="174" y="470" type="line"/>
      <point x="304" y="470" type="line"/>
      <point x="304" y="663" type="line"/>
      <point x="174" y="663" type="line"/>
    </contour>
    <component base="bone" yOffset="-59"/>
  </outline>
</glyph>
<glyph name="gge.eth" format="2">
  <advance width="626"/>
  <unicode hex="131D"/>
  <note>
uni131D
</note>
  <anchor x="277" y="780" name="top"/>
  <outline>
    <contour>
      <point x="419" y="0" type="line"/>
      <point x="549" y="0" type="line"/>
      <point x="549" y="185" type="line" smooth="yes"/>
      <point x="549" y="433"/>
      <point x="468" y="526"/>
      <point x="253" y="526" type="curve" smooth="yes"/>
      <point x="166" y="526" type="line"/>
      <point x="248" y="440" type="line"/>
      <point x="275" y="440" type="line" smooth="yes"/>
      <point x="386" y="440"/>
      <point x="419" y="380"/>
      <point x="419" y="151" type="curve" smooth="yes"/>
    </contour>
    <contour>
      <point x="194" y="484" type="line"/>
      <point x="324" y="484" type="line"/>
      <point x="324" y="663" type="line"/>
      <point x="194" y="663" type="line"/>
    </contour>
    <component base="bonemiddle" yOffset="-59"/>
    <component base="ballbig" xOffset="2" yOffset="78"/>
  </outline>
</glyph>
<glyph name="ggo.eth" format="2">
  <advance width="569"/>
  <unicode hex="131E"/>
  <note>
uni131E
</note>
  <anchor x="284" y="861" name="top"/>
  <outline>
    <contour>
      <point x="351" y="0" type="line"/>
      <point x="481" y="0" type="line"/>
      <point x="481" y="118" type="line" smooth="yes"/>
      <point x="481" y="365"/>
      <point x="403" y="459"/>
      <point x="188" y="459" type="curve" smooth="yes"/>
      <point x="88" y="459" type="line"/>
      <point x="51" y="298" type="line"/>
      <point x="69" y="298" type="line" smooth="yes"/>
      <point x="120" y="298"/>
      <point x="146" y="313"/>
      <point x="165" y="369" type="curve"/>
      <point x="173" y="369" type="line" smooth="yes"/>
      <point x="296" y="369"/>
      <point x="351" y="313"/>
      <point x="351" y="84" type="curve" smooth="yes"/>
    </contour>
    <contour>
      <point x="218" y="383" type="line"/>
      <point x="348" y="383" type="line"/>
      <point x="348" y="459" type="line" smooth="yes"/>
      <point x="348" y="477"/>
      <point x="354" y="492"/>
      <point x="367" y="503" type="curve" smooth="yes"/>
      <point x="404" y="535"/>
      <point x="441" y="568"/>
      <point x="441" y="642" type="curve" smooth="yes"/>
      <point x="441" y="718"/>
      <point x="390" y="773"/>
      <point x="285" y="773" type="curve" smooth="yes"/>
      <point x="194" y="773"/>
      <point x="127" y="719"/>
      <point x="127" y="633" type="curve" smooth="yes"/>
      <point x="127" y="554"/>
      <point x="171" y="511"/>
      <point x="227" y="500" type="curve"/>
      <point x="222" y="487"/>
      <point x="218" y="472"/>
      <point x="218" y="456" type="curve" smooth="yes"/>
    </contour>
    <contour>
      <point x="285" y="563" type="curve"/>
      <point x="255" y="581"/>
      <point x="237" y="603"/>
      <point x="237" y="639" type="curve" smooth="yes"/>
      <point x="237" y="668"/>
      <point x="252" y="692"/>
      <point x="285" y="692" type="curve" smooth="yes"/>
      <point x="316" y="692"/>
      <point x="332" y="668"/>
      <point x="332" y="640" type="curve" smooth="yes"/>
      <point x="332" y="612"/>
      <point x="319" y="586"/>
    </contour>
    <component base="bonelong" yOffset="22"/>
  </outline>
</glyph>
<glyph name="tha.eth" format="2">
  <advance width="893"/>
  <unicode hex="1320"/>
  <note>
uni1320
</note>
  <anchor x="438" y="714" name="top"/>
  <outline>
    <contour>
      <point x="60" y="0" type="line"/>
      <point x="190" y="0" type="line"/>
      <point x="190" y="363" type="line" smooth="yes"/>
      <point x="190" y="513"/>
      <point x="245" y="599"/>
      <point x="349" y="599" type="curve" smooth="yes"/>
      <point x="357" y="599"/>
      <point x="366" y="599"/>
      <point x="373" y="599" type="curve"/>
      <point x="373" y="0" type="line"/>
      <point x="503" y="0" type="line"/>
      <point x="503" y="562" type="line"/>
      <point x="518" y="582"/>
      <point x="550" y="600"/>
      <point x="588" y="600" type="curve" smooth="yes"/>
      <point x="666" y="600"/>
      <point x="686" y="543"/>
      <point x="686" y="426" type="curve" smooth="yes"/>
      <point x="686" y="0" type="line"/>
      <point x="816" y="0" type="line"/>
      <point x="816" y="461" type="line" smooth="yes"/>
      <point x="816" y="620"/>
      <point x="771" y="714"/>
      <point x="627" y="714" type="curve" smooth="yes"/>
      <point x="562" y="714"/>
      <point x="522" y="689"/>
      <point x="503" y="668" type="curve"/>
      <point x="503" y="714" type="line"/>
      <point x="351" y="714" type="line" smooth="yes"/>
      <point x="177" y="714"/>
      <point x="60" y="620"/>
      <point x="60" y="368" type="curve" smooth="yes"/>
    </contour>
  </outline>
</glyph>
<glyph name="the.eth" format="2">
  <advance width="912"/>
  <unicode hex="1325"/>
  <note>
uni1325
</note>
  <anchor x="447" y="714" name="top"/>
  <outline>
    <contour>
      <point x="422" y="0" type="line"/>
      <point x="552" y="0" type="line"/>
      <point x="552" y="438" type="line"/>
      <point x="476" y="438" type="line"/>
      <point x="476" y="543" type="line"/>
      <point x="492" y="565"/>
      <point x="530" y="600"/>
      <point x="587" y="600" type="curve" smooth="yes"/>
      <point x="665" y="600"/>
      <point x="702" y="538"/>
      <point x="702" y="421" type="curve" smooth="yes"/>
      <point x="702" y="232" type="line"/>
      <point x="835" y="232" type="line"/>
      <point x="835" y="456" type="line" smooth="yes"/>
      <point x="835" y="615"/>
      <point x="784" y="714"/>
      <point x="630" y="714" type="curve" smooth="yes"/>
      <point x="545" y="714"/>
      <point x="496" y="677"/>
      <point x="476" y="656" type="curve"/>
      <point x="476" y="714" type="line"/>
      <point x="318" y="714" type="line" smooth="yes"/>
      <point x="169" y="714"/>
      <point x="60" y="619"/>
      <point x="60" y="384" type="curve" smooth="yes"/>
      <point x="60" y="232" type="line"/>
      <point x="190" y="232" type="line"/>
      <point x="190" y="379" type="line" smooth="yes"/>
      <point x="190" y="520"/>
      <point x="237" y="599"/>
      <point x="319" y="599" type="curve" smooth="yes"/>
      <point x="327" y="599"/>
      <point x="339" y="599"/>
      <point x="346" y="599" type="curve"/>
      <point x="346" y="335" type="line"/>
      <point x="422" y="335" type="line"/>
    </contour>
  </outline>
</glyph>
<glyph name="tho.eth" format="2">
  <advance width="889"/>
  <unicode hex="1326"/>
  <note>
uni1326
</note>
  <anchor x="436" y="714" name="top"/>
  <outline>
    <contour>
      <point x="60" y="0" type="line"/>
      <point x="190" y="0" type="line"/>
      <point x="190" y="363" type="line" smooth="yes"/>
      <point x="190" y="512"/>
      <point x="245" y="598"/>
      <point x="347" y="598" type="curve" smooth="yes"/>
      <point x="355" y="598"/>
      <point x="364" y="598"/>
      <point x="371" y="598" type="curve"/>
      <point x="371" y="238" type="line"/>
      <point x="501" y="238" type="line"/>
      <point x="501" y="561" type="line"/>
      <point x="516" y="581"/>
      <point x="548" y="599"/>
      <point x="585" y="599" type="curve" smooth="yes"/>
      <point x="662" y="599"/>
      <point x="682" y="543"/>
      <point x="682" y="426" type="curve" smooth="yes"/>
      <point x="682" y="238" type="line"/>
      <point x="812" y="238" type="line"/>
      <point x="812" y="461" type="line" smooth="yes"/>
      <point x="812" y="620"/>
      <point x="777" y="714"/>
      <point x="624" y="714" type="curve" smooth="yes"/>
      <point x="560" y="714"/>
      <point x="520" y="689"/>
      <point x="501" y="668" type="curve"/>
      <point x="501" y="714" type="line"/>
      <point x="348" y="714" type="line" smooth="yes"/>
      <point x="177" y="714"/>
      <point x="60" y="620"/>
      <point x="60" y="368" type="curve" smooth="yes"/>
    </contour>
  </outline>
</glyph>
<glyph name="che.eth" format="2">
  <advance width="1028"/>
  <unicode hex="132D"/>
  <note>
uni132D
</note>
  <anchor x="538" y="714" name="top"/>
  <outline>
    <contour>
      <point x="60" y="220" type="line"/>
      <point x="190" y="220" type="line"/>
      <point x="190" y="374" type="line" smooth="yes"/>
      <point x="190" y="524"/>
      <point x="245" y="599"/>
      <point x="349" y="599" type="curve" smooth="yes"/>
      <point x="357" y="599"/>
      <point x="366" y="599"/>
      <point x="373" y="599" type="curve"/>
      <point x="373" y="339" type="line"/>
      <point x="503" y="339" type="line"/>
      <point x="503" y="562" type="line"/>
      <point x="523" y="582"/>
      <point x="567" y="600"/>
      <point x="612" y="600" type="curve" smooth="yes"/>
      <point x="697" y="600"/>
      <point x="726" y="555"/>
      <point x="726" y="448" type="curve" smooth="yes"/>
      <point x="726" y="220" type="line"/>
      <point x="856" y="220" type="line"/>
      <point x="856" y="461" type="line" smooth="yes"/>
      <point x="856" y="620"/>
      <point x="809" y="714"/>
      <point x="648" y="714" type="curve" smooth="yes"/>
      <point x="576" y="714"/>
      <point x="527" y="689"/>
      <point x="503" y="668" type="curve"/>
      <point x="503" y="714" type="line"/>
      <point x="351" y="714" type="line" smooth="yes"/>
      <point x="177" y="714"/>
      <point x="60" y="620"/>
      <point x="60" y="368" type="curve" smooth="yes"/>
    </contour>
    <contour>
      <point x="88" y="220" type="line"/>
      <point x="199" y="220" type="line" smooth="yes"/>
      <point x="314" y="220"/>
      <point x="351" y="277"/>
      <point x="351" y="365" type="curve" smooth="yes"/>
      <point x="351" y="448"/>
      <point x="311" y="496"/>
      <point x="208" y="496" type="curve" smooth="yes"/>
      <point x="88" y="496" type="line"/>
    </contour>
    <contour>
      <point x="190" y="303" type="line"/>
      <point x="190" y="412" type="line"/>
      <point x="203" y="412" type="line" smooth="yes"/>
      <point x="232" y="412"/>
      <point x="241" y="392"/>
      <point x="241" y="360" type="curve" smooth="yes"/>
      <point x="241" y="327"/>
      <point x="232" y="303"/>
      <point x="203" y="303" type="curve" smooth="yes"/>
    </contour>
    <contour>
      <point x="439" y="0" type="line"/>
      <point x="569" y="0" type="line"/>
      <point x="569" y="364" type="line"/>
      <point x="439" y="364" type="line"/>
    </contour>
    <contour>
      <point x="373" y="332" type="line"/>
      <point x="569" y="332" type="line"/>
      <point x="569" y="441" type="line"/>
      <point x="373" y="441" type="line"/>
    </contour>
    <component base="bbowlnarrow" xOffset="448"/>
    <component base="bbowlnarrow" xOffset="734" yOffset="220"/>
  </outline>
</glyph>
<glyph name="chwa.eth" format="2">
  <advance width="973"/>
  <unicode hex="132F"/>
  <note>
uni132F
</note>
  <anchor x="514" y="714" name="top"/>
  <outline>
    <contour>
      <point x="686" y="0" type="line"/>
      <point x="816" y="0" type="line"/>
      <point x="816" y="461" type="line" smooth="yes"/>
      <point x="816" y="620"/>
      <point x="771" y="714"/>
      <point x="627" y="714" type="curve" smooth="yes"/>
      <point x="562" y="714"/>
      <point x="522" y="689"/>
      <point x="503" y="668" type="curve"/>
      <point x="503" y="714" type="line"/>
      <point x="351" y="714" type="line" smooth="yes"/>
      <point x="177" y="714"/>
      <point x="60" y="620"/>
      <point x="60" y="368" type="curve" smooth="yes"/>
      <point x="60" y="195" type="line"/>
      <point x="190" y="195" type="line"/>
      <point x="190" y="363" type="line" smooth="yes"/>
      <point x="190" y="513"/>
      <point x="245" y="599"/>
      <point x="349" y="599" type="curve" smooth="yes"/>
      <point x="357" y="599"/>
      <point x="366" y="599"/>
      <point x="373" y="599" type="curve"/>
      <point x="373" y="195" type="line"/>
      <point x="503" y="195" type="line"/>
      <point x="503" y="562" type="line"/>
      <point x="518" y="582"/>
      <point x="550" y="600"/>
      <point x="588" y="600" type="curve" smooth="yes"/>
      <point x="666" y="600"/>
      <point x="686" y="543"/>
      <point x="686" y="426" type="curve" smooth="yes"/>
    </contour>
    <contour>
      <point x="88" y="195" type="line"/>
      <point x="199" y="195" type="line" smooth="yes"/>
      <point x="314" y="195"/>
      <point x="351" y="252"/>
      <point x="351" y="340" type="curve" smooth="yes"/>
      <point x="351" y="423"/>
      <point x="311" y="471"/>
      <point x="208" y="471" type="curve" smooth="yes"/>
      <point x="88" y="471" type="line"/>
    </contour>
    <contour>
      <point x="190" y="278" type="line"/>
      <point x="190" y="387" type="line"/>
      <point x="203" y="387" type="line" smooth="yes"/>
      <point x="232" y="387"/>
      <point x="241" y="367"/>
      <point x="241" y="335" type="curve" smooth="yes"/>
      <point x="241" y="302"/>
      <point x="232" y="278"/>
      <point x="203" y="278" type="curve" smooth="yes"/>
    </contour>
    <component base="footmiddle" xOffset="464"/>
    <component base="bbowlnarrow" xOffset="382" yOffset="195"/>
  </outline>
</glyph>
<glyph name="pha.eth" format="2">
  <advance width="516"/>
  <unicode hex="1330"/>
  <note>
uni1330
</note>
  <anchor x="258" y="760" name="top"/>
  <outline>
    <contour>
      <point x="30" y="0" type="curve"/>
      <point x="163" y="0" type="line"/>
      <point x="163" y="126"/>
      <point x="201" y="177"/>
      <point x="295" y="256" type="curve" smooth="yes"/>
      <point x="372" y="320"/>
      <point x="451" y="372"/>
      <point x="451" y="484" type="curve" smooth="yes"/>
      <point x="451" y="592"/>
      <point x="378" y="659"/>
      <point x="264" y="659" type="curve" smooth="yes"/>
      <point x="143" y="659"/>
      <point x="81" y="583"/>
      <point x="81" y="482" type="curve" smooth="yes"/>
      <point x="81" y="396"/>
      <point x="126" y="340"/>
      <point x="201" y="308" type="curve"/>
      <point x="296" y="375" type="line"/>
      <point x="243" y="397"/>
      <point x="213" y="427"/>
      <point x="213" y="485" type="curve" smooth="yes"/>
      <point x="213" y="521"/>
      <point x="225" y="554"/>
      <point x="265" y="554" type="curve" smooth="yes"/>
      <point x="304" y="554"/>
      <point x="316" y="522"/>
      <point x="316" y="484" type="curve" smooth="yes"/>
      <point x="316" y="415"/>
      <point x="277" y="385"/>
      <point x="222" y="345" type="curve" smooth="yes"/>
      <point x="79" y="240"/>
      <point x="35" y="180"/>
    </contour>
    <contour>
      <point x="356" y="0" type="line"/>
      <point x="486" y="0" type="line"/>
      <point x="486" y="22" type="line" smooth="yes"/>
      <point x="486" y="169"/>
      <point x="427" y="250"/>
      <point x="277" y="295" type="curve"/>
      <point x="197" y="220" type="line"/>
      <point x="310" y="189"/>
      <point x="356" y="139"/>
      <point x="356" y="9" type="curve" smooth="yes"/>
    </contour>
    <contour>
      <point x="199" y="621" type="line"/>
      <point x="329" y="621" type="line"/>
      <point x="329" y="760" type="line"/>
      <point x="199" y="760" type="line"/>
    </contour>
  </outline>
</glyph>
<glyph name="phu.eth" format="2">
  <advance width="661"/>
  <unicode hex="1331"/>
  <note>
uni1331
</note>
  <anchor x="343" y="760" name="top"/>
  <outline>
    <contour>
      <point x="360" y="142" type="line"/>
      <point x="552" y="142" type="line"/>
      <point x="552" y="232" type="line"/>
      <point x="360" y="232" type="line"/>
    </contour>
    <component base="pha.eth"/>
    <component base="rightsingleflag" xOffset="442" yOffset="-179"/>
  </outline>
</glyph>
<glyph name="phee.eth" format="2">
  <advance width="664"/>
  <unicode hex="1334"/>
  <note>
uni1334
</note>
  <anchor x="340" y="760" name="top"/>
  <outline>
    <contour>
      <point x="30" y="0" type="curve"/>
      <point x="163" y="0" type="line"/>
      <point x="163" y="126"/>
      <point x="201" y="177"/>
      <point x="295" y="256" type="curve" smooth="yes"/>
      <point x="372" y="320"/>
      <point x="451" y="372"/>
      <point x="451" y="484" type="curve" smooth="yes"/>
      <point x="451" y="592"/>
      <point x="378" y="659"/>
      <point x="264" y="659" type="curve" smooth="yes"/>
      <point x="143" y="659"/>
      <point x="81" y="583"/>
      <point x="81" y="482" type="curve" smooth="yes"/>
      <point x="81" y="396"/>
      <point x="126" y="340"/>
      <point x="201" y="308" type="curve"/>
      <point x="296" y="375" type="line"/>
      <point x="243" y="397"/>
      <point x="213" y="427"/>
      <point x="213" y="485" type="curve" smooth="yes"/>
      <point x="213" y="521"/>
      <point x="225" y="554"/>
      <point x="265" y="554" type="curve" smooth="yes"/>
      <point x="304" y="554"/>
      <point x="316" y="522"/>
      <point x="316" y="484" type="curve" smooth="yes"/>
      <point x="316" y="415"/>
      <point x="277" y="385"/>
      <point x="222" y="345" type="curve" smooth="yes"/>
      <point x="79" y="240"/>
      <point x="35" y="180"/>
    </contour>
    <contour>
      <point x="504" y="-18" type="curve" smooth="yes"/>
      <point x="603" y="-18"/>
      <point x="650" y="48"/>
      <point x="650" y="127" type="curve" smooth="yes"/>
      <point x="650" y="208"/>
      <point x="601" y="266"/>
      <point x="515" y="266" type="curve" smooth="yes"/>
      <point x="467" y="266"/>
      <point x="428" y="245"/>
      <point x="405" y="216" type="curve"/>
      <point x="386" y="251"/>
      <point x="360" y="276"/>
      <point x="331" y="292" type="curve"/>
      <point x="249" y="219" type="line"/>
      <point x="302" y="189"/>
      <point x="328" y="148"/>
      <point x="349" y="107" type="curve" smooth="yes"/>
      <point x="382" y="42"/>
      <point x="403" y="-18"/>
    </contour>
    <contour>
      <point x="511" y="64" type="curve" smooth="yes"/>
      <point x="481" y="64"/>
      <point x="472" y="96"/>
      <point x="472" y="125" type="curve" smooth="yes"/>
      <point x="472" y="152"/>
      <point x="480" y="183"/>
      <point x="510" y="183" type="curve" smooth="yes"/>
      <point x="540" y="183"/>
      <point x="548" y="153"/>
      <point x="548" y="124" type="curve" smooth="yes"/>
      <point x="548" y="95"/>
      <point x="540" y="64"/>
    </contour>
    <contour>
      <point x="197" y="621" type="line"/>
      <point x="330" y="621" type="line"/>
      <point x="330" y="760" type="line"/>
      <point x="197" y="760" type="line"/>
    </contour>
  </outline>
</glyph>
<glyph name="pho.eth" format="2">
  <advance width="515"/>
  <unicode hex="1336"/>
  <note>
uni1336
</note>
  <anchor x="257" y="760" name="top"/>
  <outline>
    <contour>
      <point x="30" y="0" type="curve"/>
      <point x="164" y="0" type="line"/>
      <point x="164" y="120"/>
      <point x="198" y="175"/>
      <point x="296" y="256" type="curve" smooth="yes"/>
      <point x="373" y="320"/>
      <point x="452" y="372"/>
      <point x="452" y="485" type="curve" smooth="yes"/>
      <point x="452" y="592"/>
      <point x="380" y="659"/>
      <point x="263" y="659" type="curve" smooth="yes"/>
      <point x="145" y="659"/>
      <point x="82" y="591"/>
      <point x="82" y="485" type="curve" smooth="yes"/>
      <point x="82" y="395"/>
      <point x="127" y="340"/>
      <point x="202" y="308" type="curve"/>
      <point x="297" y="375" type="line"/>
      <point x="241" y="398"/>
      <point x="214" y="427"/>
      <point x="214" y="481" type="curve" smooth="yes"/>
      <point x="214" y="523"/>
      <point x="230" y="554"/>
      <point x="266" y="554" type="curve" smooth="yes"/>
      <point x="302" y="554"/>
      <point x="317" y="524"/>
      <point x="317" y="483" type="curve" smooth="yes"/>
      <point x="317" y="414"/>
      <point x="274" y="382"/>
      <point x="223" y="345" type="curve" smooth="yes"/>
      <point x="98" y="254"/>
      <point x="30" y="179"/>
    </contour>
    <contour>
      <point x="346" y="113" type="curve"/>
      <point x="485" y="113" type="line"/>
      <point x="468" y="209"/>
      <point x="402" y="260"/>
      <point x="278" y="295" type="curve"/>
      <point x="198" y="220" type="line"/>
      <point x="279" y="200"/>
      <point x="326" y="169"/>
    </contour>
    <contour>
      <point x="201" y="621" type="line"/>
      <point x="331" y="621" type="line"/>
      <point x="331" y="760" type="line"/>
      <point x="201" y="760" type="line"/>
    </contour>
  </outline>
</glyph>
<glyph name="tsa.eth" format="2">
  <advance width="530"/>
  <unicode hex="1338"/>
  <note>
uni1338
</note>
  <anchor x="265" y="723" name="top"/>
  <outline>
    <contour>
      <point x="30" y="0" type="curve"/>
      <point x="160" y="0" type="line"/>
      <point x="160" y="162"/>
      <point x="186" y="234"/>
      <point x="298" y="323" type="curve" smooth="yes"/>
      <point x="368" y="379"/>
      <point x="456" y="431"/>
      <point x="456" y="549" type="curve" smooth="yes"/>
      <point x="456" y="655"/>
      <point x="385" y="723"/>
      <point x="267" y="723" type="curve" smooth="yes"/>
      <point x="149" y="723"/>
      <point x="86" y="655"/>
      <point x="86" y="549" type="curve" smooth="yes"/>
      <point x="86" y="459"/>
      <point x="131" y="404"/>
      <point x="206" y="372" type="curve"/>
      <point x="301" y="439" type="line"/>
      <point x="245" y="462"/>
      <point x="218" y="491"/>
      <point x="218" y="545" type="curve" smooth="yes"/>
      <point x="218" y="587"/>
      <point x="231" y="618"/>
      <point x="270" y="618" type="curve" smooth="yes"/>
      <point x="306" y="618"/>
      <point x="321" y="588"/>
      <point x="321" y="547" type="curve" smooth="yes"/>
      <point x="321" y="475"/>
      <point x="276" y="446"/>
      <point x="227" y="409" type="curve" smooth="yes"/>
      <point x="102" y="315"/>
      <point x="30" y="243"/>
    </contour>
    <contour>
      <point x="370" y="0" type="line"/>
      <point x="500" y="0" type="line"/>
      <point x="500" y="34" type="line" smooth="yes"/>
      <point x="500" y="217"/>
      <point x="433" y="314"/>
      <point x="282" y="359" type="curve"/>
      <point x="202" y="284" type="line"/>
      <point x="319" y="253"/>
      <point x="370" y="189"/>
      <point x="370" y="22" type="curve" smooth="yes"/>
    </contour>
  </outline>
</glyph>
<glyph name="tsaa.eth" format="2">
  <advance width="524"/>
  <unicode hex="133B"/>
  <note>
uni133B
</note>
  <anchor x="262" y="723" name="top"/>
  <outline>
    <contour>
      <point x="30" y="122" type="curve"/>
      <point x="164" y="122" type="line"/>
      <point x="179" y="220"/>
      <point x="211" y="261"/>
      <point x="293" y="322" type="curve" smooth="yes"/>
      <point x="389" y="393"/>
      <point x="451" y="440"/>
      <point x="451" y="544" type="curve" smooth="yes"/>
      <point x="451" y="657"/>
      <point x="379" y="723"/>
      <point x="262" y="723" type="curve" smooth="yes"/>
      <point x="143" y="723"/>
      <point x="80" y="654"/>
      <point x="80" y="549" type="curve" smooth="yes"/>
      <point x="80" y="457"/>
      <point x="128" y="403"/>
      <point x="201" y="372" type="curve"/>
      <point x="296" y="439" type="line"/>
      <point x="247" y="459"/>
      <point x="213" y="496"/>
      <point x="213" y="543" type="curve" smooth="yes"/>
      <point x="213" y="587"/>
      <point x="230" y="618"/>
      <point x="266" y="618" type="curve" smooth="yes"/>
      <point x="299" y="618"/>
      <point x="315" y="590"/>
      <point x="315" y="546" type="curve" smooth="yes"/>
      <point x="315" y="477"/>
      <point x="268" y="443"/>
      <point x="221" y="410" type="curve" smooth="yes"/>
      <point x="105" y="327"/>
      <point x="52" y="269"/>
    </contour>
    <contour>
      <point x="364" y="0" type="line"/>
      <point x="494" y="0" type="line"/>
      <point x="494" y="34" type="line" smooth="yes"/>
      <point x="494" y="217"/>
      <point x="428" y="314"/>
      <point x="276" y="359" type="curve"/>
      <point x="196" y="284" type="line"/>
      <point x="316" y="253"/>
      <point x="364" y="189"/>
      <point x="364" y="22" type="curve" smooth="yes"/>
    </contour>
  </outline>
</glyph>
<glyph name="tsee.eth" format="2">
  <advance width="669"/>
  <unicode hex="133C"/>
  <note>
uni133C
</note>
  <anchor x="342" y="723" name="top"/>
  <outline>
    <contour>
      <point x="30" y="0" type="curve"/>
      <point x="168" y="0" type="line"/>
      <point x="168" y="146"/>
      <point x="191" y="235"/>
      <point x="300" y="320" type="curve" smooth="yes"/>
      <point x="407" y="403"/>
      <point x="456" y="456"/>
      <point x="456" y="552" type="curve" smooth="yes"/>
      <point x="456" y="653"/>
      <point x="384" y="723"/>
      <point x="270" y="723" type="curve" smooth="yes"/>
      <point x="149" y="723"/>
      <point x="86" y="658"/>
      <point x="86" y="545" type="curve" smooth="yes"/>
      <point x="86" y="459"/>
      <point x="134" y="402"/>
      <point x="206" y="372" type="curve"/>
      <point x="301" y="439" type="line"/>
      <point x="250" y="460"/>
      <point x="218" y="490"/>
      <point x="218" y="542" type="curve" smooth="yes"/>
      <point x="218" y="587"/>
      <point x="236" y="618"/>
      <point x="271" y="618" type="curve" smooth="yes"/>
      <point x="307" y="618"/>
      <point x="321" y="590"/>
      <point x="321" y="545" type="curve" smooth="yes"/>
      <point x="321" y="496"/>
      <point x="296" y="455"/>
      <point x="227" y="409" type="curve" smooth="yes"/>
      <point x="78" y="310"/>
      <point x="30" y="195"/>
    </contour>
    <contour>
      <point x="513" y="-18" type="curve" smooth="yes"/>
      <point x="605" y="-18"/>
      <point x="655" y="48"/>
      <point x="655" y="128" type="curve" smooth="yes"/>
      <point x="655" y="208"/>
      <point x="605" y="266"/>
      <point x="524" y="266" type="curve" smooth="yes"/>
      <point x="475" y="266"/>
      <point x="447" y="248"/>
      <point x="427" y="224" type="curve"/>
      <point x="406" y="287"/>
      <point x="347" y="343"/>
      <point x="305" y="359" type="curve"/>
      <point x="209" y="289" type="line"/>
      <point x="271" y="264"/>
      <point x="306" y="222"/>
      <point x="344" y="127" type="curve" smooth="yes"/>
      <point x="377" y="44"/>
      <point x="408" y="-18"/>
    </contour>
    <contour>
      <point x="512" y="64" type="curve" smooth="yes"/>
      <point x="482" y="64"/>
      <point x="473" y="96"/>
      <point x="473" y="125" type="curve" smooth="yes"/>
      <point x="473" y="152"/>
      <point x="481" y="183"/>
      <point x="511" y="183" type="curve" smooth="yes"/>
      <point x="541" y="183"/>
      <point x="549" y="153"/>
      <point x="549" y="124" type="curve" smooth="yes"/>
      <point x="549" y="95"/>
      <point x="541" y="64"/>
    </contour>
  </outline>
</glyph>
<glyph name="tso.eth" format="2">
  <advance width="526"/>
  <unicode hex="133E"/>
  <note>
uni133E
</note>
  <anchor x="263" y="723" name="top"/>
  <outline>
    <contour>
      <point x="30" y="0" type="curve"/>
      <point x="160" y="0" type="line"/>
      <point x="160" y="146"/>
      <point x="182" y="234"/>
      <point x="300" y="320" type="curve" smooth="yes"/>
      <point x="410" y="400"/>
      <point x="456" y="456"/>
      <point x="456" y="552" type="curve" smooth="yes"/>
      <point x="456" y="653"/>
      <point x="384" y="723"/>
      <point x="270" y="723" type="curve" smooth="yes"/>
      <point x="149" y="723"/>
      <point x="86" y="658"/>
      <point x="86" y="545" type="curve" smooth="yes"/>
      <point x="86" y="459"/>
      <point x="134" y="402"/>
      <point x="206" y="372" type="curve"/>
      <point x="301" y="439" type="line"/>
      <point x="249" y="460"/>
      <point x="218" y="490"/>
      <point x="218" y="542" type="curve" smooth="yes"/>
      <point x="218" y="587"/>
      <point x="236" y="618"/>
      <point x="269" y="618" type="curve" smooth="yes"/>
      <point x="305" y="618"/>
      <point x="321" y="590"/>
      <point x="321" y="545" type="curve" smooth="yes"/>
      <point x="321" y="496"/>
      <point x="296" y="455"/>
      <point x="227" y="409" type="curve" smooth="yes"/>
      <point x="78" y="310"/>
      <point x="31" y="195"/>
    </contour>
    <contour>
      <point x="366" y="123" type="curve"/>
      <point x="496" y="123" type="line"/>
      <point x="481" y="250"/>
      <point x="414" y="322"/>
      <point x="282" y="359" type="curve"/>
      <point x="202" y="284" type="line"/>
      <point x="298" y="261"/>
      <point x="349" y="217"/>
    </contour>
  </outline>
</glyph>
<glyph name="tza.eth" format="2">
  <advance width="482"/>
  <unicode hex="1340"/>
  <note>
uni1340
</note>
  <anchor x="241" y="724" name="top"/>
  <outline>
    <contour>
      <point x="124" y="314" type="line"/>
      <point x="355" y="314" type="line"/>
      <point x="355" y="404" type="line"/>
      <point x="124" y="404" type="line"/>
    </contour>
    <component base="aPhr.eth"/>
  </outline>
</glyph>
<glyph name="tzi.eth" format="2">
  <advance width="489"/>
  <unicode hex="1342"/>
  <note>
uni1342
</note>
  <anchor x="252" y="724" name="top"/>
  <outline>
    <contour>
      <point x="245" y="0" type="line"/>
      <point x="359" y="0" type="line"/>
      <point x="359" y="90" type="line"/>
      <point x="245" y="90" type="line"/>
    </contour>
    <component base="tzaa.eth"/>
    <component base="rightdoubleflag" xOffset="273"/>
  </outline>
</glyph>
<glyph name="tzaa.eth" format="2">
  <advance width="442"/>
  <unicode hex="1343"/>
  <note>
uni1343
</note>
  <anchor x="216" y="724" name="top"/>
  <outline>
    <contour>
      <point x="128" y="0" type="line"/>
      <point x="259" y="0" type="line"/>
      <point x="267" y="70" type="line" smooth="yes"/>
      <point x="279" y="178"/>
      <point x="298" y="238"/>
      <point x="340" y="305" type="curve" smooth="yes"/>
      <point x="381" y="370"/>
      <point x="412" y="435"/>
      <point x="412" y="525" type="curve" smooth="yes"/>
      <point x="412" y="648"/>
      <point x="352" y="724"/>
      <point x="220" y="724" type="curve" smooth="yes"/>
      <point x="87" y="724"/>
      <point x="20" y="640"/>
      <point x="20" y="513" type="curve" smooth="yes"/>
      <point x="20" y="391"/>
      <point x="91" y="306"/>
      <point x="183" y="274" type="curve"/>
      <point x="170" y="238"/>
      <point x="153" y="188"/>
      <point x="140" y="92" type="curve" smooth="yes"/>
    </contour>
    <contour>
      <point x="238" y="374" type="curve"/>
      <point x="188" y="383"/>
      <point x="161" y="422"/>
      <point x="158" y="467" type="curve"/>
      <point x="276" y="467" type="line"/>
      <point x="270" y="433"/>
      <point x="251" y="398"/>
    </contour>
    <contour>
      <point x="156" y="544" type="line"/>
      <point x="157" y="593"/>
      <point x="181" y="624"/>
      <point x="218" y="624" type="curve" smooth="yes"/>
      <point x="252" y="624"/>
      <point x="278" y="599"/>
      <point x="278" y="544" type="curve"/>
    </contour>
  </outline>
</glyph>
<glyph name="tzee.eth" format="2">
  <advance width="515"/>
  <unicode hex="1344"/>
  <note>
uni1344
</note>
  <anchor x="262" y="724" name="top"/>
  <outline>
    <contour>
      <point x="155" y="0" type="line"/>
      <point x="301" y="0" type="line" smooth="yes"/>
      <point x="443" y="0"/>
      <point x="504" y="62"/>
      <point x="504" y="159" type="curve" smooth="yes"/>
      <point x="504" y="251"/>
      <point x="451" y="303"/>
      <point x="328" y="303" type="curve" smooth="yes"/>
      <point x="236" y="303" type="line"/>
    </contour>
    <contour>
      <point x="251" y="92" type="line"/>
      <point x="285" y="211" type="line"/>
      <point x="311" y="211" type="line" smooth="yes"/>
      <point x="352" y="211"/>
      <point x="373" y="190"/>
      <point x="373" y="153" type="curve" smooth="yes"/>
      <point x="373" y="113"/>
      <point x="350" y="92"/>
      <point x="304" y="92" type="curve" smooth="yes"/>
    </contour>
    <component base="tzaa.eth"/>
  </outline>
</glyph>
<glyph name="tze.eth" format="2">
  <advance width="482"/>
  <unicode hex="1345"/>
  <note>
uni1345
</note>
  <anchor x="241" y="760" name="top"/>
  <outline>
    <contour>
      <point x="125" y="264" type="line"/>
      <point x="356" y="264" type="line"/>
      <point x="356" y="365" type="line"/>
      <point x="125" y="365" type="line"/>
    </contour>
    <component base="ePhr.eth"/>
  </outline>
</glyph>
<glyph name="tzo.eth" format="2">
  <advance width="460"/>
  <unicode hex="1346"/>
  <note>
uni1346
</note>
  <anchor x="230" y="723" name="top"/>
  <outline>
    <contour>
      <point x="125" y="483" type="line"/>
      <point x="383" y="483" type="line"/>
      <point x="383" y="552" type="line"/>
      <point x="125" y="552" type="line"/>
    </contour>
    <component base="oPhr.eth"/>
  </outline>
</glyph>
<glyph name="fa.eth" format="2">
  <advance width="580"/>
  <unicode hex="1348"/>
  <note>
uni1348
</note>
  <anchor x="303" y="723" name="top"/>
  <outline>
    <contour>
      <point x="211" y="0" type="curve" smooth="yes"/>
      <point x="437" y="0" type="line"/>
      <point x="480" y="90" type="line"/>
      <point x="368" y="90" type="line"/>
      <point x="383" y="110"/>
      <point x="397" y="152"/>
      <point x="397" y="204" type="curve" smooth="yes"/>
      <point x="397" y="286"/>
      <point x="362" y="333"/>
      <point x="309" y="358" type="curve"/>
      <point x="335" y="378"/>
      <point x="360" y="405"/>
      <point x="382" y="439" type="curve" smooth="yes"/>
      <point x="423" y="504"/>
      <point x="451" y="587"/>
      <point x="452" y="723" type="curve"/>
      <point x="317" y="723" type="line"/>
      <point x="316" y="617"/>
      <point x="301" y="558"/>
      <point x="269" y="503" type="curve" smooth="yes"/>
      <point x="242" y="457"/>
      <point x="217" y="435"/>
      <point x="172" y="403" type="curve" smooth="yes"/>
      <point x="114" y="361"/>
      <point x="31" y="313"/>
      <point x="31" y="187" type="curve" smooth="yes"/>
      <point x="31" y="73"/>
      <point x="98" y="0"/>
    </contour>
    <contour>
      <point x="213" y="101" type="curve" smooth="yes"/>
      <point x="177" y="101"/>
      <point x="160" y="131"/>
      <point x="160" y="182" type="curve" smooth="yes"/>
      <point x="160" y="240"/>
      <point x="182" y="272"/>
      <point x="211" y="296" type="curve"/>
      <point x="249" y="279"/>
      <point x="267" y="235"/>
      <point x="267" y="189" type="curve" smooth="yes"/>
      <point x="267" y="138"/>
      <point x="253" y="101"/>
    </contour>
    <component base="rightdoubleflag" xOffset="364"/>
  </outline>
</glyph>
<glyph name="fu.eth" format="2">
  <advance width="532"/>
  <unicode hex="1349"/>
  <note>
uni1349
</note>
  <anchor x="279" y="760" name="top"/>
  <outline>
    <contour>
      <point x="58" y="0" type="curve"/>
      <point x="201" y="0" type="line"/>
      <point x="206" y="74"/>
      <point x="229" y="147"/>
      <point x="295" y="203" type="curve" smooth="yes"/>
      <point x="361" y="259"/>
      <point x="383" y="316"/>
      <point x="383" y="387" type="curve" smooth="yes"/>
      <point x="383" y="463"/>
      <point x="362" y="517"/>
      <point x="324" y="543" type="curve"/>
      <point x="413" y="584"/>
      <point x="447" y="651"/>
      <point x="449" y="760" type="curve"/>
      <point x="306" y="760" type="line"/>
      <point x="304" y="672"/>
      <point x="271" y="617"/>
      <point x="162" y="574" type="curve" smooth="yes"/>
      <point x="70" y="538"/>
      <point x="31" y="490"/>
      <point x="31" y="378" type="curve" smooth="yes"/>
      <point x="31" y="288"/>
      <point x="65" y="224"/>
      <point x="139" y="206" type="curve"/>
      <point x="92" y="162"/>
      <point x="62" y="79"/>
    </contour>
    <contour>
      <point x="207" y="302" type="curve" smooth="yes"/>
      <point x="176" y="302"/>
      <point x="160" y="328"/>
      <point x="160" y="385" type="curve" smooth="yes"/>
      <point x="160" y="438"/>
      <point x="177" y="467"/>
      <point x="209" y="467" type="curve" smooth="yes"/>
      <point x="237" y="467"/>
      <point x="255" y="439"/>
      <point x="255" y="386" type="curve" smooth="yes"/>
      <point x="255" y="331"/>
      <point x="238" y="302"/>
    </contour>
    <contour>
      <point x="260" y="198" type="line"/>
      <point x="365" y="198" type="line"/>
      <point x="365" y="288" type="line"/>
      <point x="260" y="288" type="line"/>
    </contour>
    <component base="rightdoubleflag" xOffset="316" yOffset="198"/>
  </outline>
</glyph>
